<svg xmlns="http://www.w3.org/2000/svg" width="165.3" height="165.3" viewBox="0 0 165.3 165.3">
    <linearGradient id="a" gradientUnits="userSpaceOnUse" x1="82.666" y1="165.333" x2="82.666">
        <stop offset="0" stop-color="#509ED6"/>
        <stop offset="1" stop-color="#84C5E8"/>
    </linearGradient>
    <path fill="url(#a)" d="M82.7 165.3C37.1 165.3 0 128.2 0 82.7S37.1 0 82.7 0s82.7 37.1 82.7 82.7-37.2 82.6-82.7 82.6zM82.7 6C40.4 6 6 40.4 6 82.7s34.4 76.7 76.7 76.7 76.7-34.4 76.7-76.7S124.9 6 82.7 6z"/>
    <linearGradient id="b" gradientUnits="userSpaceOnUse" x1="82.666" y1="129.169" x2="82.666" y2="36.164">
        <stop offset="0" stop-color="#DD4936"/>
        <stop offset="1" stop-color="#EA785A"/>
    </linearGradient>
    <path fill="url(#b)" d="M102.9 36.2H62.4c-4.5 0-8.1 3.6-8.1 8.1v76.8c0 4.5 3.6 8.1 8.1 8.1h40.5c4.5 0 8.1-3.6 8.1-8.1V44.3c0-4.5-3.6-8.1-8.1-8.1zm2.1 84.9c0 1.2-.9 2.1-2.1 2.1H62.4c-1.2 0-2.1-.9-2.1-2.1v-8.9H105v8.9zm0-14.9H60.3v-47H105v47zm0-53H60.3v-8.9c0-1.2.9-2.1 2.1-2.1h40.5c1.2 0 2.1.9 2.1 2.1v8.9z"/>
    <linearGradient id="c" gradientUnits="userSpaceOnUse" x1="82.666" y1="49.336" x2="82.666" y2="46.336">
        <stop offset="0" stop-color="#DD4936"/>
        <stop offset="1" stop-color="#EA785A"/>
    </linearGradient>
    <path fill="url(#c)" d="M86.3 46.3H79c-.8 0-1.5.7-1.5 1.5s.7 1.5 1.5 1.5h7.3c.8 0 1.5-.7 1.5-1.5s-.6-1.5-1.5-1.5z"/>
    <linearGradient id="d" gradientUnits="userSpaceOnUse" x1="82.666" y1="120.419" x2="82.666" y2="114.919">
        <stop offset="0" stop-color="#DD4936"/>
        <stop offset="1" stop-color="#EA785A"/>
    </linearGradient>
    <circle fill="url(#d)" cx="82.7" cy="117.7" r="2.8"/>
</svg>
