<svg xmlns="http://www.w3.org/2000/svg" width="165.3" height="165.3" viewBox="0 0 165.3 165.3">
    <linearGradient id="a" gradientUnits="userSpaceOnUse" x1="82.666" y1="120.583" x2="82.666" y2="38.75">
        <stop offset="0" stop-color="#DD4936"/>
        <stop offset="1" stop-color="#EA785A"/>
    </linearGradient>
    <path fill="url(#a)" d="M107.3 75.9h-5.7V57.8c0-10.5-8.5-19-19-19s-19 8.5-19 19v4c0 1.7 1.3 3 3 3s3-1.3 3-3v-4c0-7.2 5.8-13 13-13s13 5.8 13 13V76H58c-1.7 0-3 1.3-3 3v38.7c0 1.7 1.3 3 3 3h49.3c1.7 0 3-1.3 3-3V78.9c0-1.6-1.3-3-3-3zm-3 38.7H61V81.9h43.3v32.7z"/>
    <linearGradient id="b" gradientUnits="userSpaceOnUse" x1="82.666" y1="165.333" x2="82.666">
        <stop offset="0" stop-color="#509ED6"/>
        <stop offset="1" stop-color="#84C5E8"/>
    </linearGradient>
    <path fill="url(#b)" d="M82.7 165.3C37.1 165.3 0 128.2 0 82.7S37.1 0 82.7 0s82.7 37.1 82.7 82.7-37.2 82.6-82.7 82.6zM82.7 6C40.4 6 6 40.4 6 82.7s34.4 76.7 76.7 76.7 76.7-34.4 76.7-76.7S124.9 6 82.7 6z"/>
</svg>
