<svg xmlns="http://www.w3.org/2000/svg" width="1200.6" height="176.7" viewBox="0 511.7 1200.6 176.7" enable-background="new 0 511.7 1200.6 176.7">
    <g fill="#fff">
        <path d="M78.1 598.8h98.6v-87.1l-98.6 13.8zM75.1 598.8v-72.7L0 536.3v62.5zM78.1 601.2v73.3l98.6 13.8v-87.1zM75.1 601.2H0v62.5l75.1 10.2zM367.2 547.1l-30 106.4h-14.4l-23.4-84.1-24 84.1H261l-31.2-106.4h13.8l24.6 88.3h.6l25.8-88.3h12l24 88.9 23.4-88.9h13.2zM389.4 652.9h-12v-75.7h12v75.7zM470.5 652.9h-12v-43.3c0-16.2-6-24-17.4-24-6 0-10.8 2.4-15 6.6-4.2 4.8-6 10.2-6 17.4v43.3h-12v-75.7h12v12.6c5.4-9.6 13.8-14.4 24.6-14.4 8.4 0 14.4 3 19.2 8.4 4.2 5.4 6.6 13.2 6.6 22.8v46.3zM554 652.9h-12v-12.6c-5.4 9.6-14.4 14.4-25.8 14.4-9.6 0-17.4-3.6-22.8-10.2-5.4-6.6-8.4-16.2-8.4-27.6 0-12.6 3-22.8 9.6-30 6-7.8 14.4-11.4 25.2-11.4 10.2 0 18 4.2 22.8 12v-46.3h12V653h-.6zm-12-34.3v-10.8c0-6-1.8-11.4-6-15.6-4.2-4.2-9-6-15-6-7.2 0-13.2 2.4-17.4 7.8-4.2 5.4-6.6 12.6-6.6 22.2 0 8.4 1.8 15.6 6 20.4 4.2 4.8 9.6 7.8 16.2 7.8s12-2.4 16.2-7.2c4.2-4.8 6.6-10.8 6.6-18.6zM644.2 615c0 12-3.6 21.6-10.2 28.8-6.6 7.2-16.2 10.8-27.6 10.8-11.4 0-20.4-3.6-27-10.8s-10.2-16.2-10.2-28.2c0-12.6 3.6-22.2 10.2-29.4s16.2-10.8 28.2-10.8c11.4 0 19.8 3.6 26.4 10.8 7.2 6.6 10.2 16.2 10.2 28.8zm-12.7 0c0-9.6-2.4-16.8-6.6-21.6-4.2-4.8-10.2-7.8-18-7.8-7.8 0-13.8 2.4-18.6 7.8-4.8 5.4-6.6 12.6-6.6 22.2 0 9 2.4 16.2 6.6 21 4.8 4.8 10.8 7.8 18.6 7.8s13.8-2.4 18-7.8c4.8-4.8 6.6-12 6.6-21.6zM754.1 577.2l-22.8 75.7h-12.6L701.9 594l-18.6 58.9h-12l-22.8-75.7H661l16.8 61.3h.6l18.6-61.3h10.8l16.8 61.3h.6l16.8-61.3h12.1zM805.8 632.4c0 6.6-2.4 12-7.8 16.2-4.8 4.2-12 6-20.4 6-7.2 0-13.2-1.8-18.6-4.8v-13.2c6 4.8 12.6 7.2 19.8 7.2 9.6 0 14.4-3.6 14.4-10.8 0-3-1.2-5.4-3-7.2-1.8-1.8-6-4.2-12.6-7.2s-11.4-6-14.4-9-4.2-7.8-4.2-13.2c0-6 2.4-11.4 7.8-15.6 4.8-4.2 11.4-6 19.2-6 6 0 11.4 1.2 16.2 3.6v12c-4.8-3.6-10.8-5.4-17.4-5.4-4.2 0-7.2 1.2-9.6 3-2.4 1.8-3.6 4.8-3.6 7.8 0 3.6 1.2 6 3 7.8 1.8 1.8 6 4.2 11.4 6.6 7.2 3 12 6 15 9.6 3 3.6 4.8 7.8 4.8 12.6zM933.8 652.9H920l-11.4-29.4h-45.1l-10.8 29.4h-13.8l40.3-106.4h12.6l42 106.4zM904.4 612l-18.6-49.9-18 49.9h36.6zM1000.5 580.8l-45.1 61.9h44.5v10.2h-62.5v-3.6l45.1-61.9h-40.9v-10.2h58.3v3.6h.6zM1073.2 652.9h-12v-12c-4.8 9-12.6 13.8-23.4 13.8-18 0-27-10.8-27-32.4v-45.1h12v43.3c0 16.2 6 24 18.6 24 6 0 10.8-2.4 14.4-6.6 3.6-4.2 5.4-10.2 5.4-16.8v-43.9h12v75.7zM1132.1 589.8c-2.4-1.8-5.4-2.4-9-2.4-5.4 0-9.6 2.4-13.2 7.8-3.6 4.8-4.8 11.4-4.8 19.8v38.5h-12v-76.3h12v15.6c1.8-5.4 4.2-9.6 7.8-12.6 3.6-3 7.8-4.8 12-4.8 3 0 5.4.6 7.2 1.2v13.2zM1200 618h-53.5c0 8.4 2.4 15 6.6 19.8 4.2 4.8 10.2 6.6 18 6.6 8.4 0 16.2-3 23.4-8.4v11.4c-6.6 4.8-15.6 7.2-26.4 7.2-10.8 0-19.2-3.6-25.2-10.2-6-7.2-9-16.8-9-28.8 0-7.2 1.8-14.4 4.8-20.4 3-6 7.2-10.8 12.6-14.4 5.4-3.6 11.4-4.8 18-4.8 9.6 0 17.4 3 22.8 9.6 5.4 6.6 8.4 15.6 8.4 27v5.4h-.5zm-12.6-10.2c0-7.2-1.8-12.6-4.8-16.2-3-3.6-7.8-6-13.8-6-5.4 0-10.2 1.8-14.4 6s-6.6 9.6-7.8 16.2h40.8z"/>
    </g>
</svg>
