<svg fill="#fff" xmlns="http://www.w3.org/2000/svg" width="1200" height="304.2" viewBox="0 447.9 1200 304.2" enable-background="new 0 447.9 1200 304.2">
    <path d="M428 621.5c-31.6 0-53.2-26.9-53.2-59.2 0-32.3 22.2-58.6 53.2-58.6 18.2 0 32.3 7.4 46.4 21.5l25.6-30.3c-16.8-16.8-37.7-28.9-72-28.9-55.9 0-94.9 43.1-94.9 96.9v-.7c0 54.5 40.4 96.9 93.6 96.9 35 0 56.5-12.8 75.4-34.3l-25.6-26.2c-14.8 14.2-27.6 22.9-48.5 22.9zm259.8 34.4V468.1h-40.4v74H574v-74h-40.4v187.8H574v-75.4h73.4v75.4h40.4zm188.5-36.4h-99.6v-39.7h85.5v-36.3h-85.5v-38.4h97.6v-37h-138v187.8h139.3v-36.3h.7zm40.4 36.4H957v-72.7h87.5v-37.7H957v-39.7h99.6v-37.7H917.3v187.8h-.6zm-681.8-37.7h-25.6c-7.4 28.3-32.3 48.5-62.6 48.5-37 0-66-30.3-66-68s28.9-67.3 66-67.3c30.3 0 54.5 20.2 62.6 48.5h25.6c-8.7-42.4-44.4-74-88.2-74-50.5 0-90.9 41.7-90.9 92.9 0 51.8 40.4 93.6 90.9 93.6 43.8-.9 79.4-31.8 88.2-74.2zm-133.3 26.2c11.4 12.1 26.2 19.5 44.4 19.5V637c-10.1 0-19.5-4-26.2-10.8l-18.2 18.2zM146.7 534c-35 0-63.3 28.9-63.3 64.6 0 9.4 2.7 18.8 5.4 26.2l24.9-10.8c-2.7-4-3.4-9.4-3.4-15.5 0-20.2 16.2-37.7 37-37.7V534h-.6zm22.2 4.1l-9.4 25.6c7.4 3.4 14.8 9.4 18.8 16.2h28.3c-6-18.9-20.2-34.4-37.7-41.8zm-9.4 95.6l9.4 24.9c18.2-6.7 31.6-22.2 37.7-41.1h-28.3c-4.7 7.4-11.4 12.8-18.8 16.2zm-130.6-3.4c-.7-2-.7-2.7-2-4v-.7c0-.7 0-2.7-.7-3.4v-4.7c-.7-.7-.7-2-.7-2.7-.7-5.4-.7-10.8-.7-16.8H0c0 6.7 0 12.8.7 18.8 0 2 .7 3.4.7 5.4v.7c0 2 .7 3.4.7 4s0 2 .7 2.7v2.7c.7.7.7 2 .7 3.4 0 0 .7.7.7 2 0 2 0 2.7.7 3.4v2c2 6.1 4 10.8 6.1 16.8l22.9-10.1c-2-5.4-3.4-9.4-5.4-14.1.4-2.7.4-3.4.4-5.4zm117.8 93.5c-33.7 0-63.9-14.1-86.8-37.7L43.1 705c26.2 26.9 62.6 44.4 103.6 44.4 74.7 0 135.3-57.9 144.7-131.9h-24.9c-9.4 59.9-59.9 106.3-119.8 106.3zm0-250.3c26.2 0 52.5 9.4 72 24.9l15.5-20.2c-24.9-19.5-55.2-30.3-87.5-30.3-62.6 0-115.8 39.7-136.6 96.2l23.6 9.4c16.8-47.1 61.2-80 113-80zM249 532c8.7 14.1 14.8 30.3 16.8 47.8h24.9c-2.7-22.2-10.1-42.4-21.5-61.2L249 532zm-59.9-46.4l-9.4 23.6c30.3 10.8 51.1 38.4 58.6 70.7h24.9c-6.8-43.8-35-79.5-74.1-94.3zm-42.4 16.8v-25.6c-50.5 0-93.6 32.3-110.4 77.4l22.9 9.4c13.5-35.6 47.1-61.2 87.5-61.2zm-45.1 210l9.4-23.6c-34.3-14.1-59.2-49.1-59.2-90.2H27.6c0 51.2 31 95 74 113.8zm161.6-94.2h-24.9c-8.7 44.4-46.4 77.4-91.5 77.4v25.6c58.5-.7 107.6-45.8 116.4-103zm121.1 97.6c-12.1-2.7-14.8-4-14.8-9.4 0-4 3.4-7.4 9.4-7.4s11.4 2.7 16.2 6.7l6.1-8.7c-6.1-5.4-12.8-7.4-21.5-7.4-12.1 0-20.9 7.4-20.9 18.2s6.7 15.5 19.5 18.8c11.4 2.7 13.5 4 13.5 9.4 0 4-4 7.4-11.4 7.4-6.7 0-12.8-3.4-18.2-8.7l-6.7 7.4c7.4 6.7 16.2 10.1 24.9 10.1 12.8 0 21.5-6.7 21.5-18.8 1.2-10.2-5.5-14.3-17.6-17.6zm88.2 9.4c0 12.1-5.4 16.8-14.8 16.8s-14.8-6.1-14.8-16.8v-35h-11.4v35c0 18.2 10.1 26.9 25.6 26.9s24.9-9.4 24.9-26.9v-35h-10.1v35h.6zm67.3-35h-22.9v61.2H527v-19.5h11.4c12.8 0 24.2-7.4 24.2-21.5-.6-12.1-9.4-20.2-22.8-20.2zm-1.4 31.6h-12.1v-21.5h12.1c7.4 0 12.8 3.4 12.8 10.8.7 6-4.7 10.7-12.8 10.7zm52.5 29.6h43.7V742H601v-16.8h30.3v-9.4H601v-16.2h33.7v-9.4H591v61.2h-.1zm123.2-41.7c0-12.1-8.7-19.5-22.2-19.5h-26.2v61.2h10.1v-21.5h13.5l14.8 21.5h12.1L700 728.5c8-2.6 14.1-8.7 14.1-18.8zm-38.4 10.8v-20.2h15.5c7.4 0 12.1 3.4 12.1 10.1 0 6.1-4 10.1-12.1 10.1h-15.5zm98.3-1.4l-18.2-28.9h-11.4v61.2h10.1v-43.1l18.8 28.3 18.8-28.9v44.4h10.1v-61.9h-11.4L774 719.1zm84.1-28.9l-26.2 61.2h11.4l6.1-14.1H877l6.1 14.1h11.4l-25.6-61.2h-10.8zm-6.1 36.3l10.1-23.6 10.1 23.6H852zm118.5-16.8c0-12.1-8.7-19.5-22.2-19.5H922v61.2h11.4v-21.5h12.8l14.8 21.5h12.1L957 728.5c7.4-2.6 13.5-8.7 13.5-18.8zm-37.7 10.8v-20.2h14.8c7.4 0 12.1 3.4 12.1 10.1 0 6.1-4 10.1-12.1 10.1h-14.8zm119.8-30.3h-12.8l-28.3 30.3v-30.3h-10.1v61.2h10.1v-18.2l9.4-9.4 20.9 26.9h12.1l-25.6-35 24.3-25.5zm38.4 35h30.3v-9.4H1091v-16.2h33.7v-9.4H1081v61.2h44.4V742H1091v-16.8zm61.2-35v10.1h18.8v51.1h10.1v-51.1h18.8v-10.1h-47.7z"/>
</svg>
