<svg xmlns="http://www.w3.org/2000/svg" width="165.3" height="165.3" viewBox="0 0 165.3 165.3">
    <linearGradient id="a" gradientUnits="userSpaceOnUse" x1="82.667" y1="165.333" x2="82.667">
        <stop offset="0" stop-color="#509ED6"/>
        <stop offset="1" stop-color="#84C5E8"/>
    </linearGradient>
    <path fill="url(#a)" d="M82.7 165.3C37.1 165.3 0 128.2 0 82.7S37.1 0 82.7 0s82.7 37.1 82.7 82.7-37.2 82.6-82.7 82.6zM82.7 6C40.4 6 6 40.4 6 82.7s34.4 76.7 76.7 76.7c42.3 0 76.7-34.4 76.7-76.7S124.9 6 82.7 6z"/>
    <linearGradient id="b" gradientUnits="userSpaceOnUse" x1="85.666" y1="130.542" x2="85.666" y2="36.791">
        <stop offset="0" stop-color="#DD4936"/>
        <stop offset="1" stop-color="#EA785A"/>
    </linearGradient>
    <path fill="url(#b)" d="M120 62.3H95.5c-1.7 0-3 1.3-3 3v12.2h-26V67.3h9.2c1.7 0 3-1.3 3-3V39.8c0-1.7-1.3-3-3-3H51.3c-1.7 0-3 1.3-3 3v24.5c0 1.7 1.3 3 3 3h9.2v13.3c0 1.7 1.3 3 3 3h16V100h-9.2c-1.7 0-3 1.3-3 3v24.5c0 1.7 1.3 3 3 3h24.5c1.7 0 3-1.3 3-3V103c0-1.7-1.3-3-3-3h-9.2V83.6h7v6.2c0 1.7 1.3 3 3 3H120c1.7 0 3-1.3 3-3V65.3c0-1.6-1.3-3-3-3zM54.3 42.8h18.5v18.5H54.3V42.8zm37.5 81.7H73.3V106h18.5v18.5zM117 86.8H98.5V68.3H117v18.5z"/>
</svg>
