<svg class="icon" xmlns="http://www.w3.org/2000/svg" viewBox="0 0 1200 1200" enable-background="new 0 0 1200 1200">
	<path class="icon-outer" d="M600.4,0C269.3,0,0,270.1,0,600.4S269.3,1200,600.4,1200l0,0c330.3,0,600.4-268.6,600.4-599.6S931.4,0,600.4,0z
		 M600.4,1157.2c-307.1,0-556.8-249.7-556.8-556.8S293.3,43.6,600.4,43.6c306.4,0,556.8,249.7,556.8,556.8S907.4,1157.2,600.4,1157.2 z"/>
	<g class="icon-inner">
		<path d="M879.1,484.9c11.6,0,21.8-10.2,21.8-21.8V321.6c0-12.3-9.4-21.8-21.8-21.8H737.6c-12.3,0-21.8,9.4-21.8,21.8
			c0,12.3,9.4,21.8,21.8,21.8h88.6L709.8,459.7c-31.3-24.4-70.2-38-110.1-38c-39.9,0-78.2,13-109.8,37.6l-116-116h89.3
			c12.3,0,21.8-9.4,21.8-21.8c0-12.3-9.4-21.8-21.8-21.8H321.6c-12.3,0-21.8,9.4-21.8,21.8v141.6c0,12.3,9.4,21.8,21.8,21.8
			c11.6,0,21.8-10.2,21.8-21.8v-89.3l115.9,115.9c-24.6,31.2-38.3,69.8-38.3,110.6c0,40.5,13.5,78.4,38.3,109.8l-116,116v-88.6
			c0-12.3-9.4-21.8-21.8-21.8c-12.3,0-21.8,9.4-21.8,21.8v141.6c0,12.3,9.4,21.8,21.8,21.8h141.6c11.6,0,21.8-9.4,21.8-21.8
			s-9.4-21.8-21.8-21.8h-90l116.7-116.7c31.2,24.6,69.8,38.3,110.6,38.3c40.7,0,79.4-13.1,110.1-38l116.4,116.4h-89.3
			c-12.3,0-21.8,9.4-21.8,21.8s9.4,21.8,21.8,21.8h141.6c11.6,0,21.8-10.2,21.8-21.8V737.6c0-12.3-9.4-21.8-21.8-21.8
			s-21.8,9.4-21.8,21.8v89.3L740.6,710.1c24.2-31,37.6-69.4,37.6-109.7c0-40.1-13.1-78.6-37.9-110.2l117.1-117.1v90
			C857.4,475.5,866.8,484.9,879.1,484.9z M507.4,699c-0.8-1.2-1.8-2.4-2.9-3.5c-1.2-1.3-2.5-2.4-4-3.3c-23.6-24.9-36-57.4-36-91.8
			c0-36.3,13.8-70.4,39.9-95.8c25.4-26.1,59.5-39.9,95.8-39.9c36.3,0,69.7,13.8,95.8,39.9c26.1,25.4,39.9,59.5,39.9,95.8
			c0,34.2-12.9,66.5-35.6,91.3c-1.8,1-3.5,2.2-5,3.8c-1.8,1.6-3.2,3.5-4.3,5.6c-24.8,23-56.9,35.1-90.8,35.1
			C565.4,736.1,532.5,722.7,507.4,699z"/>
		<circle cx="600.4" cy="600.4" r="72.6"/>
	</g>
</svg>
