<svg class="icon" xmlns="http://www.w3.org/2000/svg" viewBox="0 0 165.3 165.3" enable-background="new 0 0 165.3 165.3" xml:space="preserve">
	<g class="icon-outer">
		<path d="M82.7,165.3C37.1,165.3,0,128.2,0,82.7S37.1,0,82.7,0s82.7,37.1,82.7,82.7S128.2,165.3,82.7,165.3z M82.7,6
			C40.4,6,6,40.4,6,82.7s34.4,76.7,76.7,76.7s76.7-34.4,76.7-76.7S124.9,6,82.7,6z"/>
	</g>
	<g class="icon-inner">
		<path d="M60.4,75.8c3,12.5,11.8,21,22.2,21c10.4,0,19.3-8.5,22.2-21c2.1-1.9,3.5-4.8,4-8.3c0.6-3.7-0.1-7.2-1.8-9.7
			c-0.1-13.4-11.1-24.3-24.5-24.3c-13.5,0-24.4,10.9-24.5,24.3c-1.7,2.5-2.3,6-1.8,9.7C56.9,71,58.4,73.9,60.4,75.8z M64.3,60.1
			c-0.1-0.7-0.1-1.4-0.1-2c0-10.2,8.3-18.5,18.5-18.5s18.5,8.3,18.5,18.5c0,0.7,0,1.4-0.1,2c1.6,0.8,2.4,3.5,1.9,6.6
			c-0.4,2.8-1.9,5.1-3.5,5.6c-1.8,10.6-8.6,18.6-16.8,18.6c-8.2,0-15.1-7.9-16.8-18.6c-1.6-0.5-3.1-2.8-3.5-5.6
			C61.8,63.6,62.7,60.9,64.3,60.1z"/>
		<path d="M119.7,123.3c-1.9-10.5-8.2-19.7-17.2-25.3c-1.4-0.9-3.3-0.4-4.1,1c-0.9,1.4-0.4,3.3,1,4.1c6.6,4.1,11.4,10.4,13.6,17.7
			H52.4c2.2-7.3,7.1-13.6,13.6-17.7c1.4-0.9,1.8-2.7,1-4.1c-0.9-1.4-2.7-1.8-4.1-1c-9.1,5.6-15.4,14.8-17.2,25.3
			c-0.2,0.9,0.1,1.8,0.7,2.5s1.4,1.1,2.3,1.1h68.1c0.9,0,1.7-0.4,2.3-1.1C119.6,125,119.8,124.1,119.7,123.3z"/>
	</g>
</svg>
