<?xml version="1.0" encoding="utf-8"?>
<!-- Generator: Adobe Illustrator 18.1.1, SVG Export Plug-In . SVG Version: 6.00 Build 0)  -->
<svg version="1.1" id="Layer_1" xmlns="http://www.w3.org/2000/svg" xmlns:xlink="http://www.w3.org/1999/xlink" x="0px" y="0px"
	 width="165.3px" height="165.3px" viewBox="0 0 165.3 165.3" enable-background="new 0 0 165.3 165.3" xml:space="preserve">
<linearGradient id="SVGID_1_" gradientUnits="userSpaceOnUse" x1="82.6665" y1="120.583" x2="82.6665" y2="38.75">
	<stop  offset="0" style="stop-color:#DD4936"/>
	<stop  offset="1" style="stop-color:#EA785A"/>
</linearGradient>
<path fill="url(#SVGID_1_)" d="M107.3,75.9h-5.7V57.8c0-10.5-8.5-19-19-19s-19,8.5-19,19v4c0,1.7,1.3,3,3,3s3-1.3,3-3v-4
	c0-7.2,5.8-13,13-13s13,5.8,13,13v18.2H58c-1.7,0-3,1.3-3,3v38.7c0,1.7,1.3,3,3,3h49.3c1.7,0,3-1.3,3-3V78.9
	C110.3,77.3,109,75.9,107.3,75.9z M104.3,114.6H61V81.9h43.3V114.6z"/>
<g>
	<linearGradient id="SVGID_2_" gradientUnits="userSpaceOnUse" x1="82.6665" y1="165.333" x2="82.6665" y2="-6.357850e-07">
		<stop  offset="0" style="stop-color:#509ED6"/>
		<stop  offset="1" style="stop-color:#84C5E8"/>
	</linearGradient>
	<path fill="url(#SVGID_2_)" d="M82.7,165.3C37.1,165.3,0,128.2,0,82.7S37.1,0,82.7,0s82.7,37.1,82.7,82.7S128.2,165.3,82.7,165.3z
		 M82.7,6C40.4,6,6,40.4,6,82.7s34.4,76.7,76.7,76.7s76.7-34.4,76.7-76.7S124.9,6,82.7,6z"/>
</g>
</svg>
