<svg class="icon" xmlns="http://www.w3.org/2000/svg" viewBox="0 0 1200 1200" enable-background="new 0 0 1200 1200">
	<path class="icon-outer" d="M600.1-0.7C269.1-0.7,0,269.3,0,599.4s269.1,599.3,600.1,599.3c330.1,0,600.1-268.3,600.1-599.3S931-0.7,600.1-0.7z
		M600.1,1155.9c-306.9,0-556.5-249.6-556.5-556.5S293.1,42.9,600.1,42.9c306.1,0,556.5,249.6,556.5,556.5S907,1155.9,600.1,1155.9z"/>
	<path class="icon-inner" d="M855.4,824.3L704.9,673.7c69.8-84.6,65.1-210.1-14.1-289.2c-40.7-40.7-95-63.2-152.4-63.2S426.7,343.8,386,384.5
		c-84.2,84.2-84.2,220.6,0,304.7c40.7,40.7,95,63.2,152.4,63.2c49.9,0,97.1-17.1,135.8-48.4L825,854.8c4.3,4.3,9.4,6.5,15.2,6.5
		c5.8,0,11.6-1.4,15.2-6.5C864.1,846.8,864.1,833,855.4,824.3z M417.3,658.9c-66.8-67.5-66.8-176.3,0-243.1
		c31.9-32,75.5-50.1,121.1-50.1s88.4,18.2,121.1,50.1c66.8,67.5,66.8,176.3,0,243.1c-31.9,32-75.5,50.1-121.1,50.1
		S449.9,691.5,417.3,658.9z"/>
</svg>
