<?xml version="1.0" encoding="utf-8"?>
<!-- Generator: Adobe Illustrator 18.1.1, SVG Export Plug-In . SVG Version: 6.00 Build 0)  -->
<svg version="1.1" id="Layer_1" xmlns="http://www.w3.org/2000/svg" xmlns:xlink="http://www.w3.org/1999/xlink" x="0px" y="0px"
	 width="165.3px" height="165.3px" viewBox="0 0 165.3 165.3" enable-background="new 0 0 165.3 165.3" xml:space="preserve">
<g>
	<g>
		<linearGradient id="SVGID_1_" gradientUnits="userSpaceOnUse" x1="82.6665" y1="165.333" x2="82.6665" y2="5.086261e-06">
			<stop  offset="0" style="stop-color:#509ED6"/>
			<stop  offset="1" style="stop-color:#84C5E8"/>
		</linearGradient>
		<path fill="url(#SVGID_1_)" d="M82.7,165.3C37.1,165.3,0,128.2,0,82.7S37.1,0,82.7,0s82.7,37.1,82.7,82.7S128.2,165.3,82.7,165.3z
			 M82.7,6C40.4,6,6,40.4,6,82.7s34.4,76.7,76.7,76.7s76.7-34.4,76.7-76.7S124.9,6,82.7,6z"/>
	</g>
</g>
<g>
	<linearGradient id="SVGID_2_" gradientUnits="userSpaceOnUse" x1="82.6665" y1="129.1688" x2="82.6665" y2="36.1639">
		<stop  offset="0" style="stop-color:#DD4936"/>
		<stop  offset="1" style="stop-color:#EA785A"/>
	</linearGradient>
	<path fill="url(#SVGID_2_)" d="M102.9,36.2H62.4c-4.5,0-8.1,3.6-8.1,8.1v76.8c0,4.5,3.6,8.1,8.1,8.1h40.5c4.5,0,8.1-3.6,8.1-8.1
		V44.3C111,39.8,107.4,36.2,102.9,36.2z M105,121.1c0,1.2-0.9,2.1-2.1,2.1H62.4c-1.2,0-2.1-0.9-2.1-2.1v-8.9H105V121.1z M105,106.2
		H60.3v-47H105V106.2z M105,53.2H60.3v-8.9c0-1.2,0.9-2.1,2.1-2.1h40.5c1.2,0,2.1,0.9,2.1,2.1V53.2z"/>
	<linearGradient id="SVGID_3_" gradientUnits="userSpaceOnUse" x1="82.6665" y1="49.3358" x2="82.6665" y2="46.3358">
		<stop  offset="0" style="stop-color:#DD4936"/>
		<stop  offset="1" style="stop-color:#EA785A"/>
	</linearGradient>
	<path fill="url(#SVGID_3_)" d="M86.3,46.3H79c-0.8,0-1.5,0.7-1.5,1.5s0.7,1.5,1.5,1.5h7.3c0.8,0,1.5-0.7,1.5-1.5
		S87.2,46.3,86.3,46.3z"/>
	<linearGradient id="SVGID_4_" gradientUnits="userSpaceOnUse" x1="82.6665" y1="120.4188" x2="82.6665" y2="114.9188">
		<stop  offset="0" style="stop-color:#DD4936"/>
		<stop  offset="1" style="stop-color:#EA785A"/>
	</linearGradient>
	<circle fill="url(#SVGID_4_)" cx="82.7" cy="117.7" r="2.8"/>
</g>
</svg>
