<svg class="icon" xmlns="http://www.w3.org/2000/svg" viewBox="0 0 165.3 165.3" enable-background="new 0 0 165.3 165.3" xml:space="preserve">
	<g class="icon-outer">
		<path d="M82.7,165.3C37.1,165.3,0,128.2,0,82.7S37.1,0,82.7,0s82.7,37.1,82.7,82.7S128.2,165.3,82.7,165.3z M82.7,6
			C40.4,6,6,40.4,6,82.7s34.4,76.7,76.7,76.7s76.7-34.4,76.7-76.7S124.9,6,82.7,6z"/>
	</g>
	<g class="icon-inner">
		<path d="M125.6,63.2H85.2c-1.4-9.2-9.4-16.3-19.1-16.3c-10.7,0-19.3,8.7-19.3,19.3c0,9.6,7.1,17.6,16.3,19.1v40.4c0,1.7,1.3,3,3,3
			s3-1.3,3-3V79.8c5.3-1.2,9.4-5.3,10.6-10.6h45.9c1.7,0,3-1.3,3-3S127.3,63.2,125.6,63.2z M52.8,66.2c0-7.4,6-13.3,13.3-13.3
			c6.3,0,11.6,4.4,13,10.3h-13c-1.7,0-3,1.3-3,3v13C57.2,77.9,52.8,72.6,52.8,66.2z M69.1,73.6v-4.3h4.3
			C72.6,71.2,71.1,72.8,69.1,73.6z"/>
	</g>
</svg>
