<svg class="icon" xmlns="http://www.w3.org/2000/svg" viewBox="0 0 165.3 165.3" enable-background="new 0 0 165.3 165.3" xml:space="preserve">
	<g class="icon-outer">
		<path d="M82.7,165.3C37.1,165.3,0,128.2,0,82.7S37.1,0,82.7,0s82.7,37.1,82.7,82.7S128.2,165.3,82.7,165.3z M82.7,6
			C40.4,6,6,40.4,6,82.7s34.4,76.7,76.7,76.7s76.7-34.4,76.7-76.7S124.9,6,82.7,6z"/>
	</g>
	<g class="icon-inner">
		<path d="M82.7,122.4c-21.9,0-39.8-17.8-39.8-39.8s17.8-39.8,39.8-39.8s39.8,17.8,39.8,39.8S104.6,122.4,82.7,122.4z M82.7,48.9
			C64,48.9,48.9,64,48.9,82.7s15.1,33.8,33.8,33.8s33.8-15.1,33.8-33.8S101.3,48.9,82.7,48.9z"/>
		<circle cx="82.7" cy="82.7" r="21.3"/>
	</g>
</svg>
