<?xml version="1.0" encoding="utf-8"?>
<!-- Generator: Adobe Illustrator 18.1.1, SVG Export Plug-In . SVG Version: 6.00 Build 0)  -->
<svg version="1.1" id="Layer_1" xmlns="http://www.w3.org/2000/svg" xmlns:xlink="http://www.w3.org/1999/xlink" x="0px" y="0px"
	 width="1200px" height="1200px" viewBox="0 0 1200 1200" enable-background="new 0 0 1200 1200" xml:space="preserve">
<g>
	<path d="M600.4,1200C269.3,1200,0,930.7,0,600.4S269.3,0,600.4,0s600.4,269.3,600.4,600.4S930.7,1200,600.4,1200z M600.4,43.6
		c-307.1,0-556.8,249.7-556.8,556.8s249.7,556.8,556.8,556.8s556.8-249.7,556.8-556.8S906.7,43.6,600.4,43.6z"/>
</g>
<g>
	<path d="M438.5,550.3c21.8,90.7,85.7,152.5,161.2,152.5S739.7,641,760.8,550.3c15.2-13.8,25.4-34.8,29-60.3
		c4.4-26.9-0.7-52.3-13.1-70.4c-0.7-97.3-80.6-176.4-177.9-176.4c-98,0-177.1,79.1-177.9,176.4c-12.3,18.1-16.7,43.6-13.1,70.4
		C413.1,515.4,424,536.5,438.5,550.3z M466.8,436.3c-0.7-5.1-0.7-10.2-0.7-14.5c0-74,60.3-134.3,134.3-134.3s134.3,60.3,134.3,134.3
		c0,5.1,0,10.2-0.7,14.5c11.6,5.8,17.4,25.4,13.8,47.9c-2.9,20.3-13.8,37-25.4,40.7c-13.1,77-62.4,135-122,135
		c-59.5,0-109.6-57.4-122-135c-11.6-3.6-22.5-20.3-25.4-40.7C448.6,461.7,455.2,442.1,466.8,436.3z"/>
	<path d="M869,895.1c-13.8-76.2-59.5-143-124.9-183.7c-10.2-6.5-24-2.9-29.8,7.3c-6.5,10.2-2.9,24,7.3,29.8
		c47.9,29.8,82.8,75.5,98.7,128.5H380.4c16-53,51.5-98.7,98.7-128.5c10.2-6.5,13.1-19.6,7.3-29.8c-6.5-10.2-19.6-13.1-29.8-7.3
		c-66.1,40.7-111.8,107.4-124.9,183.7c-1.5,6.5,0.7,13.1,5.1,18.1c4.4,5.1,10.2,8,16.7,8h494.4c6.5,0,12.3-2.9,16.7-8
		C868.2,907.4,869.7,900.9,869,895.1z"/>
</g>
</svg>
