<?xml version="1.0" encoding="utf-8"?>
<!-- Generator: Adobe Illustrator 18.1.1, SVG Export Plug-In . SVG Version: 6.00 Build 0)  -->
<svg version="1.1" id="Layer_1" xmlns="http://www.w3.org/2000/svg" xmlns:xlink="http://www.w3.org/1999/xlink" x="0px" y="0px"
	 width="1200px" height="1200px" viewBox="0 0 1200 1200" enable-background="new 0 0 1200 1200" xml:space="preserve">
<g>
	<path d="M600.4,1200C269.3,1200,0,930.7,0,600.4S269.3,0,600.4,0s600.4,269.3,600.4,600.4S930.7,1200,600.4,1200z M600.4,43.6
		c-307.1,0-556.8,249.7-556.8,556.8s249.7,556.8,556.8,556.8s556.8-249.7,556.8-556.8S906.7,43.6,600.4,43.6z"/>
</g>
<g>
	<path d="M911.8,458.8H618.5c-10.2-66.8-68.2-118.3-138.7-118.3c-77.7,0-140.1,63.2-140.1,140.1c0,69.7,51.5,127.8,118.3,138.7
		v293.3c0,12.3,9.4,21.8,21.8,21.8s21.8-9.4,21.8-21.8V579.3c38.5-8.7,68.2-38.5,77-77h333.2c12.3,0,21.8-9.4,21.8-21.8
		C933.6,468.2,924.1,458.8,911.8,458.8z M383.3,480.6c0-53.7,43.6-96.6,96.6-96.6c45.7,0,84.2,31.9,94.4,74.8h-94.4
		c-12.3,0-21.8,9.4-21.8,21.8V575C415.2,565.5,383.3,527,383.3,480.6z M501.6,534.3v-31.2h31.2C527,516.9,516.2,528.5,501.6,534.3z"
		/>
</g>
</svg>
