<svg xmlns="http://www.w3.org/2000/svg" width="165.3" height="165.3" viewBox="0 0 165.3 165.3">
    <linearGradient id="a" gradientUnits="userSpaceOnUse" x1="82.666" y1="165.333" x2="82.666">
        <stop offset="0" stop-color="#509ED6"/>
        <stop offset="1" stop-color="#84C5E8"/>
    </linearGradient>
    <path fill="url(#a)" d="M82.7 165.3C37.1 165.3 0 128.2 0 82.7S37.1 0 82.7 0s82.7 37.1 82.7 82.7-37.2 82.6-82.7 82.6zM82.7 6C40.4 6 6 40.4 6 82.7s34.4 76.7 76.7 76.7 76.7-34.4 76.7-76.7S124.9 6 82.7 6z"/>
    <linearGradient id="b" gradientUnits="userSpaceOnUse" x1="82.666" y1="122.437" x2="82.666" y2="42.896">
        <stop offset="0" stop-color="#DD4936"/>
        <stop offset="1" stop-color="#EA785A"/>
    </linearGradient>
    <path fill="url(#b)" d="M82.7 122.4c-21.9 0-39.8-17.8-39.8-39.8s17.8-39.8 39.8-39.8c21.9 0 39.8 17.8 39.8 39.8s-17.9 39.8-39.8 39.8zm0-73.5C64 48.9 48.9 64 48.9 82.7s15.1 33.8 33.8 33.8c18.6 0 33.8-15.1 33.8-33.8s-15.2-33.8-33.8-33.8z"/>
    <linearGradient id="c" gradientUnits="userSpaceOnUse" x1="82.666" y1="103.937" x2="82.666" y2="61.396">
        <stop offset="0" stop-color="#DD4936"/>
        <stop offset="1" stop-color="#EA785A"/>
    </linearGradient>
    <circle fill="url(#c)" cx="82.7" cy="82.7" r="21.3"/>
    <linearGradient id="d" gradientUnits="userSpaceOnUse" x1="82.666" y1="165.333" x2="82.666">
        <stop offset="0" stop-color="#509ED6"/>
        <stop offset="1" stop-color="#84C5E8"/>
    </linearGradient>
    <path fill="url(#d)" d="M82.7 165.3C37.1 165.3 0 128.2 0 82.7S37.1 0 82.7 0s82.7 37.1 82.7 82.7-37.2 82.6-82.7 82.6zM82.7 6C40.4 6 6 40.4 6 82.7s34.4 76.7 76.7 76.7 76.7-34.4 76.7-76.7S124.9 6 82.7 6z"/>
    <linearGradient id="e" gradientUnits="userSpaceOnUse" x1="82.666" y1="122.437" x2="82.666" y2="42.896">
        <stop offset="0" stop-color="#DD4936"/>
        <stop offset="1" stop-color="#EA785A"/>
    </linearGradient>
    <path fill="url(#e)" d="M82.7 122.4c-21.9 0-39.8-17.8-39.8-39.8s17.8-39.8 39.8-39.8c21.9 0 39.8 17.8 39.8 39.8s-17.9 39.8-39.8 39.8zm0-73.5C64 48.9 48.9 64 48.9 82.7s15.1 33.8 33.8 33.8c18.6 0 33.8-15.1 33.8-33.8s-15.2-33.8-33.8-33.8z"/>
    <linearGradient id="f" gradientUnits="userSpaceOnUse" x1="82.666" y1="103.937" x2="82.666" y2="61.396">
        <stop offset="0" stop-color="#DD4936"/>
        <stop offset="1" stop-color="#EA785A"/>
    </linearGradient>
    <circle fill="url(#f)" cx="82.7" cy="82.7" r="21.3"/>
</svg>
