<?xml version="1.0" encoding="utf-8"?>
<!-- Generator: Adobe Illustrator 18.1.1, SVG Export Plug-In . SVG Version: 6.00 Build 0)  -->
<svg version="1.1" id="Layer_1" xmlns="http://www.w3.org/2000/svg" xmlns:xlink="http://www.w3.org/1999/xlink" x="0px" y="0px"
	 width="165.3px" height="165.3px" viewBox="0 0 165.3 165.3" enable-background="new 0 0 165.3 165.3" xml:space="preserve">
<g>
	<g>
		<linearGradient id="SVGID_1_" gradientUnits="userSpaceOnUse" x1="82.6667" y1="165.333" x2="82.6667" y2="-6.357859e-07">
			<stop  offset="0" style="stop-color:#509ED6"/>
			<stop  offset="1" style="stop-color:#84C5E8"/>
		</linearGradient>
		<path fill="url(#SVGID_1_)" d="M82.7,165.3C37.1,165.3,0,128.2,0,82.7S37.1,0,82.7,0c45.6,0,82.7,37.1,82.7,82.7
			S128.2,165.3,82.7,165.3z M82.7,6C40.4,6,6,40.4,6,82.7s34.4,76.7,76.7,76.7c42.3,0,76.7-34.4,76.7-76.7S124.9,6,82.7,6z"/>
	</g>
</g>
<linearGradient id="SVGID_2_" gradientUnits="userSpaceOnUse" x1="85.6665" y1="130.542" x2="85.6665" y2="36.7915">
	<stop  offset="0" style="stop-color:#DD4936"/>
	<stop  offset="1" style="stop-color:#EA785A"/>
</linearGradient>
<path fill="url(#SVGID_2_)" d="M120,62.3H95.5c-1.7,0-3,1.3-3,3v12.2h-26V67.3h9.2c1.7,0,3-1.3,3-3V39.8c0-1.7-1.3-3-3-3H51.3
	c-1.7,0-3,1.3-3,3v24.5c0,1.7,1.3,3,3,3h9.2v13.3c0,1.7,1.3,3,3,3h16V100h-9.2c-1.7,0-3,1.3-3,3v24.5c0,1.7,1.3,3,3,3h24.5
	c1.7,0,3-1.3,3-3V103c0-1.7-1.3-3-3-3h-9.2V83.6h7v6.2c0,1.7,1.3,3,3,3H120c1.7,0,3-1.3,3-3V65.3C123,63.7,121.7,62.3,120,62.3z
	 M54.3,42.8h18.5v18.5H54.3V42.8z M91.8,124.5H73.3V106h18.5V124.5z M117,86.8H98.5V68.3H117V86.8z"/>
</svg>
