<?xml version="1.0" encoding="utf-8"?>
<!-- Generator: Adobe Illustrator 18.1.1, SVG Export Plug-In . SVG Version: 6.00 Build 0)  -->
<svg version="1.1" id="Layer_1" xmlns="http://www.w3.org/2000/svg" xmlns:xlink="http://www.w3.org/1999/xlink" x="0px" y="0px"
	 width="1200px" height="1200px" viewBox="0 0 1200 1200" enable-background="new 0 0 1200 1200" xml:space="preserve">
<g>
	<path d="M600.4,1200C269.3,1200,0,930.7,0,600.4S269.3,0,600.4,0s600.4,269.3,600.4,600.4S930.7,1200,600.4,1200z M600.4,43.6
		c-307.1,0-556.8,249.7-556.8,556.8s249.7,556.8,556.8,556.8s556.8-249.7,556.8-556.8S906.7,43.6,600.4,43.6z"/>
</g>
<g>
	<path d="M747,262.8H453c-32.7,0-58.8,26.1-58.8,58.8v557.5c0,32.7,26.1,58.8,58.8,58.8h294c32.7,0,58.8-26.1,58.8-58.8V321.6
		C805.8,288.9,779.7,262.8,747,262.8z M437.7,429.8h324.5V771H437.7V429.8z M453,306.4h294c8.7,0,15.2,6.5,15.2,15.2v64.6H437.7
		v-64.6C437.7,312.9,445,306.4,453,306.4z M747,894.4H453c-8.7,0-15.2-6.5-15.2-15.2v-64.6h324.5v64.6
		C762.3,887.1,755.7,894.4,747,894.4z"/>
	<path d="M573.5,357.9h53c5.8,0,10.9-5.1,10.9-10.9s-5.1-10.9-10.9-10.9h-53c-5.8,0-10.9,5.1-10.9,10.9S567.7,357.9,573.5,357.9z"/>
	<circle cx="600.4" cy="854.4" r="20.3"/>
</g>
</svg>
