<?xml version="1.0" encoding="utf-8"?>
<!-- Generator: Adobe Illustrator 18.1.1, SVG Export Plug-In . SVG Version: 6.00 Build 0)  -->
<svg version="1.1" id="Layer_1" xmlns="http://www.w3.org/2000/svg" xmlns:xlink="http://www.w3.org/1999/xlink" x="0px" y="0px"
	 width="1200.8px" height="1200px" viewBox="0 0 1200.8 1200" enable-background="new 0 0 1200.8 1200" xml:space="preserve">
<path d="M600.4,0C269.3,0,0,270.1,0,600.4S269.3,1200,600.4,1200l0,0c330.3,0,600.4-268.6,600.4-599.6S931.4,0,600.4,0z
	 M600.4,1157.2c-307.1,0-556.8-249.7-556.8-556.8S293.3,43.6,600.4,43.6c306.4,0,556.8,249.7,556.8,556.8S907.4,1157.2,600.4,1157.2
	z"/>
<path d="M871.1,452.3H693.3c-12.3,0-21.8,9.4-21.8,21.8v89.3h-72.6l0,0H482.8v-74.8h67.5c11.6,0,21.8-10.2,21.8-21.8V288.9
	c0-12.3-9.4-21.8-21.8-21.8H372.4c-12.3,0-21.8,9.4-21.8,21.8v177.9c0,12.3,9.4,21.8,21.8,21.8h66.8v96.6c0,12.3,9.4,21.8,21.8,21.8
	h116.2v119h-66.8c-12.3,0-21.8,9.4-21.8,21.8v177.9c0,12.3,9.4,21.8,21.8,21.8h177.9c11.6,0,21.8-9.4,21.8-21.8v-178
	c0-12.3-9.4-21.8-21.8-21.8h-67.5v-119h50.8v45c0,12.3,9.4,21.8,21.8,21.8h177.9c12.3,0,21.8-9.4,21.8-21.8V474
	C892.9,461.7,883.5,452.3,871.1,452.3z M394.2,445V310.7h134.3V445H461H394.2z M666.4,769.5v134.3H532.1V769.5h66.8H666.4z
	 M849.4,630.1H715.1v-45v-89.3h134.3L849.4,630.1L849.4,630.1z"/>
</svg>
