<?xml version="1.0" encoding="utf-8"?>
<!-- Generator: Adobe Illustrator 18.1.1, SVG Export Plug-In . SVG Version: 6.00 Build 0)  -->
<svg version="1.1" id="Layer_1" xmlns="http://www.w3.org/2000/svg" xmlns:xlink="http://www.w3.org/1999/xlink" x="0px" y="0px"
	 width="1200px" height="1200px" viewBox="0 0 1200 1200" enable-background="new 0 0 1200 1200" xml:space="preserve">
<path d="M600.4,0C269.3,0,0,270.1,0,600.4S269.3,1200,600.4,1200l0,0c330.3,0,600.4-268.6,600.4-599.6S931.4,0,600.4,0z
	 M600.4,1157.2c-307.1,0-556.8-249.7-556.8-556.8S293.3,43.6,600.4,43.6c306.4,0,556.8,249.7,556.8,556.8S907.4,1157.2,600.4,1157.2
	z"/>
<path d="M778.9,551h-40.7V419.6c0-76.2-61.7-137.9-137.9-137.9s-137.9,61.7-137.9,137.9v29c0,12.3,9.4,21.8,21.8,21.8
	S506,461,506,448.6v-29c0-52.3,42.1-94.4,94.4-94.4c52.3,0,94.4,42.1,94.4,94.4V551H421.1c-12.3,0-21.8,9.4-21.8,21.8v280.9
	c0,12.3,9.4,21.8,21.8,21.8H779l0,0c12.3,0,21.8-10.2,21.8-21.8V572.8C800.7,560.4,791.3,551,778.9,551z M757.2,831.9H442.8V594.6
	h273.7h40.7V831.9z"/>
</svg>
