<?xml version="1.0" encoding="utf-8"?>
<!-- Generator: Adobe Illustrator 18.1.1, SVG Export Plug-In . SVG Version: 6.00 Build 0)  -->
<svg version="1.1" id="Layer_1" xmlns="http://www.w3.org/2000/svg" xmlns:xlink="http://www.w3.org/1999/xlink" x="0px" y="0px"
	 width="1200px" height="1200px" viewBox="0 0 1200 1200" enable-background="new 0 0 1200 1200" xml:space="preserve">
<g>
	<path d="M600.4,1200C269.3,1200,0,930.7,0,600.4S269.3,0,600.4,0s600.4,269.3,600.4,600.4S930.7,1200,600.4,1200z M600.4,43.6
		c-307.1,0-556.8,249.7-556.8,556.8s249.7,556.8,556.8,556.8s556.8-249.7,556.8-556.8S906.7,43.6,600.4,43.6z"/>
</g>
<g>
	<path d="M600.4,888.6c-159,0-288.9-129.2-288.9-288.9s129.2-288.9,288.9-288.9s288.9,129.2,288.9,288.9S759.3,888.6,600.4,888.6z
		 M600.4,355C464.6,355,355,464.6,355,600.4s109.6,245.4,245.4,245.4s245.4-109.6,245.4-245.4S735.4,355,600.4,355z"/>
	<circle cx="600.4" cy="600.4" r="154.6"/>
</g>
</svg>
