<svg xmlns="http://www.w3.org/2000/svg" width="165.3" height="165.3" viewBox="0 0 165.3 165.3">
    <linearGradient id="a" gradientUnits="userSpaceOnUse" x1="82.666" y1="165.333" x2="82.666">
        <stop offset="0" stop-color="#509ED6"/>
        <stop offset="1" stop-color="#84C5E8"/>
    </linearGradient>
    <path fill="url(#a)" d="M82.7 165.3C37.1 165.3 0 128.2 0 82.7S37.1 0 82.7 0s82.7 37.1 82.7 82.7-37.2 82.6-82.7 82.6zM82.7 6C40.4 6 6 40.4 6 82.7s34.4 76.7 76.7 76.7 76.7-34.4 76.7-76.7S124.9 6 82.7 6z"/>
    <linearGradient id="b" gradientUnits="userSpaceOnUse" x1="82.666" y1="96.814" x2="82.666" y2="33.531">
        <stop offset="0" stop-color="#DD4936"/>
        <stop offset="1" stop-color="#EA785A"/>
    </linearGradient>
    <path fill="url(#b)" d="M60.4 75.8c3 12.5 11.8 21 22.2 21 10.4 0 19.3-8.5 22.2-21 2.1-1.9 3.5-4.8 4-8.3.6-3.7-.1-7.2-1.8-9.7-.1-13.4-11.1-24.3-24.5-24.3C69 33.5 58.1 44.4 58 57.8c-1.7 2.5-2.3 6-1.8 9.7.7 3.5 2.2 6.4 4.2 8.3zm3.9-15.7c-.1-.7-.1-1.4-.1-2 0-10.2 8.3-18.5 18.5-18.5s18.5 8.3 18.5 18.5c0 .7 0 1.4-.1 2 1.6.8 2.4 3.5 1.9 6.6-.4 2.8-1.9 5.1-3.5 5.6-1.8 10.6-8.6 18.6-16.8 18.6-8.2 0-15.1-7.9-16.8-18.6-1.6-.5-3.1-2.8-3.5-5.6-.6-3.1.3-5.8 1.9-6.6z"/>
    <linearGradient id="c" gradientUnits="userSpaceOnUse" x1="82.666" y1="126.803" x2="82.666" y2="97.527">
        <stop offset="0" stop-color="#DD4936"/>
        <stop offset="1" stop-color="#EA785A"/>
    </linearGradient>
    <path fill="url(#c)" d="M119.7 123.3c-1.9-10.5-8.2-19.7-17.2-25.3-1.4-.9-3.3-.4-4.1 1-.9 1.4-.4 3.3 1 4.1 6.6 4.1 11.4 10.4 13.6 17.7H52.4c2.2-7.3 7.1-13.6 13.6-17.7 1.4-.9 1.8-2.7 1-4.1-.9-1.4-2.7-1.8-4.1-1-9.1 5.6-15.4 14.8-17.2 25.3-.2.9.1 1.8.7 2.5s1.4 1.1 2.3 1.1h68.1c.9 0 1.7-.4 2.3-1.1.5-.8.7-1.7.6-2.5z"/>
</svg>
