<svg class="icon" xmlns="http://www.w3.org/2000/svg" viewBox="0 0 165.3 165.3" enable-background="new 0 0 165.3 165.3" xml:space="preserve">
	<g class="icon-outer">
		<path d="M82.7,165.3C37.1,165.3,0,128.2,0,82.7S37.1,0,82.7,0s82.7,37.1,82.7,82.7S128.2,165.3,82.7,165.3z M82.7,6
			C40.4,6,6,40.4,6,82.7s34.4,76.7,76.7,76.7s76.7-34.4,76.7-76.7S124.9,6,82.7,6z"/>
	</g>
	<g class="icon-inner">
		<path d="M102.9,36.2H62.4c-4.5,0-8.1,3.6-8.1,8.1v76.8c0,4.5,3.6,8.1,8.1,8.1h40.5c4.5,0,8.1-3.6,8.1-8.1V44.3
			C111,39.8,107.4,36.2,102.9,36.2z M60.3,59.2H105v47H60.3V59.2z M62.4,42.2h40.5c1.2,0,2.1,0.9,2.1,2.1v8.9H60.3v-8.9
			C60.3,43.1,61.3,42.2,62.4,42.2z M102.9,123.2H62.4c-1.2,0-2.1-0.9-2.1-2.1v-8.9H105v8.9C105,122.2,104.1,123.2,102.9,123.2z"/>
		<path d="M79,49.3h7.3c0.8,0,1.5-0.7,1.5-1.5s-0.7-1.5-1.5-1.5H79c-0.8,0-1.5,0.7-1.5,1.5S78.2,49.3,79,49.3z"/>
		<circle cx="82.7" cy="117.7" r="2.8"/>
	</g>
</svg>
