<?xml version="1.0" encoding="utf-8"?>
<!-- Generator: Adobe Illustrator 18.1.1, SVG Export Plug-In . SVG Version: 6.00 Build 0)  -->
<svg version="1.1" id="Layer_1" xmlns="http://www.w3.org/2000/svg" xmlns:xlink="http://www.w3.org/1999/xlink" x="0px" y="0px"
	 width="1200.8px" height="463.9px" viewBox="0 367.8 1200.8 463.9" enable-background="new 0 367.8 1200.8 463.9"
	 xml:space="preserve">
<g>
	<g>
		<polygon fill="#FFFFFF" points="154.8,813.3 83.8,787.7 83.8,685 154.8,708.4 		"/>
		<polygon fill="#FFFFFF" points="167.7,813.3 237.9,787.7 237.9,685 167.7,708.4 		"/>
		<polygon fill="#FFFFFF" points="91.4,676.7 162.4,657 228.8,678.2 162.4,700.8 		"/>
	</g>
	<g>
		<polygon fill="#FFFFFF" points="70.2,669.1 0,643.4 0,540 70.2,564.1 		"/>
		<polygon fill="#FFFFFF" points="83.8,669.1 154.1,643.4 154.1,540 83.8,564.1 		"/>
		<polygon fill="#FFFFFF" points="7.6,532.4 78.5,512 145,533.9 78.5,555.8 		"/>
	</g>
	<g>
		<polygon fill="#FFFFFF" points="234.9,669.1 164.6,643.4 164.6,540 234.9,564.1 		"/>
		<polygon fill="#FFFFFF" points="248.5,669.1 318.7,643.4 318.7,540 248.5,564.1 		"/>
		<polygon fill="#FFFFFF" points="172.2,532.4 243.2,512 309.6,533.9 243.2,555.8 		"/>
	</g>
	<g>
		<polygon fill="#FFFFFF" points="319.4,524.1 248.5,499.2 248.5,395.7 319.4,419.9 		"/>
		<polygon fill="#FFFFFF" points="332.3,524.1 402.5,499.2 402.5,395.7 332.3,419.9 		"/>
		<polygon fill="#FFFFFF" points="256,388.2 327,367.8 393.5,388.9 327,411.6 		"/>
	</g>
	<g>
		<polygon fill="#FFFFFF" points="484.1,524.1 413.1,499.2 413.1,395.7 484.1,419.9 		"/>
		<polygon fill="#FFFFFF" points="496.9,524.1 567.1,499.2 567.1,395.7 496.9,419.9 		"/>
		<polygon fill="#FFFFFF" points="420.6,388.2 491.6,367.8 558.1,388.9 491.6,411.6 		"/>
	</g>
	<g>
		<path fill="#FFFFFF" stroke="#F7F8F8" stroke-width="0.4051" d="M447.8,746.1l-23.4,82.3h-10.6l-18.1-61.2l-17.4,61.2h-10.6
			l-24.9-82.3h12.8l18.1,61.2l17.4-61.2h9.1l18.9,61.9l18.1-61.9H447.8z"/>
		<path fill="#FFFFFF" stroke="#F7F8F8" stroke-width="0.4051" d="M513.5,803.5l12.1,2.3c-2.3,6.8-6,12.8-12.8,17.4
			c-6,4.5-13.6,6.8-21.9,6.8c-11.3,0-20.4-3.8-27.2-12.1c-6.8-7.6-10.6-18.1-10.6-31s3.8-23.4,10.6-31.7
			c7.6-8.3,16.6-12.1,27.2-12.1c10.6,0,19.6,3.8,25.7,11.3c6.8,7.6,9.8,18.9,9.8,33.2h-59.7c0,12.1,2.3,21.1,7.6,24.9
			c5.3,4.5,10.6,6.8,16.6,6.8C502.2,820.1,509,814.9,513.5,803.5z M512.8,778.6c0-4.5-0.8-9.1-2.3-12.1c-1.5-3.8-3.8-6.8-6.8-9.1
			s-7.6-3.8-12.1-3.8c-6,0-12.1,2.3-15.9,6.8c-4.5,4.5-6.8,10.6-7.6,18.1H512.8L512.8,778.6z"/>
		<path fill="#FFFFFF" stroke="#F7F8F8" stroke-width="0.4051" d="M549.8,828.4h-6v-111h12.8v42.3c6-10.6,13.6-15.9,24.2-15.9
			c9.1,0,17.4,3.8,23.4,11.3c6,7.6,9.8,18.1,9.8,32.5c0,12.1-3,22.7-9.1,31c-6,8.3-14.3,12.1-24.2,12.1c-11.3,0-19.6-5.3-25.7-15.9
			L549.8,828.4z M556.6,796c0.8,8.3,3,14.3,7.6,18.1c4.5,3.8,9.1,6,14.3,6c6.8,0,12.1-3,15.9-8.3c3.8-5.3,6-13.6,6-23.4
			c0-10.6-2.3-18.9-6-24.9c-3.8-6-9.1-9.1-15.9-9.1c-5.3,0-10.6,2.3-14.3,6.8c-4.5,4.5-6.8,9.8-7.6,16.6V796z"/>
		<path fill="#FFFFFF" stroke="#F7F8F8" stroke-width="0.4051" d="M646.4,807.3l12.1-2.3c3,10.6,11.3,15.9,25.7,15.9
			c5.3,0,9.8-1.5,13.6-3.8c3.8-2.3,5.3-6,5.3-9.8c0-6.8-4.5-10.6-14.3-12.1l-16.6-4.5c-6.8-1.5-12.1-3.8-15.9-7.6
			c-3.8-3.8-6-9.1-6-15.1c0-6.8,3-12.8,8.3-17.4c5.3-4.5,12.8-6.8,21.9-6.8c18.1,0,28.7,6.8,33.2,21.1l-12.1,2.3
			c-3-8.3-10.6-12.8-20.4-12.8c-5.3,0-9.8,0.8-12.8,3c-3,2.3-5.3,5.3-5.3,9.1c0,6,4.5,9.8,12.8,11.3l15.9,3
			c16.6,3,24.9,11.3,24.9,24.2c0,7.6-3,13.6-9.1,18.1c-6,4.5-14.3,6.8-24.9,6.8C663.1,830.7,651.7,822.4,646.4,807.3z"/>
		<path fill="#FFFFFF" stroke="#F7F8F8" stroke-width="0.4051" d="M785.4,803.5l12.1,2.3c-2.3,6.8-6,12.8-12.8,17.4
			c-6,4.5-13.6,6.8-21.9,6.8c-11.3,0-20.4-3.8-27.2-12.1c-6.8-7.6-10.6-18.1-10.6-31s3.8-23.4,10.6-31.7
			c7.6-8.3,16.6-12.1,27.2-12.1s19.6,3.8,25.7,11.3c6.8,7.6,9.8,18.9,9.8,33.2h-59.7c0,12.1,2.3,21.1,7.6,24.9
			c5.3,4.5,10.6,6.8,16.6,6.8C774.1,820.1,780.9,814.9,785.4,803.5z M784.6,778.6c0-4.5-0.8-9.1-2.3-12.1c-1.5-3.8-3.8-6.8-6.8-9.1
			s-7.6-3.8-12.1-3.8c-6,0-12.1,2.3-15.9,6.8c-4.5,4.5-6.8,10.6-7.6,18.1H784.6L784.6,778.6z"/>
		<path fill="#FFFFFF" stroke="#F7F8F8" stroke-width="0.4051" d="M825.4,828.4h-12.8v-82.3h11.3V765c3.8-9.1,8.3-15.1,12.1-17.4
			c3.8-3,8.3-3.8,12.1-3.8c1.5,0,3,0,5.3,0v12.1h-2.3c-6.8,0-12.8,2.3-17.4,7.6c-4.5,5.3-6.8,12.1-7.6,20.4v44.6H825.4z"/>
		<path fill="#FFFFFF" stroke="#F7F8F8" stroke-width="0.4051" d="M932.7,746.1L904,828.4h-12.8l-29.5-82.3H876l22.7,67.2l22.7-67.2
			H932.7z"/>
		<path fill="#FFFFFF" stroke="#F7F8F8" stroke-width="0.4051" d="M956.8,717.4v14.3h-13.6v-14.3H956.8z M956.1,746.1v82.3h-12.8
			v-82.3H956.1z"/>
		<path fill="#FFFFFF" stroke="#F7F8F8" stroke-width="0.4051" d="M1023.3,799.7l11.3,2.3c-1.5,9.1-5.3,15.9-10.6,21.1
			c-5.3,5.3-12.8,7.6-21.1,7.6c-11.3,0-19.6-4.5-25.7-12.8c-6-8.3-9.1-18.9-9.1-31c0-12.8,3-22.7,9.1-31c6-8.3,15.1-12.1,25.7-12.1
			c9.1,0,15.9,3,21.9,8.3c5.3,5.3,9.1,12.1,9.8,21.1l-11.3,2.3c-2.3-13.6-9.1-20.4-19.6-20.4c-6.8,0-12.8,3-16.6,9.1
			c-3.8,6-6,13.6-6,23.4c0,10.6,1.5,18.9,5.3,24.9c3.8,6,9.1,9.1,15.9,9.1C1014.2,820.1,1020.3,813.3,1023.3,799.7z"/>
		<path fill="#FFFFFF" stroke="#F7F8F8" stroke-width="0.4051" d="M1107.1,803.5l12.1,2.3c-2.3,6.8-6,12.8-12.8,17.4
			c-6,4.5-13.6,6.8-21.9,6.8c-11.3,0-20.4-3.8-27.2-12.1c-6.8-7.6-10.6-18.1-10.6-31s3.8-23.4,10.6-31.7
			c7.6-8.3,16.6-12.1,27.2-12.1s19.6,3.8,25.7,11.3c6.8,7.6,9.8,18.9,9.8,33.2h-59.7c0,12.1,2.3,21.1,7.6,24.9
			c5.3,4.5,10.6,6.8,16.6,6.8C1095.8,820.1,1103.3,814.9,1107.1,803.5z M1106.4,778.6c0-4.5-0.8-9.1-2.3-12.1
			c-1.5-3.8-3.8-6.8-6.8-9.1c-3-2.3-7.6-3.8-12.1-3.8c-6,0-12.1,2.3-15.9,6.8c-4.5,4.5-6.8,10.6-7.6,18.1H1106.4L1106.4,778.6z"/>
		<path fill="#FFFFFF" stroke="#F7F8F8" stroke-width="0.4051" d="M1128.3,807.3l12.1-2.3c3,10.6,11.3,15.9,25.7,15.9
			c5.3,0,9.8-1.5,13.6-3.8s5.3-6,5.3-9.8c0-6.8-4.5-10.6-14.3-12.1l-17.4-3c-6.8-1.5-12.1-3.8-15.9-7.6c-3.8-3.8-6-9.1-6-15.1
			c0-6.8,3-12.8,8.3-17.4c5.3-4.5,12.8-6.8,21.9-6.8c18.1,0,28.7,6.8,33.2,21.1l-12.1,2.3c-3-8.3-10.6-12.8-20.4-12.8
			c-5.3,0-9.8,0.8-12.8,3c-3,2.3-5.3,5.3-5.3,9.1c0,6,4.5,9.8,12.8,11.3l15.9,3c16.6,3,24.9,11.3,24.9,24.2c0,7.6-3,13.6-9.1,18.1
			c-6,4.5-14.3,6.8-24.9,6.8C1144.9,830.7,1132.8,822.4,1128.3,807.3z"/>
	</g>
	<g>
		<g>
			<path fill="#FFFFFF" d="M839,570.2v-19.6c0-3,2.3-5.3,5.3-5.3h88.4c3,0,5.3,2.3,5.3,5.3v16.6c0,3-2.3,6.8-6.8,12.1l-46.1,65.7
				c17.4-0.8,34.7,2.3,50.6,10.6c3.8,2.3,4.5,4.5,4.5,7.6V685c0,3-3,6-6.8,4.5c-27.2-14.3-63.4-15.9-93.6,0c-3,1.5-6-1.5-6-4.5
				v-20.4c0-3,0-9.1,3-13.6l52.9-76.3h-46.1C841.3,574.7,839,573.2,839,570.2z"/>
			<path fill="#FFFFFF" d="M521.8,693.3h-27.2c-2.3,0-4.5-2.3-4.5-4.5V550.5c0-3,2.3-5.3,5.3-5.3h24.9c2.3,0,4.5,2.3,4.5,4.5v18.1
				h0.8c6.8-17.4,18.9-25.7,35.5-25.7s27.2,8.3,34.7,25.7c6.8-17.4,21.1-25.7,37-25.7c11.3,0,23.4,4.5,31,15.1
				c8.3,11.3,6.8,28.7,6.8,43V688c0,3-2.3,5.3-5.3,5.3h-27.2c-3,0-4.5-2.3-4.5-5.3v-73.3c0-6,0.8-20.4-0.8-25.7
				c-2.3-9.1-8.3-12.1-15.9-12.1c-6.8,0-13.6,4.5-15.9,11.3c-3,6.8-2.3,18.9-2.3,26.4V688c0,3-2.3,5.3-5.3,5.3h-27.2
				c-3,0-4.5-2.3-4.5-5.3v-73.3c0-15.1,2.3-38.5-16.6-38.5c-19.6,0-18.9,21.9-18.9,38.5V688C526.4,691,524.1,693.3,521.8,693.3z"/>
			<path fill="#FFFFFF" d="M1002.9,543c40,0,61.2,34.7,61.2,77.8c0,42.3-23.4,75.5-61.2,75.5c-39.3,0-60.4-34.7-60.4-77
				C942.5,576.2,963.6,543,1002.9,543z M1002.9,574.7c-19.6,0-21.1,27.2-21.1,43.8c0,16.6,0,49.1,20.4,49.1
				c20.4,0,21.9-25.7,21.9-43c0-11.3-0.8-25.7-3.8-37C1017.2,578.5,1011.2,574.7,1002.9,574.7z"/>
			<path fill="#FFFFFF" d="M1121.5,693.3h-27.2c-3,0-4.5-2.3-4.5-5.3V549.8c0-2.3,2.3-4.5,5.3-4.5h24.9c2.3,0,4.5,1.5,4.5,3.8v21.1
				h0.8c7.6-18.9,18.1-27.9,37-27.9c12.1,0,24.2,4.5,31.7,16.6c6.8,11.3,6.8,29.5,6.8,43v86.8c0,2.3-2.3,4.5-5.3,4.5h-27.2
				c-2.3,0-4.5-2.3-4.5-4.5v-75.5c0-15.1,1.5-37-16.6-37c-6.8,0-12.8,4.5-15.9,11.3c-3.8,8.3-4.5,16.6-4.5,26.4v74.8
				C1126.7,691,1124.5,693.3,1121.5,693.3z"/>
			<path fill="#FFFFFF" d="M771.1,627.6c0,10.6,0,19.6-5.3,28.7c-4.5,7.6-11.3,12.1-18.9,12.1c-10.6,0-16.6-7.6-16.6-19.6
				c0-22.7,20.4-27.2,40-27.2v6H771.1z M798.2,693.3c-1.5,1.5-4.5,1.5-6,0.8c-9.1-7.6-10.6-10.6-15.1-18.1
				c-15.1,15.1-24.9,19.6-44.6,19.6c-22.7,0-40-14.3-40-42.3c0-21.9,12.1-37,28.7-43.8c14.3-6.8,34.7-7.6,50.6-9.1v-3.8
				c0-6.8,0.8-14.3-3-19.6c-3-5.3-9.8-6.8-15.1-6.8c-10.6,0-19.6,5.3-21.9,15.9c-0.8,2.3-2.3,4.5-4.5,5.3l-26.4-3
				c-2.3-0.8-4.5-2.3-3.8-5.3c6-31.7,34.7-41.5,60.4-41.5c12.8,0,30.2,3.8,40.8,13.6c12.8,12.1,12.1,28.7,12.1,46.1v42.3
				c0,12.8,5.3,18.1,9.8,24.9c1.5,2.3,2.3,5.3,0,6.8C813.3,679.7,803.5,688.7,798.2,693.3L798.2,693.3z"/>
			<path fill="#FFFFFF" d="M420.6,627.6c0,10.6,0,19.6-5.3,28.7c-4.5,7.6-11.3,12.1-18.9,12.1c-10.6,0-16.6-7.6-16.6-19.6
				c0-22.7,20.4-27.2,40-27.2v6H420.6z M447.8,693.3c-1.5,1.5-4.5,1.5-6,0.8c-9.1-7.6-10.6-10.6-15.1-18.1
				c-15.1,15.1-24.9,19.6-44.6,19.6c-22.7,0-40-14.3-40-42.3c0-21.9,12.1-37,28.7-43.8c14.3-6.8,34.7-7.6,50.6-9.1v-3.8
				c0-6.8,0.8-14.3-3-19.6c-3-5.3-9.8-6.8-15.1-6.8c-10.6,0-19.6,5.3-21.9,15.9c-0.8,2.3-2.3,4.5-4.5,5.3l-26.4-3
				c-2.3-0.8-4.5-2.3-3.8-5.3c6-31.7,34.7-41.5,60.4-41.5c12.8,0,30.2,3.8,40.8,13.6c12.8,12.1,12.1,28.7,12.1,46.1v42.3
				c0,12.8,5.3,18.1,9.8,24.9c1.5,2.3,2.3,5.3,0,6.8C462.9,679.7,453.1,688.7,447.8,693.3L447.8,693.3z"/>
		</g>
	</g>
</g>
</svg>
