<svg xmlns="http://www.w3.org/2000/svg" viewBox="0 0 178.3 45.2" enable-background="new 0 0 178.3 45.2">
    <path d="M63.6 25.8c-4.7 0-7.9-4-7.9-8.8 0-4.8 3.3-8.7 7.9-8.7 2.7 0 4.8 1.1 6.9 3.2L74.3 7c-2.5-2.5-5.6-4.3-10.7-4.3-8.3 0-14.1 6.4-14.1 14.4V17c0 8.1 6 14.4 13.9 14.4 5.2 0 8.4-1.9 11.2-5.1l-3.8-3.9c-2.2 2.1-4.1 3.4-7.2 3.4zm38.6 5.1V3h-6v11H85.3V3h-6v27.9h6V19.7h10.9v11.2h6zm28-5.4h-14.8v-5.9h12.7v-5.4h-12.7V8.5h14.5V3h-20.5v27.9h20.7v-5.4zm6 5.4h6V20.1h13v-5.6h-13V8.6H157V3h-20.7v27.9zM34.9 25.3h-3.8c-1.1 4.2-4.8 7.2-9.3 7.2-5.5 0-9.8-4.5-9.8-10.1s4.3-10 9.8-10c4.5 0 8.1 3 9.3 7.2h3.8c-1.3-6.3-6.6-11-13.1-11-7.5 0-13.5 6.2-13.5 13.8 0 7.7 6 13.9 13.5 13.9 6.5-.1 11.8-4.7 13.1-11zm-19.8 3.9c1.7 1.8 3.9 2.9 6.6 2.9v-4c-1.5 0-2.9-.6-3.9-1.6l-2.7 2.7zm6.7-16.4c-5.2 0-9.4 4.3-9.4 9.6 0 1.4.4 2.8.8 3.9l3.7-1.6c-.4-.6-.5-1.4-.5-2.3 0-3 2.4-5.6 5.5-5.6v-4zm3.3.6l-1.4 3.8c1.1.5 2.2 1.4 2.8 2.4h4.2c-.9-2.8-3-5.1-5.6-6.2zm-1.4 14.2l1.4 3.7c2.7-1 4.7-3.3 5.6-6.1h-4.2c-.7 1.1-1.7 1.9-2.8 2.4zm-19.4-.5c-.1-.3-.1-.4-.3-.6v-.1c0-.1 0-.4-.1-.5v-.7c-.1-.1-.1-.3-.1-.4-.1-.8-.1-1.6-.1-2.5H0c0 1 0 1.9.1 2.8 0 .3.1.5.1.8v.1c0 .3.1.5.1.6 0 .1 0 .3.1.4v.4c.1.1.1.3.1.5 0 0 .1.1.1.3 0 .3 0 .4.1.5v.3c.3.9.6 1.6.9 2.5L5 30c-.3-.8-.5-1.4-.8-2.1.1-.4.1-.5.1-.8zM21.8 41c-5 0-9.5-2.1-12.9-5.6l-2.5 2.8c3.9 4 9.3 6.6 15.4 6.6 11.1 0 20.1-8.6 21.5-19.6h-3.7C38.2 34.1 30.7 41 21.8 41zm0-37.2c3.9 0 7.8 1.4 10.7 3.7l2.3-3C31.1 1.6 26.6 0 21.8 0 12.5 0 4.6 5.9 1.5 14.3L5 15.7c2.5-7 9.1-11.9 16.8-11.9zM37 12.5c1.3 2.1 2.2 4.5 2.5 7.1h3.7c-.4-3.3-1.5-6.3-3.2-9.1l-3 2zm-8.9-6.9l-1.4 3.5c4.5 1.6 7.6 5.7 8.7 10.5h3.7c-1-6.5-5.2-11.8-11-14zm-6.3 2.5V4.3c-7.5 0-13.9 4.8-16.4 11.5l3.4 1.4c2-5.3 7-9.1 13-9.1zm-6.7 31.2l1.4-3.5c-5.1-2.1-8.8-7.3-8.8-13.4H4.1c0 7.6 4.6 14.1 11 16.9zm24-14h-3.7c-1.3 6.6-6.9 11.5-13.6 11.5v3.8c8.7-.1 16-6.8 17.3-15.3zm18 14.5c-1.8-.4-2.2-.6-2.2-1.4 0-.6.5-1.1 1.4-1.1.9 0 1.7.4 2.4 1l.9-1.3c-.9-.8-1.9-1.1-3.2-1.1-1.8 0-3.1 1.1-3.1 2.7s1 2.3 2.9 2.8c1.7.4 2 .6 2 1.4 0 .6-.6 1.1-1.7 1.1-1 0-1.9-.5-2.7-1.3l-1 1.1c1.1 1 2.4 1.5 3.7 1.5 1.9 0 3.2-1 3.2-2.8.2-1.5-.8-2.1-2.6-2.6zm13.1 1.4c0 1.8-.8 2.5-2.2 2.5-1.4 0-2.2-.9-2.2-2.5V36h-1.7v5.2c0 2.7 1.5 4 3.8 4s3.7-1.4 3.7-4V36h-1.5v5.2zm10-5.2h-3.4v9.1h1.5v-2.9H80c1.9 0 3.6-1.1 3.6-3.2-.1-1.8-1.4-3-3.4-3zm-.2 4.7h-1.8v-3.2H80c1.1 0 1.9.5 1.9 1.6.1.9-.7 1.6-1.9 1.6zm7.8 4.4h6.5v-1.4h-5v-2.5h4.5v-1.4h-4.5v-2.4h5V36h-6.5v9.1zm18.3-6.2c0-1.8-1.3-2.9-3.3-2.9h-3.9v9.1h1.5v-3.2h2l2.2 3.2h1.8l-2.4-3.4c1.2-.4 2.1-1.3 2.1-2.8zm-5.7 1.6v-3h2.3c1.1 0 1.8.5 1.8 1.5 0 .9-.6 1.5-1.8 1.5h-2.3zm14.6-.2l-2.7-4.3h-1.7v9.1h1.5v-6.4l2.8 4.2 2.8-4.3v6.6h1.5V36h-1.7l-2.5 4.3zm12.5-4.3l-3.9 9.1h1.7l.9-2.1h4.1l.9 2.1h1.7l-3.8-9.1h-1.6zm-.9 5.4l1.5-3.5 1.5 3.5h-3zm17.6-2.5c0-1.8-1.3-2.9-3.3-2.9H137v9.1h1.7v-3.2h1.9l2.2 3.2h1.8l-2.4-3.4c1.1-.4 2-1.3 2-2.8zm-5.6 1.6v-3h2.2c1.1 0 1.8.5 1.8 1.5 0 .9-.6 1.5-1.8 1.5h-2.2zm17.8-4.5h-1.9l-4.2 4.5V36h-1.5v9.1h1.5v-2.7l1.4-1.4 3.1 4h1.8l-3.8-5.2 3.6-3.8zm5.7 5.2h4.5v-1.4h-4.5v-2.4h5V36h-6.5v9.1h6.6v-1.4h-5.1v-2.5zm9.1-5.2v1.5h2.8v7.6h1.5v-7.6h2.8V36h-7.1z"/>
</svg>
