<?xml version="1.0" encoding="utf-8"?>
<!-- Generator: Adobe Illustrator 18.1.1, SVG Export Plug-In . SVG Version: 6.00 Build 0)  -->
<svg version="1.1" id="Layer_1" xmlns="http://www.w3.org/2000/svg" xmlns:xlink="http://www.w3.org/1999/xlink" x="0px" y="0px"
	 width="1200.8px" height="463.6px" viewBox="0 736.9 1200.8 463.6" enable-background="new 0 736.9 1200.8 463.6"
	 xml:space="preserve">
<g>
	<polygon fill="#FFFFFF" points="83.8,1156.8 154.8,1182.4 154.8,1077.5 83.8,1054.1 	"/>
	<polygon fill="#FFFFFF" points="167.7,1182.4 237.9,1156.8 237.9,1054.1 167.7,1077.5 	"/>
	<polygon fill="#FFFFFF" points="162.4,1026.1 91.4,1045.8 162.4,1069.9 228.8,1047.3 	"/>
	<polygon fill="#FFFFFF" points="0,1012.5 70.2,1038.2 70.2,933.2 0,909.1 	"/>
	<polygon fill="#FFFFFF" points="83.8,1038.2 154.1,1012.5 154.1,909.1 83.8,933.2 	"/>
	<polygon fill="#FFFFFF" points="78.5,881.1 7.6,901.5 78.5,924.9 145,903 	"/>
	<polygon fill="#FFFFFF" points="234.9,933.2 164.6,909.1 164.6,1012.5 234.9,1038.2 	"/>
	<polygon fill="#FFFFFF" points="248.5,1038.2 318.7,1012.5 318.7,909.1 248.5,933.2 	"/>
	<polygon fill="#FFFFFF" points="243.2,881.1 172.2,901.5 243.2,924.9 309.6,903 	"/>
	<polygon fill="#FFFFFF" points="248.5,868.3 319.4,893.2 319.4,789 248.5,764.8 	"/>
	<polygon fill="#FFFFFF" points="402.5,764.8 332.3,789 332.3,893.2 402.5,868.3 	"/>
	<polygon fill="#FFFFFF" points="327,736.9 256,757.3 327,780.7 393.5,758 	"/>
	<polygon fill="#FFFFFF" points="484.1,789 413.1,764.8 413.1,868.3 484.1,893.2 	"/>
	<polygon fill="#FFFFFF" points="496.9,893.2 567.1,868.3 567.1,764.8 496.9,789 	"/>
	<polygon fill="#FFFFFF" points="558.1,758 491.6,736.9 420.6,757.3 491.6,780.7 	"/>
	<polygon fill="#FFFFFF" points="419.1,1177.1 400.2,1115.2 391.1,1115.2 373.7,1176.4 355.6,1115.2 342.8,1115.2 367.7,1197.5 
		378.3,1197.5 395.7,1136.3 413.8,1197.5 424.4,1197.5 447.8,1115.2 437.2,1115.2 	"/>
	<path fill="#FFFFFF" d="M516.6,1123.5c-6.1-7.5-15.1-11.3-25.7-11.3c-10.6,0-19.6,3.8-27.2,12.1c-6.8,8.3-10.6,18.8-10.6,31.7
		s3.8,23.4,10.6,31c6.8,8.3,15.9,12.1,27.2,12.1c8.3,0,15.9-2.3,21.9-6.8c6.8-4.6,10.5-10.6,12.8-17.4l-12.1-2.3
		c-4.5,11.4-11.3,16.6-22.6,15.8c-6,0-11.3-2.3-16.6-6.8c-5.3-3.8-7.6-12.8-7.6-24.9h59.7C526.4,1142.4,523.4,1131.1,516.6,1123.5z
		 M468.1,1147.6c0.8-7.5,3.1-13.6,7.6-18.1c3.8-4.5,9.9-6.8,15.9-6.8c4.5,0,9.1,1.5,12.1,3.8s5.3,5.3,6.8,9.1c1.5,3,2.3,7.5,2.3,12
		H468.1z"/>
	<path fill="#FFFFFF" d="M580.8,1112.9c-10.6,0-18.2,5.3-24.2,15.9v-42.3h-12.8v111h6l5.2-13.6c6.1,10.6,14.4,15.9,25.7,15.9
		c9.9,0,18.2-3.8,24.2-12.1c6.1-8.3,9.1-18.9,9.1-31c0-14.4-3.8-24.9-9.8-32.5C598.2,1116.7,589.9,1112.9,580.8,1112.9z
		 M594.4,1180.9c-3.8,5.3-9.1,8.3-15.9,8.3c-5.2,0-9.8-2.2-14.3-6c-4.6-3.8-6.8-9.8-7.6-18.1v-18.2c0.8-6.8,3.1-12.1,7.6-16.6
		c3.7-4.5,9-6.8,14.3-6.8c6.8,0,12.1,3.1,15.9,9.1c3.7,6,6,14.3,6,24.9C600.4,1167.3,598.2,1175.6,594.4,1180.9z"/>
	<path fill="#FFFFFF" d="M691.8,1149.9l-15.9-3c-8.3-1.5-12.8-5.3-12.8-11.3c0-3.8,2.3-6.8,5.3-9.1c3-2.2,7.5-3,12.8-3
		c9.8,0,17.4,4.5,20.4,12.8l12.1-2.3c-4.5-14.3-15.1-21.1-33.2-21.1c-9.1,0-16.6,2.3-21.9,6.8c-5.3,4.6-8.3,10.6-8.3,17.4
		c0,6,2.2,11.3,6,15.1c3.8,3.8,9.1,6.1,15.9,7.6l16.6,4.5c9.8,1.5,14.3,5.3,14.3,12.1c0,3.8-1.5,7.5-5.3,9.8
		c-3.8,2.3-8.3,3.8-13.6,3.8c-14.4,0-22.7-5.3-25.7-15.9l-12.1,2.3c5.3,15.1,16.7,23.4,36.3,22.6c10.6,0,18.9-2.3,24.9-6.8
		c6.1-4.5,9.1-10.5,9.1-18.1C716.7,1161.2,708.4,1152.9,691.8,1149.9z"/>
	<path fill="#FFFFFF" d="M788.5,1123.5c-6.1-7.5-15.1-11.3-25.7-11.3s-19.6,3.8-27.2,12.1c-6.8,8.3-10.6,18.8-10.6,31.7
		s3.8,23.4,10.6,31c6.8,8.3,15.9,12.1,27.2,12.1c8.3,0,15.9-2.3,21.9-6.8c6.8-4.6,10.5-10.6,12.8-17.4l-12.1-2.3
		c-4.5,11.4-11.3,16.6-22.6,15.8c-6,0-11.3-2.3-16.6-6.8c-5.3-3.8-7.6-12.8-7.6-24.9h59.7C798.3,1142.4,795.3,1131.1,788.5,1123.5z
		 M739.9,1147.6c0.8-7.5,3.1-13.6,7.6-18.1c3.8-4.5,9.9-6.8,15.9-6.8c4.5,0,9.1,1.5,12.1,3.8s5.3,5.3,6.8,9.1c1.5,3,2.3,7.5,2.3,12
		H739.9z"/>
	<path fill="#FFFFFF" d="M836,1116.7c-3.8,2.3-8.3,8.3-12.1,17.4v-18.9h-11.3v82.3h12.8v0.1h0.7V1153c0.8-8.3,3.1-15.1,7.6-20.4
		c4.6-5.3,10.6-7.6,17.4-7.6h2.3v-12.1c-2.3,0-3.8,0-5.3,0C844.3,1112.9,839.8,1113.7,836,1116.7z"/>
	<polygon fill="#FFFFFF" points="898.7,1182.4 876,1115.2 861.7,1115.2 891.2,1197.5 904,1197.5 932.7,1115.2 921.4,1115.2 	"/>
	<line fill="#FFFFFF" x1="932.7" y1="1115.2" x2="932.7" y2="1115.2"/>
	<rect x="943.3" y="1115.2" fill="#FFFFFF" width="12.8" height="82.3"/>
	<rect x="943.2" y="1086.5" fill="#FFFFFF" width="13.6" height="14.3"/>
	<path fill="#FFFFFF" d="M1003.7,1124.2c10.5,0,17.3,6.8,19.6,20.4l11.3-2.3c-0.7-9-4.5-15.8-9.8-21.1c-6-5.3-12.8-8.3-21.9-8.3
		c-10.6,0-19.7,3.8-25.7,12.1c-6.1,8.3-9.1,18.2-9.1,31c0,12.1,3.1,22.7,9.1,31c6.1,8.3,14.4,12.8,25.7,12.8
		c8.3,0,15.8-2.3,21.1-7.6c5.3-5.2,9.1-12,10.6-21.1l-11.3-2.3c-3,13.6-9.1,20.4-21,21.9c-6.8,0-12.1-3.1-15.9-9.1
		s-5.3-14.3-5.3-24.9c0-9.8,2.2-17.4,6-23.4C990.9,1127.2,996.9,1124.2,1003.7,1124.2z"/>
	<path fill="#FFFFFF" d="M1110.2,1123.5c-6.1-7.5-15.1-11.3-25.7-11.3s-19.6,3.8-27.2,12.1c-6.8,8.3-10.6,18.8-10.6,31.7
		s3.8,23.4,10.6,31c6.8,8.3,15.9,12.1,27.2,12.1c8.3,0,15.9-2.3,21.9-6.8c6.8-4.6,10.5-10.6,12.8-17.4l-12.1-2.3
		c-3.8,11.4-11.3,16.6-22.6,15.8c-6,0-11.3-2.3-16.6-6.8c-5.3-3.8-7.6-12.8-7.6-24.9h59.7C1120,1142.4,1117,1131.1,1110.2,1123.5z
		 M1061.7,1147.6c0.8-7.5,3.1-13.6,7.6-18.1c3.8-4.5,9.9-6.8,15.9-6.8c4.5,0,9.1,1.5,12.1,3.8s5.3,5.3,6.8,9.1c1.5,3,2.3,7.5,2.3,12
		H1061.7z"/>
	<path fill="#FFFFFF" d="M1172.9,1151.4l-15.9-3c-8.3-1.5-12.8-5.3-12.8-11.3c0-3.8,2.3-6.8,5.3-9.1c3-2.2,7.5-3,12.8-3
		c9.8,0,17.4,4.5,20.4,12.8l12.1-2.3c-4.5-14.3-15.1-21.1-33.2-21.1c-9.1,0-16.6,2.3-21.9,6.8c-5.3,4.6-8.3,10.6-8.3,17.4
		c0,6,2.2,11.3,6,15.1s9.1,6.1,15.9,7.6l17.4,3c9.8,1.5,14.3,5.3,14.3,12.1c0,3.8-1.5,7.5-5.3,9.8c-3.8,2.3-8.3,3.8-13.6,3.8
		c-14.4,0-22.7-5.3-25.7-15.9l-12.1,2.3c4.5,15.1,16.6,23.4,35.5,24.1c10.6,0,18.9-2.3,24.9-6.8c6.1-4.5,9.1-10.5,9.1-18.1
		C1197.8,1162.7,1189.5,1154.4,1172.9,1151.4z"/>
	<path fill="#FFFFFF" d="M935.7,1024.7c-15.9-8.3-33.2-11.4-50.6-10.6l46.1-65.7c4.5-5.3,6.8-9.1,6.8-12.1v-16.6
		c0-3-2.3-5.3-5.3-5.3h-88.4c-3,0-5.3,2.3-5.3,5.3v19.6c0,3,2.3,4.5,4.6,4.5h46.1l-52.9,76.3c-3,4.5-3,10.6-3,13.6v20.4
		c0,3,3,6,6,4.5c30.2-15.9,66.4-14.3,93.6,0c3.8,1.5,6.8-1.5,6.8-4.5v-21.8C940.2,1029.2,939.5,1027,935.7,1024.7z"/>
	<path fill="#FFFFFF" d="M670.6,1057.1v-87.8c0-14.3,1.5-31.7-6.8-43c-7.6-10.6-19.7-15.1-31-15.1c-15.9,0-30.2,8.3-37,25.7
		c-7.5-17.4-18.1-25.7-34.7-25.7s-28.7,8.3-35.5,25.7h-0.8v-18.1c0-2.2-2.2-4.5-4.5-4.5h-24.9c-3,0-5.3,2.3-5.3,5.3v138.3
		c0,2.2,2.2,4.5,4.5,4.5h27.2c2.3,0,4.6-2.3,4.4-5.3v-73.3c0-16.6-0.7-38.5,18.9-38.5c18.9,0,16.6,23.4,16.6,38.5v73.3
		c0,3,1.5,5.3,4.5,5.3h27.2c3,0,5.3-2.3,5.3-5.3v-73.4c0-7.5-0.7-19.6,2.3-26.4c2.3-6.8,9.1-11.3,15.9-11.3c7.6,0,13.6,3,15.9,12.1
		c1.6,5.3,0.8,19.7,0.8,25.7v73.3c0,3,1.5,5.3,4.5,5.3h27.2C668.3,1062.4,670.6,1060.1,670.6,1057.1z"/>
	<path fill="#FFFFFF" d="M1002.9,912.1c-39.3,0-60.4,33.2-60.4,76.3c0,42.3,21.1,77,60.4,77c37.8,0,61.2-33.2,61.2-75.5
		C1064.1,946.8,1042.9,912.1,1002.9,912.1z M1002.2,1036.7c-20.4,0-20.4-32.5-20.4-49.1s1.5-43.8,21.1-43.8
		c8.3,0,14.3,3.8,17.4,12.9c3,11.3,3.8,25.7,3.8,37C1024.1,1011,1022.6,1036.7,1002.2,1036.7z"/>
	<path fill="#FFFFFF" d="M1194,928c-7.5-12.1-19.6-16.6-31.7-16.6c-18.9,0-29.4,9-37,27.9h-0.8v-21.1c0-2.3-2.2-3.8-4.5-3.8h-24.9
		c-3,0-5.3,2.2-5.3,4.5v138.2c0,3,1.5,5.3,4.5,5.3h27.2c3,0,5.2-2.3,5.3-4.6V983c0-9.8,0.7-18.1,4.5-26.4
		c3.1-6.8,9.1-11.3,15.9-11.3c18.1,0,16.6,21.9,16.6,37v75.5c0,2.2,2.2,4.5,4.5,4.5h27.2c3,0,5.3-2.2,5.3-4.5V971
		C1200.8,957.5,1200.8,939.3,1194,928z"/>
	<path fill="#FFFFFF" d="M771.8,969.5c-15.9,1.5-36.3,2.3-50.6,9.1c-16.6,6.8-28.7,21.9-28.7,43.8c0,28,17.3,42.3,40,42.3
		c19.7,0,29.5-4.5,44.6-19.6c4.5,7.5,6,10.5,15.1,18.1c1.5,0.7,4.5,0.7,6-0.8c5.3-4.6,15.1-13.6,22-18c2.3-1.5,1.5-4.5,0-6.8
		c-4.5-6.8-9.8-12.1-9.8-24.9v-42.3c0-17.4,0.7-34-12.1-46.1c-10.6-9.8-28-13.6-40.8-13.6c-25.7,0-54.4,9.8-60.4,41.5
		c-0.7,3,1.5,4.5,3.8,5.3l26.4,3c2.2-0.8,3.7-3,4.5-5.3c2.3-10.6,11.3-15.9,21.9-15.9c5.3,0,12.1,1.5,15.1,6.8
		c3.8,5.3,3,12.8,3,19.6V969.5z M765.8,1025.4c-4.5,7.6-11.3,12.1-18.9,12.1c-10.6,0-16.6-7.6-16.6-19.6c0-22.7,20.4-27.2,40-27.2v6
		h0.8C771.1,1007.3,771.1,1016.3,765.8,1025.4z"/>
	<path fill="#FFFFFF" d="M469.8,1037.6c-4.5-6.8-9.8-12.1-9.8-24.9v-42.3c0-17.4,0.7-34-12.1-46.1c-10.6-9.8-28-13.6-40.8-13.6
		c-25.7,0-54.4,9.8-60.4,41.5c-0.7,3,1.5,4.5,3.8,5.3l26.4,3c2.2-0.8,3.7-3,4.5-5.3c2.3-10.6,11.3-15.9,21.9-15.9
		c5.3,0,12.1,1.5,15.1,6.8c3.8,5.3,3,12.8,3,19.6v3.8c-15.9,1.5-36.3,2.3-50.6,9.1c-16.6,6.8-28.7,21.9-28.7,43.8
		c0,28,17.3,42.3,40,42.3c19.7,0,29.5-4.5,44.6-19.6c4.5,7.5,6,10.5,15.1,18.1c1.5,0.7,4.5,0.7,6-0.8c5.3-4.6,15.1-13.6,22-18
		C472.1,1042.9,471.3,1039.9,469.8,1037.6z M415.3,1025.4c-4.5,7.6-11.3,12.1-18.9,12.1c-10.6,0-16.6-7.6-16.6-19.6
		c0-22.7,20.4-27.2,40-27.2v6h0.8C420.6,1007.3,420.6,1016.3,415.3,1025.4z"/>
</g>
</svg>
