<svg xmlns="http://www.w3.org/2000/svg" viewBox="0 0 615.3 65.5" enable-background="new 0 0 615.3 65.5">
    <path d="M22.2 29.1V29c4.8-1.1 7.8-4.7 7.8-9.5 0-3.5-1.7-6.4-4.6-8.4-3-1.9-5.7-2-9.1-2H0v42.5h16.2c4.1 0 7.5-.2 10.9-2.7 3-2.2 4.2-5.4 4.2-9 .1-5.5-3.6-9.7-9.1-10.8zm-16.9-16h10c2.2 0 4.2 0 6.1 1.1 2.2 1.3 3.3 3.3 3.3 5.9 0 2.1-1 4.4-2.8 5.7-2.3 1.7-5.3 1.6-8 1.6H5.3V13.1zm17.9 32.5c-1.9 1.5-4.6 1.8-7.1 1.8H5.3V31.3h10c2.5 0 5.3 0 7.4 1.6 2.1 1.6 3.2 4.2 3.2 6.8 0 2.3-.9 4.5-2.7 5.9zm28.1-26.3c-9.8 0-15 7.6-15 16.3 0 8.3 4.4 16.6 14.2 16.6 9.9 0 15.2-7.8 15.2-16.5-.1-8.4-4.8-16.4-14.4-16.4zm7.2 24.4c-1.6 2.9-4.2 4.6-7.6 4.6-3 0-5.8-1.6-7.2-4-1.4-2.5-1.9-5.8-1.9-8.7 0-2.6.4-5.6 1.6-7.9 1.4-2.8 4.3-4.5 7.5-4.5 2.9 0 5.6 1.4 7.1 3.8 1.7 2.6 2.1 5.7 2.1 8.7 0 2.6-.2 5.5-1.6 8zm27-24.4c-9.8 0-15 7.6-15 16.3 0 8.3 4.4 16.6 14.2 16.6 9.9 0 15.2-7.8 15.2-16.5-.1-8.4-4.8-16.4-14.4-16.4zm7.2 24.4c-1.6 2.9-4.2 4.6-7.6 4.6-3 0-5.8-1.6-7.2-4-1.4-2.5-1.9-5.8-1.9-8.7 0-2.6.4-5.6 1.6-7.9 1.4-2.8 4.3-4.5 7.5-4.5 2.9 0 5.6 1.4 7.1 3.8 1.7 2.6 2.1 5.7 2.1 8.7 0 2.6-.2 5.5-1.6 8zm11.6-19.8h16l-17.4 23.8v3.8H127v-3.8h-18l18-25V20h-22.7v3.9zm51.3 41.6h4.1V0h-4.1v65.5zm43.8-56.4l-14.3 42.5h4.6l3.9-12.4H210l4.4 12.4h5.3L205.4 9.1h-6zm-4.2 26l6.8-20.4 6.8 20.4h-13.6zm71.5-15.8c-9.8 0-15.1 7.9-15.1 16.5 0 8.8 5.1 16.4 15 16.4 6.2 0 12-3.5 13.9-9.2l-4.6-.8c-1.4 3.7-4.6 6.1-8.9 6.1-3.4 0-7.1-1.9-8.6-4.9-1.2-2.4-1.4-4.6-1.4-7.1h24c.2-8.9-4.1-17-14.3-17zm-9.4 13.3c.2-4.9 4-9.6 9.4-9.6 5.8 0 9.1 4.4 9 9.6h-18.4zm46-13.3c-4.5 0-8.4 2.6-10.2 6.2h-.1v-5.4h-4.8v31.5h5V35.1c0-3.2.4-6 2.6-8.5 1.7-2 4.1-3.2 6.8-3.2 2.1 0 4.5 1.1 5.6 2.8 1 1.6.9 4 .9 5.8v19.4h5V34.1c0-3.1.1-7.3-1.5-10-2.1-3.2-5.4-4.8-9.3-4.8zm310.5 4.9c-2.1-3.3-5.3-4.9-9.3-4.9-4.5 0-8.4 2.6-10.2 6.2h-.1v-5.4h-4.8v31.5h5V35.1c0-3.2.5-6 2.6-8.5 1.7-2 4.1-3.2 6.8-3.2 2.1 0 4.5 1.1 5.6 2.8 1 1.6.9 4 .9 5.8v19.4h5V34.1c0-3.1.2-7.3-1.5-9.9zM343 65.5h4.1V0H343v65.5zm61.1-38.4h-20.5v-18h-5.2v42.5h5.2V31.1h20.5v20.4h5.2V9.1h-5.2v18zm39.3 5.6c0-3.6 0-7.6-2.6-10.3-2.4-2.7-6.4-3.1-9.8-3.1-5.9 0-12.9 2.1-13.8 8.6l4.6.7c.9-4.3 4.7-5.6 8.8-5.6 5.7 0 8.1 2.1 8.1 7.6V32h-4.2c-4 0-8.7.2-12.3 1.9-3.5 1.5-5.9 4.9-5.9 8.7 0 6.2 5.2 9.5 11.2 9.5 5.1 0 9-2 11.2-6.5l.6 5.9h4.9c-.6-2-.7-4.3-.7-6.6V32.7zm-4.7 5c0 5.6-4.1 10.6-10.2 10.6-4.1 0-7.1-1.6-7.1-5.5 0-6.5 7.1-7.2 13.1-7.2h4.1v2.1zm47.7-18.4c-4.9 0-8.9 3-10.6 7-.9-3.8-4.6-7-9.2-7-4.4 0-8.3 2.9-9.8 6.4h-.1v-5.6h-4.6v31.5h5v-18c0-2.6.3-5.1 2-7.2 1.3-1.7 3.7-3.1 5.9-3.1s4.3 1.2 5.5 3c1 1.5 1.1 3.6 1.1 5.3v19.9h5v-17c0-3-.1-5.3 1.8-7.8 1.5-2 3.8-3.5 6.3-3.5 2.3 0 4.4 1.2 5.5 3.3 1 1.9.9 4.1.9 6.2v18.8h5V32.8c0-2.9.1-6.4-1.5-9-1.7-2.7-4.9-4.5-8.2-4.5zm18.7-4.8h5.5V9.1h-5.5v5.4zm.3 37h5V20.1h-5v31.4zm15.3 0h4.9V9.1h-4.9v42.4zm-295.8 0h4.9V9.1h-4.9v42.4zm15 0h4.9V9.1h-4.9v42.4zm302-8.8v-19h7.3v-3.8h-7.3v-8.3l-5 .5v7.8h-5.8v3.8h5.8v18.2c0 6.3 2.1 10.3 9.3 10.3l4.8-.4V48l-3.9.3c-4.1 0-5.2-2-5.2-5.6zm26.6-23.4c-9.8 0-15 7.6-15 16.3 0 8.3 4.4 16.6 14.2 16.6 9.9 0 15.2-7.8 15.2-16.5-.1-8.4-4.8-16.4-14.4-16.4zm7.2 24.4c-1.6 2.9-4.2 4.6-7.6 4.6-3 0-5.8-1.6-7.2-4-1.4-2.5-1.9-5.8-1.9-8.7 0-2.6.4-5.6 1.6-7.9 1.4-2.8 4.3-4.5 7.5-4.5 2.9 0 5.6 1.4 7.1 3.8 1.7 2.6 2.1 5.7 2.1 8.7 0 2.6-.3 5.5-1.6 8z"/>
</svg>
