<svg xmlns="http://www.w3.org/2000/svg" width="1200.7" height="339.9" viewBox="0 430.5 1200.7 339.9" enable-background="new 0 430.5 1200.7 339.9">
    <g fill="#fff">
        <path d="M374.8 724.1v-8.6h5c.7 0 .7.7.7.7.7.7.7 1.4.7 1.4 0 .7 0 1.4-.7 1.4-.7.7-.7.7-2.2.7 0 0 .7 0 .7.7 0 0 .7.7.7 1.4l1.4 2.2h-1.4l-1.4-2.2c0-.7-.7-.7-.7-1.4l-.7-.7h-2.8v3.6h.7v.8zm.7-5h3.6s.7 0 .7-.7v-.7c0-.7 0-.7-.7-.7 0 0-.7-.7-1.4-.7h-2.9v2.9h.7zm2.9-8.7c-5 0-9.4 4.3-9.4 9.4 0 5 4.3 9.4 9.4 9.4s9.4-4.3 9.4-9.4c0-5.1-4.3-9.4-9.4-9.4zm0 2.2c4.3 0 7.2 3.6 7.2 7.2 0 4.3-2.9 7.2-7.2 7.2s-7.2-2.9-7.2-7.2c0-3.6 3.6-7.2 7.2-7.2zM241 770.1c0-.7 12.2-18.7 25.9-38.8 5-7.2 6.5-11.5 7.2-16.5 0-4.3 2.2-12.2 3.6-18.7 1.4-5.8 2.9-11.5 2.2-12.2-.7-.7-3.6 0-7.2 1.4-7.9 2.9-12.9 2.9-22.3.7-5.8-1.4-7.9-1.4-13.7.7-6.5 2.2-7.2 2.2-12.9 0-5.8-2.2-7.2-2.2-21.6 0-26.6 5-36 2.2-53.2-16.5-10.8-11.5-15.1-13.7-17.3-10.8-.7.7-2.9 1.4-4.3 1.4-2.9 0-5-2.2-8.6-7.9-2.9-4.3-7.2-9.4-9.4-10.8-12.9-9.4-27.3-2.9-27.3 12.2 0 6.5 12.2 25.2 18.7 28.1 8.6 4.3 3.6 10.8-6.5 9.4-5-.7-7.9-2.2-15.1-10.1-7.9-8.6-9.4-9.4-14.4-9.4-3.6 0-8.6 1.4-12.2 2.9-8.6 4.3-20.1 6.5-32.4 6.5H8.6l-2.2-7.2C.7 654.3 0 646.4 0 621.9c0-18.7.7-28.8 2.9-38.1 11.5-52.5 40.3-95 84.2-123 21.6-13.7 41.7-22.3 66.9-27.3 18-3.6 58.3-4.3 76.3 0 59.7 12.9 109.4 50.4 135.3 102.9 14.4 29.5 20.1 53.2 20.1 86.3 0 32.4-5.8 56.8-19.4 84.9-10.1 20.1-8.6 19.4-23 17.3-12.9-1.4-30.2 0-41 3.6-5 1.4-6.5 2.9-7.2 6.5s-2.2 5-10.1 7.9c-6.5 2.9-12.2 6.5-19.4 13.7-5.8 5-11.5 10.8-12.9 11.5-3.8 1.3-11.7 2.8-11.7 2zm36.7-100c33.8-5 57.6-19.4 67.6-39.6 8.6-18 5-33.8-10.1-45.3-7.2-5.8-25.9-13.7-30.9-13.7-1.4 0-4.3 2.9-5.8 6.5-2.9 5.8-11.5 13.7-14.4 13.7-.7 0 .7-3.6 3.6-8.6 2.9-5 4.3-10.8 4.3-14.4 0-15.1-15.8-58.3-28.8-78.4-5.8-9.4-8.6-12.2-15.8-15.8-11.5-6.5-25.2-7.2-43.2-2.2-10.8 2.9-15.8 2.9-25.9 2.2-41.7-2.9-40.3-2.9-46.8.7-8.6 4.3-11.5 10.1-17.3 32.4-5.8 24.5-5.8 31.7-.7 38.1 5.8 6.5 23 14.4 40.3 18.7 20.9 5 35.3 9.4 38.8 11.5 2.2 1.4 4.3 4.3 5 7.2 4.3 11.5 6.5 16.5 9.4 18.7 1.4 1.4 2.9 3.6 2.9 4.3 0 10.8-79.1-13.7-99.3-30.9-8.6-7.2-11.5-12.9-10.1-22.3l.7-7.9-20.1.7c-17.1.7-21.4 1.4-27.1 4.3-20.9 10.1-20.1 27.3 2.9 48.9 33.8 31.7 102.9 63.3 157.6 71.2 18.6 2.9 45.9 2.9 63.2 0zM134.5 522.7c-5.8-5.8-7.2-8.6-7.2-12.2 0-7.9 5.8-11.5 10.1-7.2 6.5 6.5 9.4 7.2 24.5 6.5 15.8-.7 25.2.7 26.6 5 1.4 4.3-1.4 5-14.4 6.5-14.4 1.4-21.6 3.6-24.5 6.5-3.6 4.2-7.2 2.8-15.1-5.1zm86.4-24.5c-7.2-.7-7.2-2.2-.7-4.3 5.8-1.4 9.4-6.5 5.8-7.9-3.6-2.2-15.1-3.6-20.1-2.2-2.9.7-4.3.7-3.6-.7 1.4-2.9 18-5 27.3-4.3 9.4.7 17.3 4.3 18.7 7.9 2.1 6.5-12.3 12.9-27.4 11.5zm-5.1 225.2c-2.9-1.4-6.5-2.9-8.6-2.9-4.3 0-6.5-3.6-3.6-7.2 2.2-2.9 10.1-2.9 15.1 0s10.1 2.9 12.9-.7c3.6-4.3 5-3.6 5 .7 0 5-7.9 12.9-12.2 12.9-2.1.1-6.4-1.4-8.6-2.8zM1187.1 727v-8.6h5c.7 0 .7.7.7.7 0 .7.7.7.7 1.4s0 1.4-.7 1.4c-.7.7-.7.7-2.2.7 0 0 .7 0 .7.7 0 0 .7.7.7 1.4l1.4 2.2h-1.4l-1.4-2.2c0-.7-.7-.7-.7-1.4l-.7-.7h-2.8v3.6h.7v.8zm1.4-5.1h3.6s.7 0 .7-.7v-.7c0-.7 0-.7-.7-.7 0 0-.7-.7-1.4-.7h-2.9v2.9h.7zm2.9-8.6c-5 0-9.4 4.3-9.4 9.4 0 5 4.3 9.4 9.4 9.4 5 0 9.4-4.3 9.4-9.4-.8-5.1-4.4-9.4-9.4-9.4zm0 2.2c4.3 0 7.2 3.6 7.2 7.2s-2.9 7.2-7.2 7.2c-4.3 0-7.2-2.9-7.2-7.2s2.9-7.2 7.2-7.2zm-422.3 13.6c11.5-2.2 18.7-6.5 26.6-14.4l6.5-7.2v20.9h30.9l-.7-184.9-33.1-8.6-1.4 71.9-6.5-5c-3.6-2.9-10.1-6.5-15.1-7.9-30.2-8.6-59 7.9-71.2 39.6-4.3 12.9-5 41.7-.7 54.7 7.2 21.6 23 36.7 41.7 41 8.6 2.1 13.6 2.1 23-.1zM759 701.8c-7.9-2.9-12.2-6.5-16.5-15.1-3.6-7.2-4.3-10.1-5-22.3-.7-16.5 1.4-25.9 9.4-34.5 13.7-17.3 38.8-14.4 48.9 5 4.3 8.6 4.3 41.7 0 51.1-7.3 13.6-23.1 20.8-36.8 15.8zm277.7 27.3c10.8-2.2 18.7-6.5 25.9-13.7l5.8-5.8.7 9.4.7 9.4h11.6l-.7-45.3c-.7-46-1.4-58.3-6.5-67.6-3.6-7.2-11.5-14.4-18-17.3-13.7-5.8-34.5-4.3-50.4 2.9-8.6 3.6-8.6 4.3-6.5 10.8l1.4 3.6 8.6-4.3c11.5-5 28.1-6.5 38.1-2.9 12.2 5 19.4 15.8 19.4 31.7v7.2h-9.4c-22.3 0-46.8 7.9-57.6 18-8.6 8.6-11.5 16.5-11.5 28.8 0 19.4 10.1 31.7 30.2 36.7 6 .6 10.3.6 18.2-1.6zm-21.6-12.9c-8.6-4.3-11.5-10.1-12.2-20.9-.7-12.2 1.4-17.3 9.4-24.5 7.2-6.5 21.6-11.5 40.3-12.2l14.4-.7v16.5c0 17.3 0 18-5 25.9-7.2 11.5-15.8 17.3-30.9 18-8.1.8-11.7 0-16-2.1zm143.9 13.7c4.3-.7 8.6-1.4 8.6-2.2 0 0 0-2.9-.7-5l-.7-5-9.4.7c-11.5 1.4-18-1.4-21.6-9.4-2.2-4.3-2.2-12.2-2.2-54v-48.2h37.4v-10H1133v-13.7c0-7.9-.7-13.7-.7-13.7-.7 0-3.6.7-7.2 1.4l-5.8 1.4v24.4l-10.8.7-10.8.7-.7 5-.7 5h23l.7 51.1c.7 48.9.7 51.1 3.6 56.8 4.3 7.9 7.9 11.5 15.8 13.7 8.1 1.7 9.5 1.7 19.6.3zm-488.5-4.4l10.1-3.6-2.2-10.8c-1.4-6.5-2.2-11.5-2.9-11.5 0 0-5 .7-10.1 2.2-5.8.7-15.8 1.4-25.2 1.4-13.7 0-16.5-.7-23.7-4.3-9.4-5-16.5-13.7-18-23l-.7-5.8h87.8v-17.3c0-14.4-.7-19.4-3.6-25.9-10.1-25.2-28.8-36.7-56.1-35.3-26.6 1.4-46 15.8-56.1 41-9.4 23.7-5.8 56.1 7.9 73.4 7.2 8.6 18 16.5 29.5 20.1 14.4 4.5 48.9 3.8 63.3-.6zm-71.9-81.3c0-5 7.2-18 12.2-22.3 14.4-12.2 33.1-7.9 41.7 7.9 1.4 2.9 2.9 8.6 2.9 11.5v5.8h-28.1c-26.6 0-28.7-.7-28.7-2.9zM517.3 686c.7-44.6.7-46 10.1-54.7 5.8-5.8 11.5-7.2 21.6-7.2h8.6V591l-9.4.7c-14.4 1.4-27.3 10.8-33.1 23l-2.2 4.3v-5.8c0-2.9-.7-8.6-.7-12.9l-.7-7.2h-28.8v134.5h33.8l.8-41.6zm358.2-5.8c.7-51.8.7-51.1 12.2-62.6 7.9-7.9 15.8-11.5 27.3-12.2 12.9-.7 23.7 5 30.2 15.8 5.8 10.8 7.2 23 7.2 67.6v38.8h12.2v-46c0-41.7 0-47.5-2.9-56.1-17.3-48.2-67.6-32.4-85.6-7.9l-.7-62.6-12.9-2.9v176.3h12.9v-48.2h.1z"/>
    </g>
</svg>
