<?xml version="1.0" encoding="utf-8"?>
<!-- Generator: Adobe Illustrator 18.1.1, SVG Export Plug-In . SVG Version: 6.00 Build 0)  -->
<svg version="1.1" id="Layer_1" xmlns="http://www.w3.org/2000/svg" xmlns:xlink="http://www.w3.org/1999/xlink" x="0px" y="0px"
	 viewBox="0 0 158.9 61.5" enable-background="new 0 0 158.9 61.5" xml:space="preserve">
<g>
	<g>
		<polygon fill-rule="evenodd" clip-rule="evenodd" fill="#FFFFFF" points="20.5,59 11.1,55.6 11.1,42 20.5,45.1 		"/>
		<polygon fill-rule="evenodd" clip-rule="evenodd" fill="#FFFFFF" points="22.2,59 31.5,55.6 31.5,42 22.2,45.1 		"/>
		<polygon fill-rule="evenodd" clip-rule="evenodd" fill="#FFFFFF" points="12.1,40.9 21.5,38.3 30.3,41.1 21.5,44.1 		"/>
	</g>
	<g>
		<polygon fill-rule="evenodd" clip-rule="evenodd" fill="#FFFFFF" points="9.3,39.9 0,36.5 0,22.8 9.3,26 		"/>
		<polygon fill-rule="evenodd" clip-rule="evenodd" fill="#FFFFFF" points="11.1,39.9 20.4,36.5 20.4,22.8 11.1,26 		"/>
		<polygon fill-rule="evenodd" clip-rule="evenodd" fill="#FFFFFF" points="1,21.8 10.4,19.1 19.2,22 10.4,24.9 		"/>
	</g>
	<g>
		<polygon fill-rule="evenodd" clip-rule="evenodd" fill="#FFFFFF" points="31.1,39.9 21.8,36.5 21.8,22.8 31.1,26 		"/>
		<polygon fill-rule="evenodd" clip-rule="evenodd" fill="#FFFFFF" points="32.9,39.9 42.2,36.5 42.2,22.8 32.9,26 		"/>
		<polygon fill-rule="evenodd" clip-rule="evenodd" fill="#FFFFFF" points="22.8,21.8 32.2,19.1 41,22 32.2,24.9 		"/>
	</g>
	<g>
		<polygon fill-rule="evenodd" clip-rule="evenodd" fill="#FFFFFF" points="42.3,20.7 32.9,17.4 32.9,3.7 42.3,6.9 		"/>
		<polygon fill-rule="evenodd" clip-rule="evenodd" fill="#FFFFFF" points="44,20.7 53.3,17.4 53.3,3.7 44,6.9 		"/>
		<polygon fill-rule="evenodd" clip-rule="evenodd" fill="#FFFFFF" points="33.9,2.7 43.3,0 52.1,2.8 43.3,5.8 		"/>
	</g>
	<g>
		<polygon fill-rule="evenodd" clip-rule="evenodd" fill="#FFFFFF" points="64.1,20.7 54.7,17.4 54.7,3.7 64.1,6.9 		"/>
		<polygon fill-rule="evenodd" clip-rule="evenodd" fill="#FFFFFF" points="65.8,20.7 75.1,17.4 75.1,3.7 65.8,6.9 		"/>
		<polygon fill-rule="evenodd" clip-rule="evenodd" fill="#FFFFFF" points="55.7,2.7 65.1,0 73.9,2.8 65.1,5.8 		"/>
	</g>
	<g>
		<path fill="#FFFFFF" stroke="#F7F8F8" stroke-width="0.4051" d="M59.3,50.1L56.2,61h-1.4l-2.4-8.1L50.1,61h-1.4l-3.3-10.9h1.7
			l2.4,8.1l2.3-8.1h1.2l2.5,8.2l2.4-8.2H59.3z"/>
		<path fill="#FFFFFF" stroke="#F7F8F8" stroke-width="0.4051" d="M68,57.7l1.6,0.3c-0.3,0.9-0.8,1.7-1.7,2.3
			c-0.8,0.6-1.8,0.9-2.9,0.9c-1.5,0-2.7-0.5-3.6-1.6c-0.9-1-1.4-2.4-1.4-4.1c0-1.7,0.5-3.1,1.4-4.2c1-1.1,2.2-1.6,3.6-1.6
			c1.4,0,2.6,0.5,3.4,1.5c0.9,1,1.3,2.5,1.3,4.4h-7.9c0,1.6,0.3,2.8,1,3.3c0.7,0.6,1.4,0.9,2.2,0.9C66.5,59.9,67.4,59.2,68,57.7z
			 M67.9,54.4c0-0.6-0.1-1.2-0.3-1.6c-0.2-0.5-0.5-0.9-0.9-1.2c-0.4-0.3-1-0.5-1.6-0.5c-0.8,0-1.6,0.3-2.1,0.9
			c-0.6,0.6-0.9,1.4-1,2.4H67.9z"/>
		<path fill="#FFFFFF" stroke="#F7F8F8" stroke-width="0.4051" d="M72.8,61H72V46.3h1.7v5.6c0.8-1.4,1.8-2.1,3.2-2.1
			c1.2,0,2.3,0.5,3.1,1.5c0.8,1,1.3,2.4,1.3,4.3c0,1.6-0.4,3-1.2,4.1c-0.8,1.1-1.9,1.6-3.2,1.6c-1.5,0-2.6-0.7-3.4-2.1L72.8,61z
			 M73.7,56.7c0.1,1.1,0.4,1.9,1,2.4c0.6,0.5,1.2,0.8,1.9,0.8c0.9,0,1.6-0.4,2.1-1.1c0.5-0.7,0.8-1.8,0.8-3.1c0-1.4-0.3-2.5-0.8-3.3
			c-0.5-0.8-1.2-1.2-2.1-1.2c-0.7,0-1.4,0.3-1.9,0.9c-0.6,0.6-0.9,1.3-1,2.2V56.7z"/>
		<path fill="#FFFFFF" stroke="#F7F8F8" stroke-width="0.4051" d="M85.6,58.2l1.6-0.3c0.4,1.4,1.5,2.1,3.4,2.1
			c0.7,0,1.3-0.2,1.8-0.5c0.5-0.3,0.7-0.8,0.7-1.3c0-0.9-0.6-1.4-1.9-1.6L89,56c-0.9-0.2-1.6-0.5-2.1-1c-0.5-0.5-0.8-1.2-0.8-2
			c0-0.9,0.4-1.7,1.1-2.3c0.7-0.6,1.7-0.9,2.9-0.9c2.4,0,3.8,0.9,4.4,2.8l-1.6,0.3c-0.4-1.1-1.4-1.7-2.7-1.7c-0.7,0-1.3,0.1-1.7,0.4
			c-0.4,0.3-0.7,0.7-0.7,1.2c0,0.8,0.6,1.3,1.7,1.5l2.1,0.4c2.2,0.4,3.3,1.5,3.3,3.2c0,1-0.4,1.8-1.2,2.4c-0.8,0.6-1.9,0.9-3.3,0.9
			C87.8,61.3,86.3,60.2,85.6,58.2z"/>
		<path fill="#FFFFFF" stroke="#F7F8F8" stroke-width="0.4051" d="M104,57.7l1.6,0.3c-0.3,0.9-0.8,1.7-1.7,2.3
			c-0.8,0.6-1.8,0.9-2.9,0.9c-1.5,0-2.7-0.5-3.6-1.6c-0.9-1-1.4-2.4-1.4-4.1c0-1.7,0.5-3.1,1.4-4.2c1-1.1,2.2-1.6,3.6-1.6
			c1.4,0,2.6,0.5,3.4,1.5c0.9,1,1.3,2.5,1.3,4.4h-7.9c0,1.6,0.3,2.8,1,3.3c0.7,0.6,1.4,0.9,2.2,0.9C102.5,59.9,103.4,59.2,104,57.7z
			 M103.9,54.4c0-0.6-0.1-1.2-0.3-1.6c-0.2-0.5-0.5-0.9-0.9-1.2c-0.4-0.3-1-0.5-1.6-0.5c-0.8,0-1.6,0.3-2.1,0.9
			c-0.6,0.6-0.9,1.4-1,2.4H103.9z"/>
		<path fill="#FFFFFF" stroke="#F7F8F8" stroke-width="0.4051" d="M109.3,61h-1.7V50.1h1.5v2.5c0.5-1.2,1.1-2,1.6-2.3
			c0.5-0.4,1.1-0.5,1.6-0.5c0.2,0,0.4,0,0.7,0v1.6h-0.3c-0.9,0-1.7,0.3-2.3,1c-0.6,0.7-0.9,1.6-1,2.7V61z"/>
		<path fill="#FFFFFF" stroke="#F7F8F8" stroke-width="0.4051" d="M123.5,50.1L119.7,61H118l-3.9-10.9h1.9l3,8.9l3-8.9H123.5z"/>
		<path fill="#FFFFFF" stroke="#F7F8F8" stroke-width="0.4051" d="M126.7,46.3v1.9h-1.8v-1.9H126.7z M126.6,50.1V61h-1.7V50.1H126.6
			z"/>
		<path fill="#FFFFFF" stroke="#F7F8F8" stroke-width="0.4051" d="M135.5,57.2l1.5,0.3c-0.2,1.2-0.7,2.1-1.4,2.8
			c-0.7,0.7-1.7,1-2.8,1c-1.5,0-2.6-0.6-3.4-1.7c-0.8-1.1-1.2-2.5-1.2-4.1c0-1.7,0.4-3,1.2-4.1c0.8-1.1,2-1.6,3.4-1.6
			c1.2,0,2.1,0.4,2.9,1.1c0.7,0.7,1.2,1.6,1.3,2.8l-1.5,0.3c-0.3-1.8-1.2-2.7-2.6-2.7c-0.9,0-1.7,0.4-2.2,1.2
			c-0.5,0.8-0.8,1.8-0.8,3.1c0,1.4,0.2,2.5,0.7,3.3c0.5,0.8,1.2,1.2,2.1,1.2C134.3,59.9,135.1,59,135.5,57.2z"/>
		<path fill="#FFFFFF" stroke="#F7F8F8" stroke-width="0.4051" d="M146.6,57.7l1.6,0.3c-0.3,0.9-0.8,1.7-1.7,2.3
			c-0.8,0.6-1.8,0.9-2.9,0.9c-1.5,0-2.7-0.5-3.6-1.6c-0.9-1-1.4-2.4-1.4-4.1c0-1.7,0.5-3.1,1.4-4.2c1-1.1,2.2-1.6,3.6-1.6
			c1.4,0,2.6,0.5,3.4,1.5c0.9,1,1.3,2.5,1.3,4.4h-7.9c0,1.6,0.3,2.8,1,3.3c0.7,0.6,1.4,0.9,2.2,0.9
			C145.1,59.9,146.1,59.2,146.6,57.7z M146.5,54.4c0-0.6-0.1-1.2-0.3-1.6c-0.2-0.5-0.5-0.9-0.9-1.2c-0.4-0.3-1-0.5-1.6-0.5
			c-0.8,0-1.6,0.3-2.1,0.9c-0.6,0.6-0.9,1.4-1,2.4H146.5z"/>
		<path fill="#FFFFFF" stroke="#F7F8F8" stroke-width="0.4051" d="M149.4,58.2l1.6-0.3c0.4,1.4,1.5,2.1,3.4,2.1
			c0.7,0,1.3-0.2,1.8-0.5c0.5-0.3,0.7-0.8,0.7-1.3c0-0.9-0.6-1.4-1.9-1.6l-2.3-0.4c-0.9-0.2-1.6-0.5-2.1-1c-0.5-0.5-0.8-1.2-0.8-2
			c0-0.9,0.4-1.7,1.1-2.3c0.7-0.6,1.7-0.9,2.9-0.9c2.4,0,3.8,0.9,4.4,2.8l-1.6,0.3c-0.4-1.1-1.4-1.7-2.7-1.7c-0.7,0-1.3,0.1-1.7,0.4
			c-0.4,0.3-0.7,0.7-0.7,1.2c0,0.8,0.6,1.3,1.7,1.5l2.1,0.4c2.2,0.4,3.3,1.5,3.3,3.2c0,1-0.4,1.8-1.2,2.4c-0.8,0.6-1.9,0.9-3.3,0.9
			C151.6,61.3,150,60.2,149.4,58.2z"/>
	</g>
	<g>
		<g>
			<path fill-rule="evenodd" clip-rule="evenodd" fill="#FFFFFF" d="M111.1,26.8v-2.6c0-0.4,0.3-0.7,0.7-0.7h11.7
				c0.4,0,0.7,0.3,0.7,0.7l0,2.2c0,0.4-0.3,0.9-0.9,1.6l-6.1,8.7c2.3-0.1,4.6,0.3,6.7,1.4c0.5,0.3,0.6,0.6,0.6,1V42
				c0,0.4-0.4,0.8-0.9,0.6c-3.6-1.9-8.4-2.1-12.4,0c-0.4,0.2-0.8-0.2-0.8-0.6v-2.7c0-0.4,0-1.2,0.4-1.8l7-10.1h-6.1
				C111.4,27.4,111.1,27.2,111.1,26.8z"/>
			<path fill-rule="evenodd" clip-rule="evenodd" fill="#FFFFFF" d="M69.1,43.1h-3.6c-0.3,0-0.6-0.3-0.6-0.6l0-18.3
				c0-0.4,0.3-0.7,0.7-0.7l3.3,0c0.3,0,0.6,0.3,0.6,0.6v2.4h0.1c0.9-2.3,2.5-3.4,4.7-3.4c2.2,0,3.6,1.1,4.6,3.4
				c0.9-2.3,2.8-3.4,4.9-3.4c1.5,0,3.1,0.6,4.1,2c1.1,1.5,0.9,3.8,0.9,5.7l0,11.6c0,0.4-0.3,0.7-0.7,0.7h-3.6
				c-0.4,0-0.6-0.3-0.6-0.7l0-9.7c0-0.8,0.1-2.7-0.1-3.4c-0.3-1.2-1.1-1.6-2.1-1.6c-0.9,0-1.8,0.6-2.1,1.5c-0.4,0.9-0.3,2.5-0.3,3.5
				v9.7c0,0.4-0.3,0.7-0.7,0.7h-3.6c-0.4,0-0.6-0.3-0.6-0.7l0-9.7c0-2,0.3-5.1-2.2-5.1c-2.6,0-2.5,2.9-2.5,5.1l0,9.7
				C69.7,42.8,69.4,43.1,69.1,43.1z"/>
			<path fill-rule="evenodd" clip-rule="evenodd" fill="#FFFFFF" d="M132.8,23.2c5.3,0,8.1,4.6,8.1,10.3c0,5.6-3.1,10-8.1,10
				c-5.2,0-8-4.6-8-10.2C124.8,27.6,127.6,23.2,132.8,23.2z M132.8,27.4c-2.6,0-2.8,3.6-2.8,5.8c0,2.2,0,6.5,2.7,6.5
				c2.7,0,2.9-3.4,2.9-5.7c0-1.5-0.1-3.4-0.5-4.9C134.7,27.9,133.9,27.4,132.8,27.4z"/>
			<path fill-rule="evenodd" clip-rule="evenodd" fill="#FFFFFF" d="M148.5,43.1h-3.6c-0.4,0-0.6-0.3-0.6-0.7l0-18.3
				c0-0.3,0.3-0.6,0.7-0.6l3.3,0c0.3,0,0.6,0.2,0.6,0.5v2.8h0.1c1-2.5,2.4-3.7,4.9-3.7c1.6,0,3.2,0.6,4.2,2.2
				c0.9,1.5,0.9,3.9,0.9,5.7v11.5c0,0.3-0.3,0.6-0.7,0.6h-3.6c-0.3,0-0.6-0.3-0.6-0.6v-10c0-2,0.2-4.9-2.2-4.9
				c-0.9,0-1.7,0.6-2.1,1.5c-0.5,1.1-0.6,2.2-0.6,3.5v9.9C149.2,42.8,148.9,43.1,148.5,43.1z"/>
			<path fill-rule="evenodd" clip-rule="evenodd" fill="#FFFFFF" d="M102.1,34.4c0,1.4,0,2.6-0.7,3.8c-0.6,1-1.5,1.6-2.5,1.6
				c-1.4,0-2.2-1-2.2-2.6c0-3,2.7-3.6,5.3-3.6V34.4z M105.7,43.1c-0.2,0.2-0.6,0.2-0.8,0.1c-1.2-1-1.4-1.4-2-2.4
				c-2,2-3.3,2.6-5.9,2.6c-3,0-5.3-1.9-5.3-5.6c0-2.9,1.6-4.9,3.8-5.8c1.9-0.9,4.6-1,6.7-1.2v-0.5c0-0.9,0.1-1.9-0.4-2.6
				c-0.4-0.7-1.3-0.9-2-0.9c-1.4,0-2.6,0.7-2.9,2.1c-0.1,0.3-0.3,0.6-0.6,0.7l-3.5-0.4c-0.3-0.1-0.6-0.3-0.5-0.7
				c0.8-4.2,4.6-5.5,8-5.5c1.7,0,4,0.5,5.4,1.8c1.7,1.6,1.6,3.8,1.6,6.1v5.6c0,1.7,0.7,2.4,1.3,3.3c0.2,0.3,0.3,0.7,0,0.9
				C107.7,41.3,106.4,42.5,105.7,43.1L105.7,43.1z"/>
			<path fill-rule="evenodd" clip-rule="evenodd" fill="#FFFFFF" d="M55.7,34.4c0,1.4,0,2.6-0.7,3.8c-0.6,1-1.5,1.6-2.5,1.6
				c-1.4,0-2.2-1-2.2-2.6c0-3,2.7-3.6,5.3-3.6V34.4z M59.3,43.1c-0.2,0.2-0.6,0.2-0.8,0.1c-1.2-1-1.4-1.4-2-2.4
				c-2,2-3.3,2.6-5.9,2.6c-3,0-5.3-1.9-5.3-5.6c0-2.9,1.6-4.9,3.8-5.8c1.9-0.9,4.6-1,6.7-1.2v-0.5c0-0.9,0.1-1.9-0.4-2.6
				c-0.4-0.7-1.3-0.9-2-0.9c-1.4,0-2.6,0.7-2.9,2.1c-0.1,0.3-0.3,0.6-0.6,0.7l-3.5-0.4c-0.3-0.1-0.6-0.3-0.5-0.7
				c0.8-4.2,4.6-5.5,8-5.5c1.7,0,4,0.5,5.4,1.8c1.7,1.6,1.6,3.8,1.6,6.1v5.6c0,1.7,0.7,2.4,1.3,3.3c0.2,0.3,0.3,0.7,0,0.9
				C61.3,41.3,60,42.5,59.3,43.1L59.3,43.1z"/>
		</g>
	</g>
</g>
</svg>
