<?xml version="1.0" encoding="utf-8"?>
<!-- Generator: Adobe Illustrator 18.1.1, SVG Export Plug-In . SVG Version: 6.00 Build 0)  -->
<svg version="1.1" id="Layer_1" xmlns="http://www.w3.org/2000/svg" xmlns:xlink="http://www.w3.org/1999/xlink" x="0px" y="0px"
	 width="1200px" height="240.7px" viewBox="0 479.7 1200 240.7" enable-background="new 0 479.7 1200 240.7" xml:space="preserve">
<path d="M542.9,648.7c-1.7-3.4-2.2-9-2.2-17.4v-21.3c0-19-2.8-31.9-8.4-39.2c-5.6-7.3-15.1-11.2-28.5-11.2
	c-14.6,0-26.3,3.9-35.8,11.2l2.8,15.7c9-6.2,18.5-9.5,28-9.5c7.8,0,14,1.7,17.4,5c3.9,3.4,5.6,9.5,5.6,19c-7.3,0-14.6,1.1-21.3,2.2
	c-6.7,1.1-13.4,2.8-20.1,5.6c-6.7,2.8-11.8,6.7-15.7,11.8c-3.9,5-5.6,11.2-5.6,18.5c0,9,2.8,16.2,9,21.8c6.2,5.6,14,8.4,23.5,8.4
	c12.9,0,23.5-5,32.5-15.7c2.2,5.6,5.6,9.5,9,12.3c3.4,2.2,9.5,3.4,18.5,3.4h1.7l2.8-15.7h-1.7C547.4,653.2,544,651.5,542.9,648.7
	L542.9,648.7z M521.1,639.2c-3.4,4.5-7.3,7.8-11.8,10.1c-4.5,2.8-9.5,3.9-14.6,3.9c-10.6,0-16.2-5.6-16.2-16.2
	c0-7.8,3.4-13.4,10.1-16.8c6.7-3.4,17.9-5.6,33-6.2v25.2H521.1z M411.4,516l-39.2,74.4L333,516h-17.4l-20.1,150.6h21.3l14-114.2
	l41.4,78.4l40.9-78.4l14,113.6h21.3l-19-150H411.4z M617.9,559.1c-13.4,0-25.2,4.5-34.7,13.4l-2.2-11.2h-15.1v105.2h19.6v-76.7
	c5-9,14.6-14,28.5-14c10.1,0,16.8,2.8,21.3,7.8c4.5,5,6.7,13.4,6.7,24.6v58.2h19.6v-58.2C661,575.4,646.5,559.1,617.9,559.1z
	 M1008.6,666.6h27.4V516h-27.4V666.6z M1200,591c0-23.5-6.7-42-20.7-56.5s-31.3-21.8-53.2-21.8c-21.8,0-39.7,7.3-53.7,21.8
	s-20.7,33-20.7,56.5c0,23.5,6.7,42.5,20.7,57.1s31.9,21.3,53.7,21.3c16.8,0,31.3-4.5,43.7-12.9l14.6,12.3l15.7-19l-13.4-11.2
	C1195.5,625.2,1200,609.5,1200,591L1200,591z M1163.6,619.6l-19-15.7l-15.7,19l17.9,15.1c-6.2,3.4-13.4,5-21.3,5
	c-14,0-25.2-4.5-32.5-14c-7.8-9.5-11.2-21.8-11.2-37.5s3.9-28,11.2-37.5c7.8-9.5,18.5-14,32.5-14s25.2,4.5,32.5,14
	c7.8,9.5,11.2,21.8,11.2,37.5C1169.8,602.2,1167.5,611.8,1163.6,619.6L1163.6,619.6z M866.4,668.8c-2.8-1.7-6.2-3.4-10.6-5
	c-4.5-1.7-7.8-2.8-11.2-3.4c-3.4-0.6-6.7-1.7-11.2-2.2c-13.4-2.2-22.4-3.9-26.9-5.6c-3.9-1.1-6.2-3.4-6.2-5.6c0-2.2,1.7-4.5,5-6.7
	c4.5,1.1,9.5,1.7,15.1,1.7c12.9,0,23.5-3.9,30.8-12.3c7.8-8.4,11.8-17.9,11.8-29.7c0-9-3.4-17.4-9.5-25.2c3.9-1.1,8.4-1.7,12.3-1.7
	h5l2.2-12.9h-1.7c-9.5,0-17.9,2.2-25.7,6.2c-8.4-5-17.4-7.8-26.9-7.8c-13.4,0-24.1,3.9-31.3,12.3c-7.8,7.8-11.2,17.9-11.2,30.2
	c0,14,6.2,25.7,18.5,34.7c-4.5,2.2-7.8,4.5-9.5,7.8c-1.7,2.8-2.8,5.6-2.8,7.8c0,5.6,3.4,10.1,10.6,13.4
	c-12.3,4.5-18.5,12.3-18.5,23.5c0,8.4,3.9,15.7,11.8,22.4c8.4,6.7,20.7,9.5,36.9,9.5c16.2,0,29.1-3.4,38.6-10.1
	c9.5-6.7,14-14,14-23.5c0-3.9-1.1-7.3-2.8-10.6C872,673.3,869.2,670.5,866.4,668.8L866.4,668.8z M802.1,581.5
	c4.5-5,10.6-7.3,18.5-7.3s13.4,2.2,18.5,6.7c4.5,4.5,7.3,10.6,7.3,18.5S844,614,839.6,619c-4.5,5-10.6,7.8-17.9,7.8
	s-13.4-2.2-18.5-7.3c-4.5-5-6.7-11.2-6.7-19.6C795.3,592.7,797.6,586.6,802.1,581.5L802.1,581.5z M848.5,700.2
	c-5.6,3.4-13.4,5-24.1,5c-10.1,0-17.4-1.7-22.9-5c-5.6-3.4-8.4-7.3-8.4-12.3c0-3.9,1.7-7.3,4.5-11.2c3.4-3.4,7.3-6.2,12.3-7.3
	c10.1,1.7,16.8,2.8,19,2.8c19,3.4,28,9,28,16.2C857.5,692.9,854.7,696.8,848.5,700.2L848.5,700.2z M927.4,559.1
	c-15.7,0-28.5,5-37.5,15.7c-9.5,10.1-14,22.9-14,38.6s5,29.1,15.1,39.7s24.1,15.7,42,15.7c11.2,0,22.9-2.8,35.3-8.4l-2.8-15.1
	c-9,3.9-19,6.2-30.2,6.2c-24.1,0-36.9-12.3-39.7-37.5h76.1c0.6-3.4,1.1-6.7,1.1-10.1c0-14-4.5-24.6-12.9-32.5
	C951.5,563.1,940.9,559.1,927.4,559.1z M897.2,600.6c3.9-16.2,14-24.1,29.7-24.1c8.4,0,15.1,2.2,19.6,6.7c4.5,4.5,6.7,10.1,6.7,17.9
	h-56V600.6z M758.4,648.7c-1.7-3.4-2.2-9-2.2-17.4v-21.3c0-19-2.8-31.9-8.4-39.2c-5.6-7.3-15.1-11.2-28.5-11.2
	c-14.6,0-26.3,3.9-35.8,11.2l2.8,15.7c9-6.2,18.5-9.5,28-9.5c7.8,0,14,1.7,17.4,5c3.9,3.4,5.6,9.5,5.6,19c-7.3,0-14.6,1.1-21.3,2.2
	c-6.7,1.1-13.4,2.8-20.1,5.6c-6.7,2.8-11.8,6.7-15.7,11.8c-3.9,5-5.6,11.2-5.6,18.5c0,9,2.8,16.2,9,21.8c6.2,5.6,14,8.4,23.5,8.4
	c12.9,0,23.5-5,32.5-15.7c2.2,5.6,5.6,9.5,9,12.3c3.4,2.2,9.5,3.4,18.5,3.4h1.7l2.8-15.7h-1.7C762.9,653.2,759.5,651.5,758.4,648.7
	L758.4,648.7z M736.6,639.2c-3.4,4.5-7.3,7.8-11.8,10.1c-4.5,2.8-9.5,3.9-14.6,3.9c-10.6,0-16.2-5.6-16.2-16.2
	c0-7.8,3.4-13.4,10.1-16.8c6.7-3.4,17.9-5.6,33-6.2v25.2H736.6z M213.2,583.8c0-56.5-45.3-102.4-101.9-104.1h-2.8
	C51.5,479.7,5,526.1,5,583.8c0,21.8,6.7,42,17.9,58.2L0,664.9L29.1,694l22.9-22.9c16.2,10.6,35.8,16.8,56.5,16.8s40.3-6.2,56.5-16.8
	l21.8,21.8l29.1-29.1l-21.3-21.3C206.5,625.7,213.2,605.6,213.2,583.8L213.2,583.8z M109.1,653.7c-11.2,0-21.8-2.8-31.3-7.8
	l22.4-22.4l-29.1-29.1l-1.7,1.7l-21.3,21.3c-5.6-10.1-8.4-21.3-8.4-33.6c0-38.6,31.3-70,69.4-70c38.6,0,69.4,31.3,69.4,70
	C178.5,622.4,147.2,653.7,109.1,653.7L109.1,653.7z M109.1,564.2c-11.2,0-20.1,9-20.1,20.1s9,20.1,20.1,20.1s20.1-9,20.1-20.1
	C128.7,572.6,119.8,564.2,109.1,564.2z"/>
</svg>
