<svg xmlns="http://www.w3.org/2000/svg" viewBox="0 0 91.5 89.4" enable-background="new 0 0 91.5 89.4">
    <path d="M28.4 58.2c-10 0-18.4-3.1-23.5-8.7C1.2 45.4-.5 40.3.1 34.8 1.6 19.5 13.7 4.6 27.8.9c2.4-.6 5-.9 7.6-.9 12.7 0 26 7 33 17.4 3.6 5.3 4.3 11.7 2 17.8-3.6 9.7-14.3 17.6-28.4 21.3-4.6 1.1-9.2 1.7-13.6 1.7zm7.1-49.9c-2 0-3.8.2-5.6.7C19.2 11.8 9.5 23.7 8.4 35.6c-.3 3.2.6 6 2.7 8.3 5.1 5.7 16.7 7.5 28.9 4.5 11.3-2.9 20-9.1 22.7-16.2 1.4-3.6 1-7.1-1.1-10.2C56 13.8 45.5 8.3 35.5 8.3zM18.9 79.6l-.3-4c3.1-.2 5.4-1.3 7.1-3.3 3.4-4.2 2.6-10.9 2.6-10.9l4-.5c0 .3 1 8.5-3.5 14-2.4 2.8-5.7 4.4-9.9 4.7z"/>
    <circle cx="12.2" cy="77.1" r="8.5"/>
    <path d="M71.3 64.1c-1 0-1.9-.1-2.9-.3-6.9-1.7-11-8.7-11.2-9l3.5-2-1.7 1 1.7-1c0 .1 3.5 5.9 8.7 7.1 2.5.6 5 .1 7.6-1.7l2.2 3.4c-2.6 1.6-5.2 2.5-7.9 2.5z"/>
    <circle cx="83" cy="55.5" r="8.5"/>
    <path d="M48.5 77.5l-4-.4c.9-8.4-2.5-16.2-2.5-16.3l3.7-1.6c.2.3 3.9 8.9 2.8 18.3z"/>
    <circle cx="48.5" cy="80.9" r="8.5"/>
</svg>
