<?xml version="1.0" encoding="utf-8"?>
<!-- Generator: Adobe Illustrator 18.1.1, SVG Export Plug-In . SVG Version: 6.00 Build 0)  -->
<svg version="1.1" id="Layer_1" xmlns="http://www.w3.org/2000/svg" xmlns:xlink="http://www.w3.org/1999/xlink" x="0px" y="0px"
	 width="1200.6px" height="176.7px" viewBox="0 511.7 1200.6 176.7" enable-background="new 0 511.7 1200.6 176.7"
	 xml:space="preserve">
<g>
	<g>
		<polygon fill="#FFFFFF" points="78.1,598.8 176.7,598.8 176.7,511.7 78.1,525.5 		"/>
		<polygon fill="#FFFFFF" points="75.1,598.8 75.1,526.1 0,536.3 0,598.8 		"/>
		<polygon fill="#FFFFFF" points="78.1,601.2 78.1,674.5 176.7,688.3 176.7,601.2 		"/>
		<polygon fill="#FFFFFF" points="75.1,601.2 0,601.2 0,663.7 75.1,673.9 		"/>
	</g>
	<g>
		<path fill="#FFFFFF" d="M367.2,547.1l-30,106.4h-14.4l-23.4-84.1l0,0l-24,84.1h-14.4l-31.2-106.4h13.8l24.6,88.3h0.6l25.8-88.3h12
			l24,88.9l0,0l23.4-88.9C353.9,547.1,367.2,547.1,367.2,547.1z"/>
		<path fill="#FFFFFF" d="M389.4,652.9h-12v-75.7h12V652.9z"/>
		<path fill="#FFFFFF" d="M470.5,652.9h-12v-43.3c0-16.2-6-24-17.4-24c-6,0-10.8,2.4-15,6.6c-4.2,4.8-6,10.2-6,17.4v43.3h-12v-75.7
			h12v12.6l0,0c5.4-9.6,13.8-14.4,24.6-14.4c8.4,0,14.4,3,19.2,8.4c4.2,5.4,6.6,13.2,6.6,22.8L470.5,652.9L470.5,652.9z"/>
		<path fill="#FFFFFF" d="M554,652.9h-12v-12.6l0,0c-5.4,9.6-14.4,14.4-25.8,14.4c-9.6,0-17.4-3.6-22.8-10.2
			c-5.4-6.6-8.4-16.2-8.4-27.6c0-12.6,3-22.8,9.6-30c6-7.8,14.4-11.4,25.2-11.4c10.2,0,18,4.2,22.8,12l0,0v-46.3h12v111.8H554z
			 M542,618.6v-10.8c0-6-1.8-11.4-6-15.6c-4.2-4.2-9-6-15-6c-7.2,0-13.2,2.4-17.4,7.8c-4.2,5.4-6.6,12.6-6.6,22.2
			c0,8.4,1.8,15.6,6,20.4c4.2,4.8,9.6,7.8,16.2,7.8c6.6,0,12-2.4,16.2-7.2C539.6,632.4,542,626.4,542,618.6z"/>
		<path fill="#FFFFFF" d="M644.2,615c0,12-3.6,21.6-10.2,28.8c-6.6,7.2-16.2,10.8-27.6,10.8c-11.4,0-20.4-3.6-27-10.8
			s-10.2-16.2-10.2-28.2c0-12.6,3.6-22.2,10.2-29.4s16.2-10.8,28.2-10.8c11.4,0,19.8,3.6,26.4,10.8
			C641.2,592.8,644.2,602.4,644.2,615z M631.5,615c0-9.6-2.4-16.8-6.6-21.6c-4.2-4.8-10.2-7.8-18-7.8c-7.8,0-13.8,2.4-18.6,7.8
			c-4.8,5.4-6.6,12.6-6.6,22.2c0,9,2.4,16.2,6.6,21c4.8,4.8,10.8,7.8,18.6,7.8s13.8-2.4,18-7.8C629.7,631.8,631.5,624.6,631.5,615z"
			/>
		<path fill="#FFFFFF" d="M754.1,577.2l-22.8,75.7h-12.6L701.9,594l0,0l-18.6,58.9h-12l-22.8-75.7H661l16.8,61.3h0.6l18.6-61.3h10.8
			l16.8,61.3h0.6l16.8-61.3C742.1,577.2,754.1,577.2,754.1,577.2z"/>
		<path fill="#FFFFFF" d="M805.8,632.4c0,6.6-2.4,12-7.8,16.2c-4.8,4.2-12,6-20.4,6c-7.2,0-13.2-1.8-18.6-4.8v-13.2
			c6,4.8,12.6,7.2,19.8,7.2c9.6,0,14.4-3.6,14.4-10.8c0-3-1.2-5.4-3-7.2c-1.8-1.8-6-4.2-12.6-7.2c-6.6-3-11.4-6-14.4-9
			c-3-3-4.2-7.8-4.2-13.2c0-6,2.4-11.4,7.8-15.6c4.8-4.2,11.4-6,19.2-6c6,0,11.4,1.2,16.2,3.6v12c-4.8-3.6-10.8-5.4-17.4-5.4
			c-4.2,0-7.2,1.2-9.6,3c-2.4,1.8-3.6,4.8-3.6,7.8c0,3.6,1.2,6,3,7.8c1.8,1.8,6,4.2,11.4,6.6c7.2,3,12,6,15,9.6
			C804,623.4,805.8,627.6,805.8,632.4z"/>
		<path fill="#FFFFFF" d="M933.8,652.9H920l-11.4-29.4h-45.1l-10.8,29.4h-13.8l40.3-106.4h12.6L933.8,652.9z M904.4,612l-18.6-49.9
			l0,0l-18,49.9H904.4z"/>
		<path fill="#FFFFFF" d="M1000.5,580.8l-45.1,61.9h44.5v10.2h-62.5v-3.6l45.1-61.9h-40.9v-10.2h58.3v3.6H1000.5z"/>
		<path fill="#FFFFFF" d="M1073.2,652.9h-12v-12l0,0c-4.8,9-12.6,13.8-23.4,13.8c-18,0-27-10.8-27-32.4v-45.1h12v43.3
			c0,16.2,6,24,18.6,24c6,0,10.8-2.4,14.4-6.6c3.6-4.2,5.4-10.2,5.4-16.8v-43.9h12V652.9z"/>
		<path fill="#FFFFFF" d="M1132.1,589.8c-2.4-1.8-5.4-2.4-9-2.4c-5.4,0-9.6,2.4-13.2,7.8c-3.6,4.8-4.8,11.4-4.8,19.8v38.5h-12v-76.3
			h12v15.6l0,0c1.8-5.4,4.2-9.6,7.8-12.6c3.6-3,7.8-4.8,12-4.8c3,0,5.4,0.6,7.2,1.2V589.8z"/>
		<path fill="#FFFFFF" d="M1200,618h-53.5c0,8.4,2.4,15,6.6,19.8c4.2,4.8,10.2,6.6,18,6.6c8.4,0,16.2-3,23.4-8.4v11.4
			c-6.6,4.8-15.6,7.2-26.4,7.2c-10.8,0-19.2-3.6-25.2-10.2c-6-7.2-9-16.8-9-28.8c0-7.2,1.8-14.4,4.8-20.4c3-6,7.2-10.8,12.6-14.4
			c5.4-3.6,11.4-4.8,18-4.8c9.6,0,17.4,3,22.8,9.6c5.4,6.6,8.4,15.6,8.4,27v5.4H1200z M1187.4,607.8c0-7.2-1.8-12.6-4.8-16.2
			c-3-3.6-7.8-6-13.8-6c-5.4,0-10.2,1.8-14.4,6s-6.6,9.6-7.8,16.2H1187.4z"/>
	</g>
</g>
</svg>
