<svg fill="#fff" xmlns="http://www.w3.org/2000/svg" width="1200" height="76.5" viewBox="0 561.8 1200 76.5" enable-background="new 0 561.8 1200 76.5">
    <path d="M6.7 574.6H0V563h33.7c13.9 0 23.4 9.8 23.4 24s-9.8 24.5-23.4 24.5H20.3V637H6.7v-62.4zm24.7 25c7.7 0 12.1-4.9 12.1-12.6s-4.4-12.4-11.8-12.4H20.3v25.2h11.1v-.2zm50.8-25h-6.7V563h33.2c13.7 0 22.9 8.2 22.9 22.2 0 13.4-9.3 18.8-12.4 19.6v.3s2.3 1 3.6 3.9l7.2 14.2c1 2.1 2.8 2.3 5.2 2.3h1.3V637h-7.2c-5.4 0-8-.8-10.3-5.4l-9.5-18.5c-1.5-2.8-3.1-3.3-7-3.3h-7v27.6H81.9v-62.6h.3zm24.4 23c7 0 10.8-4.4 10.8-11.6s-4.1-11.3-10.8-11.3h-11v23.2h11.1v-.3zm84.5-35.8c21.6 0 38.1 16.5 38.1 37.6 0 21.6-16.5 38.6-38.1 38.6S153 621 153 599.4c0-21.2 16.5-37.6 38.1-37.6zm0 63.6c13.4 0 24-11.3 24-26 0-14.2-10.8-25-24-25s-24 10.8-24 25c.1 14.9 10.9 26 24 26zm55.9-14.7h13.7v3.1c0 8.8 4.9 11.6 9.8 11.6s9.5-3.1 9.5-11.1V577c0-1.5-.8-2.3-2.3-2.3h-18V563h26.8c4.9 0 7 2.1 7 7v45.1c0 16.2-11.8 23.2-23.4 23.2-11.6 0-23.2-7.2-23.2-23.2v-4.4h.1zm76.8-36.1h-6.7V563h44.6c4.9 0 7 2.1 7 7v11.3h-12.4v-4.4c0-1.5-.8-2.3-2.3-2.3h-16.5v19.3h24v11.6h-24V623c0 1.5.8 2.3 2.3 2.3h17c1.5 0 2.3-.8 2.3-2.3v-4.4h12.4V630c0 4.9-2.1 7-7 7H331c-4.9 0-7-2.1-7-7v-55.4h-.2zm103-12.8c9.5 0 28.1 3.9 28.1 16.5v8.2h-12.4v-4.1c0-5.4-8.8-8-15.2-8-13.1 0-23.7 9.5-23.7 25 0 14.4 10.6 26 24 26 13.9 0 22.4-9.8 22.4-9.8l7.2 9.8S446.4 638 427.3 638c-22.7 0-37.9-17-37.9-38.9 0-21.1 16-37.3 37.4-37.3zm72.9 12.8h-11.3c-1.5 0-2.3.8-2.3 2.3v4.4h-11.8v-11.6c0-4.9 1.5-6.7 6.7-6.7h51.5c4.9 0 6.7 1.8 6.7 6.7v11.6h-11.8v-4.4c0-1.5-.8-2.3-2.3-2.3h-11.3V637h-13.9v-62.4zm93.2 36.1h13.7v3.1c0 8.8 4.9 11.6 9.8 11.6s9.5-3.1 9.5-11.1V577c0-1.5-.8-2.3-2.3-2.3h-18V563h26.8c4.9 0 7 2.1 7 7v45.1c0 16.2-11.8 23.2-23.4 23.2s-23.2-7.2-23.2-23.2v-4.4h.1zm77-36.1h-6.7V563h44.6c4.9 0 7 2.1 7 7v11.3h-12.4v-4.4c0-1.5-.8-2.3-2.3-2.3h-16.7v19.3h24v11.6h-24V623c0 1.5.8 2.3 2.3 2.3h17c1.5 0 2.3-.8 2.3-2.3v-4.4h12.4V630c0 4.9-2.1 7-7 7h-33.5c-4.9 0-7-2.1-7-7v-55.4zm72.7 2.3c0-1.5-.8-2.3-2.3-2.3h-4.4V563h13.4c4.9 0 7 2.1 7 7v53.1c0 1.5.8 2.3 2.3 2.3h16.2c1.5 0 2.3-.8 2.3-2.3v-4.4h12.4V630c0 4.9-2.1 7-7 7h-33c-4.9 0-7-2.1-7-7v-53.1zm67.2 0c0-1.5-.8-2.3-2.3-2.3h-4.4V563h13.4c4.9 0 7 2.1 7 7v53.1c0 1.5.8 2.3 2.3 2.3H842c1.5 0 2.3-.8 2.3-2.3v-4.4h12.4V630c0 4.9-2.1 7-7 7h-32.5c-4.9 0-7-2.1-7-7v-53.1h-.4zm77 27.6l-17.5-27.6c-1.3-2.1-2.1-2.6-4.4-2.6h-2.1V563h7c4.9 0 7 .8 9.8 5.4l9.8 16.2c2.6 4.4 4.4 8.2 4.4 8.2h.3s1.8-3.9 4.4-8.2l9.8-16.2c2.8-4.6 4.9-5.4 9.8-5.4h7v11.6h-2.3c-2.3 0-2.8.5-4.4 2.6l-17.5 27.6V637h-13.7v-32.5h-.4zm61.8-29.9h-6.7V563h42c4.9 0 7 2.1 7 7v11.3h-12.1v-4.4c0-1.5-.8-2.3-2.3-2.3h-14.2v20.9H986v11.6h-23.7V637h-13.7v-62.4zm60.8 50.8h7.5v-50.7h-7.5V563h27.6v11.6h-7.5v50.7h7.5V637h-27.6v-11.6zm55.1-8.3s7.7 8.8 18 8.8c5.7 0 10.6-3.1 10.6-8.8 0-12.6-34.8-11.6-34.8-34.5 0-11.8 10.3-20.9 24.7-20.9 8.8 0 21.9 4.1 21.9 14.7v7h-12.4v-3.6c0-3.3-4.9-5.7-9.8-5.7-6.2 0-10.8 3.3-10.8 8 0 12.6 34.8 10 34.8 34.3 0 11.8-9 21.6-24.5 21.6-16.2 0-25.5-11.3-25.5-11.3l7.8-9.6zm69-40.2c0-1.5-.8-2.3-2.3-2.3h-4.4V563h13.4c4.9 0 7 2.1 7 7v24.2h32.5V570c0-4.9 2.1-7 7-7h13.4v11.6h-4.4c-1.5 0-2.3.8-2.3 2.3v60h-13.7V606h-32.5v31h-13.7v-60.1z"/>
</svg>
