<svg fill="#fff" xmlns="http://www.w3.org/2000/svg" width="1200" height="323.4" viewBox="0 438.3 1200 323.4" enable-background="new 0 438.3 1200 323.4">
    <path d="M231.5 577H130.2c-2.6 0-5.1 1.7-5.1 5.1v49.4c0 2.6 1.7 5.1 5.1 5.1h39.1v61.3s-8.5 3.4-33.2 3.4c-28.9 0-68.9-10.2-68.9-98.7s41.7-99.6 80.9-99.6c34 0 48.5 6 57.9 8.5 2.6.9 6-1.7 6-4.3l11.1-47.7c0-.9 0-2.6-1.7-3.4-3.4-5.1-26.4-17.9-85.1-17.9C68.9 438.3 0 467.2 0 604.3s79.1 157.4 145.5 157.4c55.3 0 88.5-23.8 88.5-23.8 1.7-.9 1.7-2.6 1.7-3.4V581.3c0-2.6-1.7-4.3-4.2-4.3zm514.9-126.8h-57c-2.6 0-5.1 1.7-5.1 5.1v108.9h-87.7V454.5c0-2.6-1.7-5.1-5.1-5.1h-57c-2.6 0-5.1 1.7-5.1 5.1v296.2c0 2.6 1.7 5.1 5.1 5.1h57c2.6 0 5.1-1.7 5.1-5.1V623.8h88.5v126.8c0 2.6 1.7 5.1 5.1 5.1h57c2.6 0 5.1-1.7 5.1-5.1V454.5c-1.7-2.6-3.4-4.3-5.9-4.3zM301.3 457c-20.4 0-36.6 16.2-36.6 36.6s16.2 36.6 36.6 36.6 36.6-16.2 36.6-36.6-16.2-36.6-36.6-36.6zm28.1 90.2h-57c-2.6 0-5.1 2.6-5.1 5.1V748c0 6 3.4 7.7 8.5 7.7h51.1c6 0 6.8-2.6 6.8-7.7V551.5c.8-2.6-1.8-4.3-4.3-4.3zm637.4 0h-56.2c-2.6 0-5.1 1.7-5.1 5.1v145.5S891 708 870.6 708s-25.5-9.4-25.5-28.9V552.3c0-2.6-1.7-5.1-5.1-5.1h-57c-2.6 0-5.1 1.7-5.1 5.1v136.2c0 58.7 33.2 73.2 78.3 73.2 37.4 0 67.2-20.4 67.2-20.4s1.7 11.1 1.7 11.9c.9 1.7 2.6 2.6 4.3 2.6H966c2.6 0 5.1-1.7 5.1-5.1V551.5c0-1.7-1.7-4.3-4.3-4.3zm154.1-6.8c-32.3 0-53.6 14.5-53.6 14.5V454.5c0-2.6-1.7-5.1-5.1-5.1h-57c-2.6 0-5.1 1.7-5.1 5.1v296.2c0 2.6 1.7 5.1 5.1 5.1h39.1c1.7 0 3.4-.9 4.3-2.6s2.6-13.6 2.6-13.6 23 22.1 67.2 22.1c51.9 0 81.7-26.4 81.7-117.4-.1-92-47.8-103.9-79.2-103.9zm-22.2 166.8c-19.6-.9-33.2-9.4-33.2-9.4v-93.6s12.8-7.7 28.9-9.4c20.4-1.7 40 4.3 40 52.8.1 51.1-8.4 60.5-35.7 59.6zm-600.8-.8c-2.6 0-8.5.9-15.3.9-21.3 0-28.1-9.4-28.1-22.1v-83.4H497c2.6 0 5.1-1.7 5.1-5.1v-46c0-2.6-1.7-5.1-5.1-5.1h-42.6v-56.2c0-1.7-.9-3.4-3.4-3.4h-57.9c-2.6 0-3.4.9-3.4 3.4V549s-28.9 6.8-30.6 7.7c-1.7.9-3.4 2.6-3.4 4.3v36.6c0 2.6 1.7 5.1 5.1 5.1h29.8v87.7c0 64.7 46 71.5 76.6 71.5 14.5 0 30.6-4.3 34-6 1.7-.9 2.6-2.6 2.6-4.3v-40c-.8-2.7-3.4-5.2-5.9-5.2z"/>
</svg>
