<svg xmlns="http://www.w3.org/2000/svg" viewBox="0 0 214.4 43" enable-background="new 0 0 214.4 43">
    <path d="M97 30.2c-.3-.6-.4-1.6-.4-3.1v-3.8c0-3.4-.5-5.7-1.5-7-1-1.3-2.7-2-5.1-2-2.6 0-4.7.7-6.4 2l.5 2.8c1.6-1.1 3.3-1.7 5-1.7 1.4 0 2.5.3 3.1.9.7.6 1 1.7 1 3.4-1.3 0-2.6.2-3.8.4-1.2.2-2.4.5-3.6 1-1.2.5-2.1 1.2-2.8 2.1-.7.9-1 2-1 3.3 0 1.6.5 2.9 1.6 3.9s2.5 1.5 4.2 1.5c2.3 0 4.2-.9 5.8-2.8.4 1 1 1.7 1.6 2.2.6.4 1.7.6 3.3.6h.3l.5-2.8H99c-1.2-.1-1.8-.4-2-.9zm-3.9-1.7c-.6.8-1.3 1.4-2.1 1.8-.8.5-1.7.7-2.6.7-1.9 0-2.9-1-2.9-2.9 0-1.4.6-2.4 1.8-3 1.2-.6 3.2-1 5.9-1.1v4.5zm-19.6-22l-7 13.3-7-13.3h-3.1l-3.6 26.9h3.8L59.1 13l7.4 14 7.3-14 2.5 20.3h3.8L76.7 6.5h-3.2zm36.9 7.7c-2.4 0-4.5.8-6.2 2.4l-.4-2h-2.7v18.8h3.5V19.7c.9-1.6 2.6-2.5 5.1-2.5 1.8 0 3 .5 3.8 1.4.8.9 1.2 2.4 1.2 4.4v10.4h3.5V23c-.1-5.9-2.7-8.8-7.8-8.8zm69.8 19.2h4.9V6.5h-4.9v26.9zm34.2-13.5c0-4.2-1.2-7.5-3.7-10.1-2.5-2.6-5.6-3.9-9.5-3.9-3.9 0-7.1 1.3-9.6 3.9-2.5 2.6-3.7 5.9-3.7 10.1 0 4.2 1.2 7.6 3.7 10.2 2.5 2.6 5.7 3.8 9.6 3.8 3 0 5.6-.8 7.8-2.3l2.6 2.2 2.8-3.4-2.4-2c1.6-2.4 2.4-5.2 2.4-8.5zm-6.5 5.1l-3.4-2.8-2.8 3.4 3.2 2.7c-1.1.6-2.4.9-3.8.9-2.5 0-4.5-.8-5.8-2.5-1.4-1.7-2-3.9-2-6.7 0-2.8.7-5 2-6.7 1.4-1.7 3.3-2.5 5.8-2.5s4.5.8 5.8 2.5c1.4 1.7 2 3.9 2 6.7.1 1.9-.3 3.6-1 5zm-53.1 8.8c-.5-.3-1.1-.6-1.9-.9-.8-.3-1.4-.5-2-.6-.6-.1-1.2-.3-2-.4-2.4-.4-4-.7-4.8-1-.7-.2-1.1-.6-1.1-1s.3-.8.9-1.2c.8.2 1.7.3 2.7.3 2.3 0 4.2-.7 5.5-2.2 1.4-1.5 2.1-3.2 2.1-5.3 0-1.6-.6-3.1-1.7-4.5.7-.2 1.5-.3 2.2-.3h.9l.4-2.3h-.3c-1.7 0-3.2.4-4.6 1.1-1.5-.9-3.1-1.4-4.8-1.4-2.4 0-4.3.7-5.6 2.2-1.4 1.4-2 3.2-2 5.4 0 2.5 1.1 4.6 3.3 6.2-.8.4-1.4.8-1.7 1.4-.3.5-.5 1-.5 1.4 0 1 .6 1.8 1.9 2.4-2.2.8-3.3 2.2-3.3 4.2 0 1.5.7 2.8 2.1 4 1.5 1.2 3.7 1.7 6.6 1.7 2.9 0 5.2-.6 6.9-1.8 1.7-1.2 2.5-2.5 2.5-4.2 0-.7-.2-1.3-.5-1.9-.2-.5-.7-1-1.2-1.3zm-11.5-15.6c.8-.9 1.9-1.3 3.3-1.3s2.4.4 3.3 1.2c.8.8 1.3 1.9 1.3 3.3s-.4 2.6-1.2 3.5c-.8.9-1.9 1.4-3.2 1.4-1.3 0-2.4-.4-3.3-1.3-.8-.9-1.2-2-1.2-3.5-.2-1.3.2-2.4 1-3.3zm8.3 21.2c-1 .6-2.4.9-4.3.9-1.8 0-3.1-.3-4.1-.9-1-.6-1.5-1.3-1.5-2.2 0-.7.3-1.3.8-2 .6-.6 1.3-1.1 2.2-1.3 1.8.3 3 .5 3.4.5 3.4.6 5 1.6 5 2.9.1.8-.4 1.5-1.5 2.1zm14.1-25.2c-2.8 0-5.1.9-6.7 2.8-1.7 1.8-2.5 4.1-2.5 6.9 0 2.8.9 5.2 2.7 7.1 1.8 1.9 4.3 2.8 7.5 2.8 2 0 4.1-.5 6.3-1.5l-.5-2.7c-1.6.7-3.4 1.1-5.4 1.1-4.3 0-6.6-2.2-7.1-6.7h13.6c.1-.6.2-1.2.2-1.8 0-2.5-.8-4.4-2.3-5.8-1.5-1.5-3.4-2.2-5.8-2.2zm-5.4 7.4c.7-2.9 2.5-4.3 5.3-4.3 1.5 0 2.7.4 3.5 1.2.8.8 1.2 1.8 1.2 3.2h-10zm-24.8 8.6c-.3-.6-.4-1.6-.4-3.1v-3.8c0-3.4-.5-5.7-1.5-7-1-1.3-2.7-2-5.1-2-2.6 0-4.7.7-6.4 2l.5 2.8c1.6-1.1 3.3-1.7 5-1.7 1.4 0 2.5.3 3.1.9.7.6 1 1.7 1 3.4-1.3 0-2.6.2-3.8.4-1.2.2-2.4.5-3.6 1-1.2.5-2.1 1.2-2.8 2.1-.7.9-1 2-1 3.3 0 1.6.5 2.9 1.6 3.9s2.5 1.5 4.2 1.5c2.3 0 4.2-.9 5.8-2.8.4 1 1 1.7 1.6 2.2.6.4 1.7.6 3.3.6h.3l.5-2.8h-.3c-1.2-.1-1.8-.4-2-.9zm-3.9-1.7c-.6.8-1.3 1.4-2.1 1.8-.8.5-1.7.7-2.6.7-1.9 0-2.9-1-2.9-2.9 0-1.4.6-2.4 1.8-3 1.2-.6 3.2-1 5.9-1.1v4.5zm-93.5-9.9C38.1 8.5 30 .3 19.9 0h-.5C9.2 0 .9 8.3.9 18.6c0 3.9 1.2 7.5 3.2 10.4L0 33.1l5.2 5.2 4.1-4.1c2.9 1.9 6.4 3 10.1 3 3.7 0 7.2-1.1 10.1-3l3.9 3.9 5.2-5.2-3.8-3.8c2.1-3 3.3-6.6 3.3-10.5zM19.5 31.1c-2 0-3.9-.5-5.6-1.4l4-4-5.2-5.2-.3.3-3.8 3.8c-1-1.8-1.5-3.8-1.5-6 0-6.9 5.6-12.5 12.4-12.5 6.9 0 12.4 5.6 12.4 12.5s-5.6 12.5-12.4 12.5zm0-16c-2 0-3.6 1.6-3.6 3.6s1.6 3.6 3.6 3.6 3.6-1.6 3.6-3.6c-.1-2.1-1.7-3.6-3.6-3.6z"/>
</svg>
