<?xml version="1.0" encoding="utf-8"?>
<!-- Generator: Adobe Illustrator 18.1.1, SVG Export Plug-In . SVG Version: 6.00 Build 0)  -->
<svg version="1.1" id="Layer_1" xmlns="http://www.w3.org/2000/svg" xmlns:xlink="http://www.w3.org/1999/xlink" x="0px" y="0px"
	 viewBox="0 0 199.7 29.4" enable-background="new 0 0 199.7 29.4" xml:space="preserve">
<g>
	<g>
		<polygon fill="#FFFFFF" points="13,14.5 29.4,14.5 29.4,0 13,2.3 		"/>
		<polygon fill="#FFFFFF" points="12.5,14.5 12.5,2.4 0,4.1 0,14.5 		"/>
		<polygon fill="#FFFFFF" points="13,14.9 13,27.1 29.4,29.4 29.4,14.9 		"/>
		<polygon fill="#FFFFFF" points="12.5,14.9 0,14.9 0,25.3 12.5,27 		"/>
	</g>
	<g>
		<path fill="#FFFFFF" d="M61.1,5.9l-5,17.7h-2.4l-3.9-14h0l-4,14h-2.4L38.2,5.9h2.3l4.1,14.7h0.1l4.3-14.7h2l4,14.8h0l3.9-14.8
			H61.1z"/>
		<path fill="#FFFFFF" d="M64.8,23.5h-2V10.9h2V23.5z"/>
		<path fill="#FFFFFF" d="M78.3,23.5h-2v-7.2c0-2.7-1-4-2.9-4c-1,0-1.8,0.4-2.5,1.1c-0.7,0.8-1,1.7-1,2.9v7.2h-2V10.9h2V13h0
			c0.9-1.6,2.3-2.4,4.1-2.4c1.4,0,2.4,0.5,3.2,1.4c0.7,0.9,1.1,2.2,1.1,3.8V23.5z"/>
		<path fill="#FFFFFF" d="M92.2,23.5h-2v-2.1h0c-0.9,1.6-2.4,2.4-4.3,2.4c-1.6,0-2.9-0.6-3.8-1.7c-0.9-1.1-1.4-2.7-1.4-4.6
			c0-2.1,0.5-3.8,1.6-5c1-1.3,2.4-1.9,4.2-1.9c1.7,0,3,0.7,3.8,2h0V4.9h2V23.5z M90.2,17.8V16c0-1-0.3-1.9-1-2.6
			c-0.7-0.7-1.5-1-2.5-1c-1.2,0-2.2,0.4-2.9,1.3c-0.7,0.9-1.1,2.1-1.1,3.7c0,1.4,0.3,2.6,1,3.4c0.7,0.8,1.6,1.3,2.7,1.3
			c1.1,0,2-0.4,2.7-1.2C89.8,20.1,90.2,19.1,90.2,17.8z"/>
		<path fill="#FFFFFF" d="M107.2,17.2c0,2-0.6,3.6-1.7,4.8c-1.1,1.2-2.7,1.8-4.6,1.8c-1.9,0-3.4-0.6-4.5-1.8
			c-1.1-1.2-1.7-2.7-1.7-4.7c0-2.1,0.6-3.7,1.7-4.9c1.1-1.2,2.7-1.8,4.7-1.8c1.9,0,3.3,0.6,4.4,1.8
			C106.7,13.5,107.2,15.1,107.2,17.2z M105.1,17.2c0-1.6-0.4-2.8-1.1-3.6c-0.7-0.8-1.7-1.3-3-1.3c-1.3,0-2.3,0.4-3.1,1.3
			c-0.8,0.9-1.1,2.1-1.1,3.7c0,1.5,0.4,2.7,1.1,3.5c0.8,0.8,1.8,1.3,3.1,1.3c1.3,0,2.3-0.4,3-1.3C104.8,20,105.1,18.8,105.1,17.2z"
			/>
		<path fill="#FFFFFF" d="M125.5,10.9l-3.8,12.6h-2.1l-2.8-9.8h0l-3.1,9.8h-2l-3.8-12.6h2.1l2.8,10.2h0.1l3.1-10.2h1.8l2.8,10.2h0.1
			l2.8-10.2H125.5z"/>
		<path fill="#FFFFFF" d="M134.1,20.1c0,1.1-0.4,2-1.3,2.7c-0.8,0.7-2,1-3.4,1c-1.2,0-2.2-0.3-3.1-0.8v-2.2c1,0.8,2.1,1.2,3.3,1.2
			c1.6,0,2.4-0.6,2.4-1.8c0-0.5-0.2-0.9-0.5-1.2c-0.3-0.3-1-0.7-2.1-1.2c-1.1-0.5-1.9-1-2.4-1.5c-0.5-0.5-0.7-1.3-0.7-2.2
			c0-1,0.4-1.9,1.3-2.6c0.8-0.7,1.9-1,3.2-1c1,0,1.9,0.2,2.7,0.6v2c-0.8-0.6-1.8-0.9-2.9-0.9c-0.7,0-1.2,0.2-1.6,0.5
			c-0.4,0.3-0.6,0.8-0.6,1.3c0,0.6,0.2,1,0.5,1.3c0.3,0.3,1,0.7,1.9,1.1c1.2,0.5,2,1,2.5,1.6C133.8,18.6,134.1,19.3,134.1,20.1z"/>
		<path fill="#FFFFFF" d="M155.4,23.5h-2.3l-1.9-4.9h-7.5l-1.8,4.9h-2.3l6.7-17.7h2.1L155.4,23.5z M150.5,16.7l-3.1-8.3h0l-3,8.3
			H150.5z"/>
		<path fill="#FFFFFF" d="M166.5,11.5L159,21.8h7.4v1.7H156v-0.6l7.5-10.3h-6.8v-1.7h9.7V11.5z"/>
		<path fill="#FFFFFF" d="M178.6,23.5h-2v-2h0c-0.8,1.5-2.1,2.3-3.9,2.3c-3,0-4.5-1.8-4.5-5.4v-7.5h2v7.2c0,2.7,1,4,3.1,4
			c1,0,1.8-0.4,2.4-1.1c0.6-0.7,0.9-1.7,0.9-2.8v-7.3h2V23.5z"/>
		<path fill="#FFFFFF" d="M188.4,13c-0.4-0.3-0.9-0.4-1.5-0.4c-0.9,0-1.6,0.4-2.2,1.3c-0.6,0.8-0.8,1.9-0.8,3.3v6.4h-2V10.9h2v2.6h0
			c0.3-0.9,0.7-1.6,1.3-2.1c0.6-0.5,1.3-0.8,2-0.8c0.5,0,0.9,0.1,1.2,0.2V13z"/>
		<path fill="#FFFFFF" d="M199.7,17.7h-8.9c0,1.4,0.4,2.5,1.1,3.3c0.7,0.8,1.7,1.1,3,1.1c1.4,0,2.7-0.5,3.9-1.4v1.9
			c-1.1,0.8-2.6,1.2-4.4,1.2c-1.8,0-3.2-0.6-4.2-1.7c-1-1.2-1.5-2.8-1.5-4.8c0-1.2,0.3-2.4,0.8-3.4c0.5-1,1.2-1.8,2.1-2.4
			c0.9-0.6,1.9-0.8,3-0.8c1.6,0,2.9,0.5,3.8,1.6c0.9,1.1,1.4,2.6,1.4,4.5V17.7z M197.6,16c0-1.2-0.3-2.1-0.8-2.7
			c-0.5-0.6-1.3-1-2.3-1c-0.9,0-1.7,0.3-2.4,1c-0.7,0.7-1.1,1.6-1.3,2.7H197.6z"/>
	</g>
</g>
</svg>
