<svg fill="#fff" xmlns="http://www.w3.org/2000/svg" width="1200.2" height="1172.5" viewBox="-0.2 13.8 1200.2 1172.5" enable-background="new -0.2 13.8 1200.2 1172.5">
    <path d="M372.5 777c-131.2 0-241.4-40.6-308.2-114-48.5-53.8-70.8-120.7-63-192.8C21 269.5 179.7 74.1 364.6 25.6c31.5-7.9 65.6-11.8 99.7-11.8 166.6 0 341 91.8 432.8 228.2 47.2 69.5 56.4 153.4 26.2 233.4-47.2 127.2-187.5 230.8-372.5 279.3-60.3 14.5-120.6 22.3-178.3 22.3zm93.1-654.4c-26.2 0-49.8 2.6-73.4 9.2-140.3 36.7-267.5 192.8-282 348.9-3.9 42 7.9 78.7 35.4 108.9 66.9 74.8 219 98.4 379 59 148.2-38 262.3-119.3 297.7-212.5 18.4-47.2 13.1-93.1-14.4-133.8-73.5-107.5-211.2-179.7-342.3-179.7zm-217.7 935.1l-3.9-52.5c40.7-2.6 70.8-17 93.1-43.3 44.6-55.1 34.1-143 34.1-143l52.5-6.6c0 3.9 13.1 111.5-45.9 183.6-31.6 36.9-74.8 57.9-129.9 61.8z"/>
    <circle cx="160" cy="1024.9" r="111.5"/>
    <path d="M935.1 854.4c-13.1 0-24.9-1.3-38-3.9-90.5-22.3-144.3-114.1-146.9-118l45.9-26.2-22.3 13.1 22.3-13.1c0 1.3 45.9 77.4 114.1 93.1 32.8 7.9 65.6 1.3 99.7-22.3l28.9 44.6c-34.2 20.9-68.3 32.7-103.7 32.7z"/>
    <circle cx="1088.5" cy="741.6" r="111.5"/>
    <path d="M636.1 1030.2l-52.5-5.2c11.8-110.2-32.8-212.5-32.8-213.8l48.5-21c2.7 3.9 51.2 116.7 36.8 240z"/>
    <circle cx="636.1" cy="1074.8" r="111.5"/>
</svg>
