<svg fill="#fff" xmlns="http://www.w3.org/2000/svg" width="1200" height="127.7" viewBox="0 536.1 1200 127.7" enable-background="new 0 536.1 1200 127.7">
    <path d="M43.3 592.9v-.2c9.4-2.1 15.2-9.2 15.2-18.5 0-6.8-3.3-12.5-9-16.4-5.9-3.7-11.1-3.9-17.7-3.9H0v82.9h31.6c8 0 14.6-.4 21.3-5.3 5.9-4.3 8.2-10.5 8.2-17.6.1-10.7-7.1-18.9-17.8-21zm-33-31.2h19.5c4.3 0 8.2 0 11.9 2.1 4.3 2.5 6.4 6.4 6.4 11.5 0 4.1-2 8.6-5.5 11.1-4.5 3.3-10.3 3.1-15.6 3.1H10.3v-27.8zm34.9 63.4c-3.7 2.9-9 3.5-13.8 3.5H10.3v-31.4h19.5c4.9 0 10.3 0 14.4 3.1s6.2 8.2 6.2 13.3c.1 4.4-1.6 8.7-5.2 11.5zm54.8-51.3c-19.1 0-29.3 14.8-29.3 31.8 0 16.2 8.6 32.4 27.7 32.4 19.3 0 29.6-15.2 29.6-32.2-.1-16.4-9.2-32-28-32zm14.1 47.6c-3.1 5.7-8.2 9-14.8 9-5.9 0-11.3-3.1-14-7.8-2.7-4.9-3.7-11.3-3.7-17 0-5.1.8-10.9 3.1-15.4 2.7-5.5 8.4-8.8 14.6-8.8 5.7 0 10.9 2.7 13.8 7.4 3.3 5.1 4.1 11.1 4.1 17 0 5-.4 10.7-3.1 15.6zm52.6-47.6c-19.1 0-29.3 14.8-29.3 31.8 0 16.2 8.6 32.4 27.7 32.4 19.3 0 29.6-15.2 29.6-32.2-.1-16.4-9.2-32-28-32zm14.1 47.6c-3.1 5.7-8.2 9-14.8 9-5.9 0-11.3-3.1-14-7.8-2.7-4.9-3.7-11.3-3.7-17 0-5.1.8-10.9 3.1-15.4 2.7-5.5 8.4-8.8 14.6-8.8 5.7 0 10.9 2.7 13.8 7.4 3.3 5.1 4.1 11.1 4.1 17 0 5-.4 10.7-3.1 15.6zm22.6-38.7h31.2l-33.9 46.4v7.4h47v-7.4h-35.1l35.1-48.8V575h-44.3v7.7zm100.1 81.2h8V536.1h-8v127.8zm85.4-110L361 636.8h9l7.6-24.2h32l8.6 24.2h10.3l-27.9-82.9h-11.7zm-8.2 50.7l13.3-39.8 13.3 39.8h-26.6zm139.4-30.8c-19.1 0-29.4 15.4-29.4 32.2 0 17.2 9.9 32 29.3 32 12.1 0 23.4-6.8 27.1-17.9l-9-1.6c-2.7 7.2-9 11.9-17.4 11.9-6.6 0-13.8-3.7-16.8-9.6-2.3-4.7-2.7-9-2.7-13.8H548c.4-17.4-8-33.2-27.9-33.2zm-18.3 25.9c.4-9.6 7.8-18.7 18.3-18.7 11.3 0 17.7 8.6 17.6 18.7h-35.9zm89.7-25.9c-8.8 0-16.4 5.1-19.9 12.1h-.2v-10.5H562v61.4h9.8v-32.2c0-6.2.8-11.7 5.1-16.6 3.3-3.9 8-6.2 13.3-6.2 4.1 0 8.8 2.1 10.9 5.5 2 3.1 1.8 7.8 1.8 11.3v37.8h9.8v-33.7c0-6 .2-14.2-2.9-19.5-4.2-6.3-10.7-9.4-18.3-9.4zm605.6 9.5c-4.1-6.4-10.3-9.6-18.1-9.6-8.8 0-16.4 5.1-19.9 12.1h-.2v-10.5h-9.4v61.4h9.8v-32.2c0-6.2 1-11.7 5.1-16.6 3.3-3.9 8-6.2 13.3-6.2 4.1 0 8.8 2.1 10.9 5.5 2 3.1 1.8 7.8 1.8 11.3v37.8h9.8v-33.7c-.2-6 .2-14.2-3.1-19.3zm-528.2 80.6h8V536.1h-8v127.8zM788.1 589h-40v-35.1H738v82.9h10.1v-40h40v39.8h10.1v-82.7h-10.1V589zm76.6 10.9c0-7 0-14.8-5.1-20.1-4.7-5.3-12.5-6-19.1-6-11.5 0-25.2 4.1-26.9 16.8l9 1.4c1.8-8.4 9.2-10.9 17.2-10.9 11.1 0 15.8 4.1 15.8 14.8v2.7h-8.2c-7.8 0-17 .4-24 3.7-6.8 2.9-11.5 9.6-11.5 17 0 12.1 10.1 18.5 21.8 18.5 9.9 0 17.6-3.9 21.8-12.7l1.2 11.5h9.6c-1.2-3.9-1.4-8.4-1.4-12.9v-23.8h-.2zm-9.1 9.8c0 10.9-8 20.7-19.9 20.7-8 0-13.8-3.1-13.8-10.7 0-12.7 13.8-14 25.5-14h8v4.1h.2zm93-35.9c-9.6 0-17.4 5.9-20.7 13.7-1.8-7.4-9-13.7-17.9-13.7-8.6 0-16.2 5.7-19.1 12.5h-.2v-10.9h-9v61.4h9.8v-35.1c0-5.1.6-9.9 3.9-14 2.5-3.3 7.2-6 11.5-6s8.4 2.3 10.7 5.9c2 2.9 2.1 7 2.1 10.3v38.8h9.8v-33.2c0-5.9-.2-10.3 3.5-15.2 2.9-3.9 7.4-6.8 12.3-6.8 4.5 0 8.6 2.3 10.7 6.4 2 3.7 1.8 8 1.8 12.1v36.7h9.8v-36.5c0-5.7.2-12.5-2.9-17.6-3.4-5.3-9.7-8.8-16.1-8.8zm36.5-9.4h10.7v-10.5h-10.7v10.5zm.6 72.2h9.8v-61.2h-9.8v61.2zm29.8 0h9.6v-82.7h-9.6v82.7zm-576.9 0h9.6v-82.7h-9.6v82.7zm29.3 0h9.6v-82.7h-9.6v82.7zm589-17.2v-37.1h14.2v-7.4h-14.2v-16.2l-9.8 1v15.2h-11.3v7.4h11.3v35.5c0 12.3 4.1 20.1 18.1 20.1l9.4-.8v-7.4l-7.6.6c-8 0-10.1-3.9-10.1-10.9zm51.8-45.6c-19.1 0-29.3 14.8-29.3 31.8 0 16.2 8.6 32.4 27.7 32.4 19.3 0 29.6-15.2 29.6-32.2-.1-16.4-9.2-32-28-32zm14.1 47.6c-3.1 5.7-8.2 9-14.8 9-5.9 0-11.3-3.1-14-7.8-2.7-4.9-3.7-11.3-3.7-17 0-5.1.8-10.9 3.1-15.4 2.7-5.5 8.4-8.8 14.6-8.8 5.7 0 10.9 2.7 13.8 7.4 3.3 5.1 4.1 11.1 4.1 17 0 5-.6 10.7-3.1 15.6z"/>
</svg>
