<svg xmlns="http://www.w3.org/2000/svg" viewBox="0 0 141 38" enable-background="new 0 0 141 38">
    <path d="M27.2 16.3H15.3c-.3 0-.6.2-.6.6v5.8c0 .3.2.6.6.6h4.6v7.2s-1 .4-3.9.4c-3.4 0-8.1-1.2-8.1-11.6s4.9-11.7 9.5-11.7c4 0 5.7.7 6.8 1 .3.1.7-.2.7-.5l1.3-5.6c0-.1 0-.3-.2-.4-.4-.6-3.1-2.1-10-2.1C8.1 0 0 3.4 0 19.5S9.3 38 17.1 38c6.5 0 10.4-2.8 10.4-2.8.2-.1.2-.3.2-.4v-18c0-.3-.2-.5-.5-.5zM87.7 1.4H81c-.3 0-.6.2-.6.6v12.8H70.1V1.9c0-.3-.2-.6-.6-.6h-6.7c-.3 0-.6.2-.6.6v34.8c0 .3.2.6.6.6h6.7c.3 0 .6-.2.6-.6V21.8h10.4v14.9c0 .3.2.6.6.6h6.7c.3 0 .6-.2.6-.6V1.9c-.2-.3-.4-.5-.7-.5zm-52.3.8c-2.4 0-4.3 1.9-4.3 4.3s1.9 4.3 4.3 4.3 4.3-1.9 4.3-4.3-1.9-4.3-4.3-4.3zm3.3 10.6H32c-.3 0-.6.3-.6.6v23c0 .7.4.9 1 .9h6c.7 0 .8-.3.8-.9V13.3c.1-.3-.2-.5-.5-.5zm74.9 0H107c-.3 0-.6.2-.6.6v17.1s-1.7 1.2-4.1 1.2c-2.4 0-3-1.1-3-3.4V13.4c0-.3-.2-.6-.6-.6H92c-.3 0-.6.2-.6.6v16c0 6.9 3.9 8.6 9.2 8.6 4.4 0 7.9-2.4 7.9-2.4s.2 1.3.2 1.4c.1.2.3.3.5.3h4.3c.3 0 .6-.2.6-.6V13.3c0-.2-.2-.5-.5-.5zm18.1-.8c-3.8 0-6.3 1.7-6.3 1.7V1.9c0-.3-.2-.6-.6-.6h-6.7c-.3 0-.6.2-.6.6v34.8c0 .3.2.6.6.6h4.6c.2 0 .4-.1.5-.3.1-.2.3-1.6.3-1.6s2.7 2.6 7.9 2.6c6.1 0 9.6-3.1 9.6-13.8 0-10.8-5.6-12.2-9.3-12.2zm-2.6 19.6c-2.3-.1-3.9-1.1-3.9-1.1v-11s1.5-.9 3.4-1.1c2.4-.2 4.7.5 4.7 6.2 0 6-1 7.1-4.2 7zm-70.6-.1c-.3 0-1 .1-1.8.1-2.5 0-3.3-1.1-3.3-2.6v-9.8h5c.3 0 .6-.2.6-.6v-5.4c0-.3-.2-.6-.6-.6h-5V6c0-.2-.1-.4-.4-.4h-6.8c-.3 0-.4.1-.4.4v7s-3.4.8-3.6.9c-.2.1-.4.3-.4.5v4.3c0 .3.2.6.6.6h3.5v10.3c0 7.6 5.4 8.4 9 8.4 1.7 0 3.6-.5 4-.7.2-.1.3-.3.3-.5v-4.7c-.1-.3-.4-.6-.7-.6z"/>
</svg>
