<?xml version="1.0" encoding="utf-8"?>
<!-- Generator: Adobe Illustrator 18.1.1, SVG Export Plug-In . SVG Version: 6.00 Build 0)  -->
<svg version="1.1" id="Layer_1" xmlns="http://www.w3.org/2000/svg" xmlns:xlink="http://www.w3.org/1999/xlink" x="0px" y="0px"
	 viewBox="0 0 166.8 47.3" enable-background="new 0 0 166.8 47.3" xml:space="preserve">
<g>
	<path fill="#FFFFFF" d="M52.1,40.9v-1.2h0.5c0.1,0,0.2,0,0.2,0c0.1,0,0.1,0.1,0.1,0.1C53,39.9,53,40,53,40c0,0.1,0,0.2-0.1,0.2
		c-0.1,0.1-0.1,0.1-0.3,0.1c0,0,0.1,0,0.1,0.1c0,0,0.1,0.1,0.1,0.2l0.2,0.3h-0.2l-0.2-0.3c0-0.1-0.1-0.1-0.1-0.2
		c0,0-0.1-0.1-0.1-0.1c0,0,0,0-0.1,0c0,0,0,0-0.1,0h-0.2v0.5H52.1z M52.2,40.2h0.3c0.1,0,0.1,0,0.2,0c0,0,0.1,0,0.1-0.1
		c0,0,0-0.1,0-0.1c0-0.1,0-0.1-0.1-0.1c0,0-0.1-0.1-0.2-0.1h-0.4V40.2z M52.6,39c-0.7,0-1.3,0.6-1.3,1.3c0,0.7,0.6,1.3,1.3,1.3
		c0.7,0,1.3-0.6,1.3-1.3C53.9,39.6,53.3,39,52.6,39L52.6,39z M52.6,39.3c0.6,0,1,0.5,1,1c0,0.6-0.4,1-1,1c-0.6,0-1-0.4-1-1
		C51.6,39.8,52.1,39.3,52.6,39.3L52.6,39.3z M33.5,47.3c0-0.1,1.7-2.6,3.6-5.4c0.7-1,0.9-1.6,1-2.3c0-0.6,0.3-1.7,0.5-2.6
		c0.2-0.8,0.4-1.6,0.3-1.7c-0.1-0.1-0.5,0-1,0.2c-1.1,0.4-1.8,0.4-3.1,0.1c-0.8-0.2-1.1-0.2-1.9,0.1c-0.9,0.3-1,0.3-1.8,0
		c-0.8-0.3-1-0.3-3,0c-3.7,0.7-5,0.3-7.4-2.3c-1.5-1.6-2.1-1.9-2.4-1.5c-0.1,0.1-0.4,0.2-0.6,0.2c-0.4,0-0.7-0.3-1.2-1.1
		c-0.4-0.6-1-1.3-1.3-1.5c-1.8-1.3-3.8-0.4-3.8,1.7c0,0.9,1.7,3.5,2.6,3.9c1.2,0.6,0.5,1.5-0.9,1.3c-0.7-0.1-1.1-0.3-2.1-1.4
		c-1.1-1.2-1.3-1.3-2-1.3c-0.5,0-1.2,0.2-1.7,0.4c-1.2,0.6-2.8,0.9-4.5,0.9H1.2L0.9,34C0.1,31.2,0,30.1,0,26.7c0-2.6,0.1-4,0.4-5.3
		C2,14.1,6,8.2,12.1,4.3c3-1.9,5.8-3.1,9.3-3.8c2.5-0.5,8.1-0.6,10.6,0c8.3,1.8,15.2,7,18.8,14.3c2,4.1,2.8,7.4,2.8,12
		c0,4.5-0.8,7.9-2.7,11.8c-1.4,2.8-1.2,2.7-3.2,2.4c-1.8-0.2-4.2,0-5.7,0.5c-0.7,0.2-0.9,0.4-1,0.9c-0.1,0.5-0.3,0.7-1.4,1.1
		c-0.9,0.4-1.7,0.9-2.7,1.9c-0.8,0.7-1.6,1.5-1.8,1.6C34.6,47.2,33.5,47.4,33.5,47.3L33.5,47.3z M38.6,33.4c4.7-0.7,8-2.7,9.4-5.5
		c1.2-2.5,0.7-4.7-1.4-6.3c-1-0.8-3.6-1.9-4.3-1.9c-0.2,0-0.6,0.4-0.8,0.9c-0.4,0.8-1.6,1.9-2,1.9c-0.1,0,0.1-0.5,0.5-1.2
		c0.4-0.7,0.6-1.5,0.6-2c0-2.1-2.2-8.1-4-10.9c-0.8-1.3-1.2-1.7-2.2-2.2c-1.6-0.9-3.5-1-6-0.3c-1.5,0.4-2.2,0.4-3.6,0.3
		c-5.8-0.4-5.6-0.4-6.5,0.1c-1.2,0.6-1.6,1.4-2.4,4.5c-0.8,3.4-0.8,4.4-0.1,5.3c0.8,0.9,3.2,2,5.6,2.6c2.9,0.7,4.9,1.3,5.4,1.6
		c0.3,0.2,0.6,0.6,0.7,1c0.6,1.6,0.9,2.3,1.3,2.6c0.2,0.2,0.4,0.5,0.4,0.6c0,1.5-11-1.9-13.8-4.3c-1.2-1-1.6-1.8-1.4-3.1l0.1-1.1
		l-2.8,0.1c-2.4,0.1-3,0.2-3.8,0.6c-2.9,1.4-2.8,3.8,0.4,6.8c4.7,4.4,14.3,8.8,21.9,9.9C32.4,33.8,36.2,33.8,38.6,33.4L38.6,33.4
		L38.6,33.4z M18.7,12.9c-0.8-0.8-1-1.2-1-1.7c0-1.1,0.8-1.6,1.4-1c0.9,0.9,1.3,1,3.4,0.9c2.2-0.1,3.5,0.1,3.7,0.7
		c0.2,0.6-0.2,0.7-2,0.9c-2,0.2-3,0.5-3.4,0.9C20.3,14.2,19.8,14,18.7,12.9L18.7,12.9z M30.7,9.5c-1-0.1-1-0.3-0.1-0.6
		c0.8-0.2,1.3-0.9,0.8-1.1c-0.5-0.3-2.1-0.5-2.8-0.3c-0.4,0.1-0.6,0.1-0.5-0.1c0.2-0.4,2.5-0.7,3.8-0.6c1.3,0.1,2.4,0.6,2.6,1.1
		C34.8,8.8,32.8,9.7,30.7,9.5L30.7,9.5z M30,40.8c-0.4-0.2-0.9-0.4-1.2-0.4c-0.6,0-0.9-0.5-0.5-1c0.3-0.4,1.4-0.4,2.1,0
		c0.7,0.4,1.4,0.4,1.8-0.1c0.5-0.6,0.7-0.5,0.7,0.1c0,0.7-1.1,1.8-1.7,1.8C30.9,41.2,30.3,41,30,40.8L30,40.8L30,40.8z M30,40.8"/>
	<path fill="#FFFFFF" d="M165,41.3v-1.2h0.5c0.1,0,0.2,0,0.2,0c0.1,0,0.1,0.1,0.1,0.1c0,0.1,0.1,0.1,0.1,0.2c0,0.1,0,0.2-0.1,0.2
		c-0.1,0.1-0.1,0.1-0.3,0.1c0,0,0.1,0,0.1,0.1c0,0,0.1,0.1,0.1,0.2l0.2,0.3h-0.2l-0.2-0.3c0-0.1-0.1-0.1-0.1-0.2
		c0,0-0.1-0.1-0.1-0.1c0,0,0,0-0.1,0c0,0,0,0-0.1,0h-0.2v0.5H165L165,41.3z M165.2,40.6h0.3c0.1,0,0.1,0,0.2,0c0,0,0.1,0,0.1-0.1
		c0,0,0-0.1,0-0.1c0-0.1,0-0.1-0.1-0.1c0,0-0.1-0.1-0.2-0.1h-0.4V40.6L165.2,40.6z M165.6,39.4c-0.7,0-1.3,0.6-1.3,1.3
		c0,0.7,0.6,1.3,1.3,1.3c0.7,0,1.3-0.6,1.3-1.3C166.8,40,166.3,39.4,165.6,39.4L165.6,39.4z M165.6,39.7c0.6,0,1,0.5,1,1s-0.4,1-1,1
		c-0.6,0-1-0.4-1-1S165,39.7,165.6,39.7L165.6,39.7z M106.9,41.6c1.6-0.3,2.6-0.9,3.7-2l0.9-1l0,2.9l4.3,0l-0.1-25.7l-4.6-1.2
		l-0.2,10l-0.9-0.7c-0.5-0.4-1.4-0.9-2.1-1.1c-4.2-1.2-8.2,1.1-9.9,5.5c-0.6,1.8-0.7,5.8-0.1,7.6c1,3,3.2,5.1,5.8,5.7
		C104.9,41.9,105.6,41.9,106.9,41.6L106.9,41.6L106.9,41.6z M105.5,37.8c-1.1-0.4-1.7-0.9-2.3-2.1c-0.5-1-0.6-1.4-0.7-3.1
		c-0.1-2.3,0.2-3.6,1.3-4.8c1.9-2.4,5.4-2,6.8,0.7c0.6,1.2,0.6,5.8,0,7.1C109.6,37.5,107.4,38.5,105.5,37.8L105.5,37.8L105.5,37.8z
		 M144.1,41.6c1.5-0.3,2.6-0.9,3.6-1.9l0.8-0.8l0.1,1.3l0.1,1.3h0.8h0.8l-0.1-6.3c-0.1-6.4-0.2-8.1-0.9-9.4c-0.5-1-1.6-2-2.5-2.4
		c-1.9-0.8-4.8-0.6-7,0.4c-1.2,0.5-1.2,0.6-0.9,1.5l0.2,0.5l1.2-0.6c1.6-0.7,3.9-0.9,5.3-0.4c1.7,0.7,2.7,2.2,2.7,4.4l0,1H147
		c-3.1,0-6.5,1.1-8,2.5c-1.2,1.2-1.6,2.3-1.6,4c0,2.7,1.4,4.4,4.2,5.1C142.4,41.9,143,41.9,144.1,41.6L144.1,41.6L144.1,41.6z
		 M141.1,39.8c-1.2-0.6-1.6-1.4-1.7-2.9c-0.1-1.7,0.2-2.4,1.3-3.4c1-0.9,3-1.6,5.6-1.7l2-0.1V34c0,2.4,0,2.5-0.7,3.6
		c-1,1.6-2.2,2.4-4.3,2.5C142.2,40.2,141.7,40.1,141.1,39.8L141.1,39.8z M161.1,41.7c0.6-0.1,1.2-0.2,1.2-0.3c0,0,0-0.4-0.1-0.7
		l-0.1-0.7l-1.3,0.1c-1.6,0.2-2.5-0.2-3-1.3c-0.3-0.6-0.3-1.7-0.3-7.5v-6.7h2.6h2.6v-0.7v-0.7h-2.6h-2.6v-1.9c0-1.1-0.1-1.9-0.1-1.9
		c-0.1,0-0.5,0.1-1,0.2l-0.8,0.2v1.7v1.7l-1.5,0.1l-1.5,0.1l-0.1,0.7l-0.1,0.7h1.6h1.6l0.1,7.1c0.1,6.8,0.1,7.1,0.5,7.9
		c0.6,1.1,1.1,1.6,2.2,1.9C159.5,41.9,159.7,41.9,161.1,41.7L161.1,41.7z M93.2,41.1l1.4-0.5l-0.3-1.5c-0.2-0.9-0.3-1.6-0.4-1.6
		c0,0-0.7,0.1-1.4,0.3C91.7,37.9,90.3,38,89,38c-1.9,0-2.3-0.1-3.3-0.6c-1.3-0.7-2.3-1.9-2.5-3.2l-0.1-0.8h6.1h6.1l0-2.4
		c0-2-0.1-2.7-0.5-3.6c-1.4-3.5-4-5.1-7.8-4.9c-3.7,0.2-6.4,2.2-7.8,5.7c-1.3,3.3-0.8,7.8,1.1,10.2c1,1.2,2.5,2.3,4.1,2.8
		C86.4,41.8,91.2,41.7,93.2,41.1L93.2,41.1L93.2,41.1z M83.2,29.8c0-0.7,1-2.5,1.7-3.1c2-1.7,4.6-1.1,5.8,1.1
		c0.2,0.4,0.4,1.2,0.4,1.6v0.8h-3.9C83.5,30.2,83.2,30.1,83.2,29.8L83.2,29.8z M71.9,35.6c0.1-6.2,0.1-6.4,1.4-7.6
		c0.8-0.8,1.6-1,3-1h1.2v-2.3v-2.3l-1.3,0.1c-2,0.2-3.8,1.5-4.6,3.2l-0.3,0.6l0-0.8c0-0.4-0.1-1.2-0.1-1.8l-0.1-1h-2h-2l0,18.7
		l4.7,0L71.9,35.6L71.9,35.6L71.9,35.6z M121.7,34.8c0.1-7.2,0.1-7.1,1.7-8.7c1.1-1.1,2.2-1.6,3.8-1.7c1.8-0.1,3.3,0.7,4.2,2.2
		c0.8,1.5,1,3.2,1,9.4l0,5.4h1.7V35c0-5.8,0-6.6-0.4-7.8c-2.4-6.7-9.4-4.5-11.9-1.1l-0.1-8.7l-1.8-0.4v24.5l1.8,0L121.7,34.8
		L121.7,34.8L121.7,34.8z M121.7,34.8"/>
</g>
</svg>
