<?xml version="1.0" encoding="utf-8"?>
<!-- Generator: Adobe Illustrator 18.1.1, SVG Export Plug-In . SVG Version: 6.00 Build 0)  -->
<svg version="1.1" id="Layer_1" xmlns="http://www.w3.org/2000/svg" xmlns:xlink="http://www.w3.org/1999/xlink" x="0px" y="0px"
	 width="1200.2px" height="1172.5px" viewBox="-0.2 13.8 1200.2 1172.5" enable-background="new -0.2 13.8 1200.2 1172.5"
	 xml:space="preserve">
<g>
	<path d="M372.5,777C241.3,777,131.1,736.4,64.3,663c-48.5-53.8-70.8-120.7-63-192.8C21,269.5,179.7,74.1,364.6,25.6
		c31.5-7.9,65.6-11.8,99.7-11.8c166.6,0,341,91.8,432.8,228.2c47.2,69.5,56.4,153.4,26.2,233.4c-47.2,127.2-187.5,230.8-372.5,279.3
		C490.5,769.2,430.2,777,372.5,777L372.5,777z M465.6,122.6c-26.2,0-49.8,2.6-73.4,9.2c-140.3,36.7-267.5,192.8-282,348.9
		c-3.9,42,7.9,78.7,35.4,108.9c66.9,74.8,219,98.4,379,59c148.2-38,262.3-119.3,297.7-212.5c18.4-47.2,13.1-93.1-14.4-133.8
		C734.4,194.8,596.7,122.6,465.6,122.6L465.6,122.6z M247.9,1057.7l-3.9-52.5c40.7-2.6,70.8-17,93.1-43.3
		c44.6-55.1,34.1-143,34.1-143l52.5-6.6c0,3.9,13.1,111.5-45.9,183.6C346.2,1032.8,303,1053.8,247.9,1057.7L247.9,1057.7z"/>
	<circle cx="160" cy="1024.9" r="111.5"/>
	<path d="M935.1,854.4c-13.1,0-24.9-1.3-38-3.9c-90.5-22.3-144.3-114.1-146.9-118l45.9-26.2l-22.3,13.1l22.3-13.1
		c0,1.3,45.9,77.4,114.1,93.1c32.8,7.9,65.6,1.3,99.7-22.3l28.9,44.6C1004.6,842.6,970.5,854.4,935.1,854.4L935.1,854.4z"/>
	<circle cx="1088.5" cy="741.6" r="111.5"/>
	<path d="M636.1,1030.2l-52.5-5.2c11.8-110.2-32.8-212.5-32.8-213.8l48.5-21C602,794.1,650.5,906.9,636.1,1030.2z"/>
	<circle cx="636.1" cy="1074.8" r="111.5"/>
</g>
</svg>
