<svg xmlns="http://www.w3.org/2000/svg" viewBox="0 0 465.9 29.7" enable-background="new 0 0 465.9 29.7">
  <path d="M2.6 5H0V.5h13.1c5.4 0 9.1 3.8 9.1 9.3s-3.8 9.5-9.1 9.5H7.9v9.9H2.6V5zm9.6 9.7c3 0 4.7-1.9 4.7-4.9 0-3-1.7-4.8-4.6-4.8H7.9v9.8h4.3zM31.9 5h-2.6V.5h12.9c5.3 0 8.9 3.2 8.9 8.6 0 5.2-3.6 7.3-4.8 7.6v.1s.9.4 1.4 1.5l2.8 5.5c.4.8 1.1.9 2 .9h.5v4.5h-2.8c-2.1 0-3.1-.3-4-2.1l-3.7-7.2c-.6-1.1-1.2-1.3-2.7-1.3h-2.7v10.7h-5.3V5zm9.5 8.9c2.7 0 4.2-1.7 4.2-4.5S44 5 41.4 5h-4.3v9h4.3zM74.2 0C82.6 0 89 6.4 89 14.6c0 8.4-6.4 15-14.8 15s-14.8-6.6-14.8-15C59.4 6.4 65.8 0 74.2 0zm0 24.7c5.2 0 9.3-4.4 9.3-10.1 0-5.5-4.2-9.7-9.3-9.7s-9.3 4.2-9.3 9.7c0 5.8 4.2 10.1 9.3 10.1zM95.9 19h5.3v1.2c0 3.4 1.9 4.5 3.8 4.5s3.7-1.2 3.7-4.3V5.9c0-.6-.3-.9-.9-.9h-7V.5h10.4c1.9 0 2.7.8 2.7 2.7v17.5c0 6.3-4.6 9-9.1 9s-9-2.8-9-9V19zM125.7 5h-2.6V.5h17.3c1.9 0 2.7.8 2.7 2.7v4.4h-4.8V5.9c0-.6-.3-.9-.9-.9H131v7.5h9.3V17H131v6.8c0 .6.3.9.9.9h6.6c.6 0 .9-.3.9-.9v-1.7h4.8v4.4c0 1.9-.8 2.7-2.7 2.7h-13c-1.9 0-2.7-.8-2.7-2.7V5zM165.7 0c3.7 0 10.9 1.5 10.9 6.4v3.2h-4.8V8c0-2.1-3.4-3.1-5.9-3.1-5.1 0-9.2 3.7-9.2 9.7 0 5.6 4.1 10.1 9.3 10.1 5.4 0 8.7-3.8 8.7-3.8l2.8 3.8s-4.2 4.9-11.6 4.9c-8.8 0-14.7-6.6-14.7-15.1 0-8.2 6.2-14.5 14.5-14.5zM194 5h-4.4c-.6 0-.9.3-.9.9v1.7h-4.6V3.1c0-1.9.6-2.6 2.6-2.6h20c1.9 0 2.6.7 2.6 2.6v4.5h-4.6V5.9c0-.6-.3-.9-.9-.9h-4.4v24.2H194V5zM230.2 19h5.3v1.2c0 3.4 1.9 4.5 3.8 4.5s3.7-1.2 3.7-4.3V5.9c0-.6-.3-.9-.9-.9h-7V.5h10.4c1.9 0 2.7.8 2.7 2.7v17.5c0 6.3-4.6 9-9.1 9s-9-2.8-9-9V19zM260.1 5h-2.6V.5h17.3c1.9 0 2.7.8 2.7 2.7v4.4h-4.8V5.9c0-.6-.3-.9-.9-.9h-6.5v7.5h9.3V17h-9.3v6.8c0 .6.3.9.9.9h6.6c.6 0 .9-.3.9-.9v-1.7h4.8v4.4c0 1.9-.8 2.7-2.7 2.7h-13c-1.9 0-2.7-.8-2.7-2.7V5zM288.3 5.9c0-.6-.3-.9-.9-.9h-1.7V.5h5.2c1.9 0 2.7.8 2.7 2.7v20.6c0 .6.3.9.9.9h6.3c.6 0 .9-.3.9-.9v-1.7h4.8v4.4c0 1.9-.8 2.7-2.7 2.7H291c-1.9 0-2.7-.8-2.7-2.7V5.9zM314.4 5.9c0-.6-.3-.9-.9-.9h-1.7V.5h5.2c1.9 0 2.7.8 2.7 2.7v20.6c0 .6.3.9.9.9h6.3c.6 0 .9-.3.9-.9v-1.7h4.8v4.4c0 1.9-.8 2.7-2.7 2.7h-12.6c-1.9 0-2.7-.8-2.7-2.7V5.9zM344.3 16.6l-6.8-10.7c-.5-.8-.8-1-1.7-1h-.8V.5h2.7c1.9 0 2.7.3 3.8 2.1l3.8 6.3c1 1.7 1.7 3.2 1.7 3.2h.1s.7-1.5 1.7-3.2l3.8-6.3c1.1-1.8 1.9-2.1 3.8-2.1h2.7V5h-.9c-.9 0-1.1.2-1.7 1l-6.8 10.7v12.5h-5.3V16.6zM368.3 5h-2.6V.5H382c1.9 0 2.7.8 2.7 2.7v4.4H380V5.9c0-.6-.3-.9-.9-.9h-5.5v8.1h9.2v4.5h-9.2v11.6h-5.3V5zM391.9 24.7h2.9V5h-2.9V.5h10.7V5h-2.9v19.7h2.9v4.5h-10.7v-4.5zM413.3 21.5s3 3.4 7 3.4c2.2 0 4.1-1.2 4.1-3.4 0-4.9-13.5-4.5-13.5-13.4 0-4.6 4-8.1 9.6-8.1 3.4 0 8.5 1.6 8.5 5.7v2.7h-4.8V7c0-1.3-1.9-2.2-3.8-2.2-2.4 0-4.2 1.3-4.2 3.1 0 4.9 13.5 3.9 13.5 13.3 0 4.6-3.5 8.4-9.5 8.4-6.3 0-9.9-4.4-9.9-4.4l3-3.7zM440.1 5.9c0-.6-.3-.9-.9-.9h-1.7V.5h5.2c1.9 0 2.7.8 2.7 2.7v9.4H458V3.2c0-1.9.8-2.7 2.7-2.7h5.2V5h-1.7c-.6 0-.9.3-.9.9v23.3H458v-12h-12.6v12h-5.3V5.9z"/>
</svg>
