<?xml version="1.0" encoding="utf-8"?>
<!-- Generator: Adobe Illustrator 18.1.1, SVG Export Plug-In . SVG Version: 6.00 Build 0)  -->
<svg version="1.1" id="Layer_1" xmlns="http://www.w3.org/2000/svg" xmlns:xlink="http://www.w3.org/1999/xlink" x="0px" y="0px"
	 width="1200px" height="304.2px" viewBox="0 447.9 1200 304.2" enable-background="new 0 447.9 1200 304.2" xml:space="preserve">
<path d="M428,621.5c-31.6,0-53.2-26.9-53.2-59.2c0-32.3,22.2-58.6,53.2-58.6c18.2,0,32.3,7.4,46.4,21.5l25.6-30.3
	c-16.8-16.8-37.7-28.9-72-28.9c-55.9,0-94.9,43.1-94.9,96.9v-0.7c0,54.5,40.4,96.9,93.6,96.9c35,0,56.5-12.8,75.4-34.3l-25.6-26.2
	C461.7,612.8,448.9,621.5,428,621.5L428,621.5z M687.8,655.9V468.1h-40.4v74h-73.4v-74h-40.4v187.8h40.4v-75.4h73.4v75.4H687.8
	L687.8,655.9z M876.3,619.5h-99.6v-39.7h85.5v-36.3h-85.5v-38.4h97.6v-37h-138v187.8h139.3v-36.3H876.3z M916.7,655.9H957v-72.7
	h87.5v-37.7H957v-39.7h99.6v-37.7H917.3v187.8H916.7z M234.9,618.2h-25.6c-7.4,28.3-32.3,48.5-62.6,48.5c-37,0-66-30.3-66-68
	s28.9-67.3,66-67.3c30.3,0,54.5,20.2,62.6,48.5h25.6c-8.7-42.4-44.4-74-88.2-74c-50.5,0-90.9,41.7-90.9,92.9
	c0,51.8,40.4,93.6,90.9,93.6C190.5,691.5,226.1,660.6,234.9,618.2L234.9,618.2z M101.6,644.4c11.4,12.1,26.2,19.5,44.4,19.5V637
	c-10.1,0-19.5-4-26.2-10.8C119.8,626.2,101.6,644.4,101.6,644.4z M146.7,534c-35,0-63.3,28.9-63.3,64.6c0,9.4,2.7,18.8,5.4,26.2
	l24.9-10.8c-2.7-4-3.4-9.4-3.4-15.5c0-20.2,16.2-37.7,37-37.7V534H146.7z M168.9,538.1l-9.4,25.6c7.4,3.4,14.8,9.4,18.8,16.2h28.3
	C200.6,561,186.4,545.5,168.9,538.1L168.9,538.1z M159.5,633.7l9.4,24.9c18.2-6.7,31.6-22.2,37.7-41.1h-28.3
	C173.6,624.9,166.9,630.3,159.5,633.7L159.5,633.7z M28.9,630.3c-0.7-2-0.7-2.7-2-4v-0.7c0-0.7,0-2.7-0.7-3.4v-4.7
	c-0.7-0.7-0.7-2-0.7-2.7c-0.7-5.4-0.7-10.8-0.7-16.8H0c0,6.7,0,12.8,0.7,18.8c0,2,0.7,3.4,0.7,5.4v0.7c0,2,0.7,3.4,0.7,4
	s0,2,0.7,2.7v2.7c0.7,0.7,0.7,2,0.7,3.4c0,0,0.7,0.7,0.7,2c0,2,0,2.7,0.7,3.4v2c2,6.1,4,10.8,6.1,16.8l22.9-10.1
	c-2-5.4-3.4-9.4-5.4-14.1C28.9,633,28.9,632.3,28.9,630.3L28.9,630.3z M146.7,723.8c-33.7,0-63.9-14.1-86.8-37.7L43.1,705
	c26.2,26.9,62.6,44.4,103.6,44.4c74.7,0,135.3-57.9,144.7-131.9h-24.9C257.1,677.4,206.6,723.8,146.7,723.8z M146.7,473.5
	c26.2,0,52.5,9.4,72,24.9l15.5-20.2c-24.9-19.5-55.2-30.3-87.5-30.3c-62.6,0-115.8,39.7-136.6,96.2l23.6,9.4
	C50.5,506.4,94.9,473.5,146.7,473.5z M249,532c8.7,14.1,14.8,30.3,16.8,47.8h24.9c-2.7-22.2-10.1-42.4-21.5-61.2L249,532z
	 M189.1,485.6l-9.4,23.6c30.3,10.8,51.1,38.4,58.6,70.7h24.9C256.4,536.1,228.2,500.4,189.1,485.6L189.1,485.6z M146.7,502.4v-25.6
	c-50.5,0-93.6,32.3-110.4,77.4l22.9,9.4C72.7,528,106.3,502.4,146.7,502.4z M101.6,712.4l9.4-23.6c-34.3-14.1-59.2-49.1-59.2-90.2
	H27.6C27.6,649.8,58.6,693.6,101.6,712.4z M263.2,618.2h-24.9c-8.7,44.4-46.4,77.4-91.5,77.4v25.6
	C205.3,720.5,254.4,675.4,263.2,618.2z M384.3,715.8c-12.1-2.7-14.8-4-14.8-9.4c0-4,3.4-7.4,9.4-7.4s11.4,2.7,16.2,6.7l6.1-8.7
	c-6.1-5.4-12.8-7.4-21.5-7.4c-12.1,0-20.9,7.4-20.9,18.2s6.7,15.5,19.5,18.8c11.4,2.7,13.5,4,13.5,9.4c0,4-4,7.4-11.4,7.4
	c-6.7,0-12.8-3.4-18.2-8.7l-6.7,7.4c7.4,6.7,16.2,10.1,24.9,10.1c12.8,0,21.5-6.7,21.5-18.8C403.1,723.2,396.4,719.1,384.3,715.8
	L384.3,715.8z M472.5,725.2c0,12.1-5.4,16.8-14.8,16.8c-9.4,0-14.8-6.1-14.8-16.8v-35h-11.4v35c0,18.2,10.1,26.9,25.6,26.9
	s24.9-9.4,24.9-26.9v-35h-10.1v35L472.5,725.2z M539.8,690.2h-22.9v61.2H527v-19.5h11.4c12.8,0,24.2-7.4,24.2-21.5
	C562,698.3,553.2,690.2,539.8,690.2z M538.4,721.8h-12.1v-21.5h12.1c7.4,0,12.8,3.4,12.8,10.8C551.9,717.1,546.5,721.8,538.4,721.8
	L538.4,721.8z M590.9,751.4h43.7V742H601v-16.8h30.3v-9.4H601v-16.2h33.7v-9.4h-43.7V751.4L590.9,751.4z M714.1,709.7
	c0-12.1-8.7-19.5-22.2-19.5h-26.2v61.2h10.1v-21.5h13.5l14.8,21.5h12.1l-16.2-22.9C708,725.9,714.1,719.8,714.1,709.7L714.1,709.7z
	 M675.7,720.5v-20.2h15.5c7.4,0,12.1,3.4,12.1,10.1c0,6.1-4,10.1-12.1,10.1H675.7z M774,719.1l-18.2-28.9h-11.4v61.2h10.1v-43.1
	l18.8,28.3l18.8-28.9v44.4h10.1v-61.9h-11.4L774,719.1L774,719.1z M858.1,690.2l-26.2,61.2h11.4l6.1-14.1h27.6l6.1,14.1h11.4
	l-25.6-61.2H858.1L858.1,690.2z M852,726.5l10.1-23.6l10.1,23.6H852z M970.5,709.7c0-12.1-8.7-19.5-22.2-19.5H922v61.2h11.4v-21.5
	h12.8l14.8,21.5h12.1L957,728.5C964.4,725.9,970.5,719.8,970.5,709.7L970.5,709.7z M932.8,720.5v-20.2h14.8
	c7.4,0,12.1,3.4,12.1,10.1c0,6.1-4,10.1-12.1,10.1H932.8z M1052.6,690.2h-12.8l-28.3,30.3v-30.3h-10.1v61.2h10.1v-18.2l9.4-9.4
	l20.9,26.9h12.1l-25.6-35L1052.6,690.2L1052.6,690.2z M1091,725.2h30.3v-9.4H1091v-16.2h33.7v-9.4h-43.7v61.2h44.4V742H1091V725.2
	L1091,725.2z M1152.2,690.2v10.1h18.8v51.1h10.1v-51.1h18.8v-10.1L1152.2,690.2L1152.2,690.2z"/>
</svg>
