<?xml version="1.0" encoding="utf-8"?>
<!-- Generator: Adobe Illustrator 18.1.1, SVG Export Plug-In . SVG Version: 6.00 Build 0)  -->
<svg version="1.1" id="Layer_1" xmlns="http://www.w3.org/2000/svg" xmlns:xlink="http://www.w3.org/1999/xlink" x="0px" y="0px"
	 width="1200px" height="323.4px" viewBox="0 438.3 1200 323.4" enable-background="new 0 438.3 1200 323.4" xml:space="preserve">
<path d="M231.5,577H130.2c-2.6,0-5.1,1.7-5.1,5.1v49.4c0,2.6,1.7,5.1,5.1,5.1h39.1v61.3c0,0-8.5,3.4-33.2,3.4
	c-28.9,0-68.9-10.2-68.9-98.7s41.7-99.6,80.9-99.6c34,0,48.5,6,57.9,8.5c2.6,0.9,6-1.7,6-4.3l11.1-47.7c0-0.9,0-2.6-1.7-3.4
	c-3.4-5.1-26.4-17.9-85.1-17.9C68.9,438.3,0,467.2,0,604.3s79.1,157.4,145.5,157.4c55.3,0,88.5-23.8,88.5-23.8
	c1.7-0.9,1.7-2.6,1.7-3.4V581.3C235.7,578.7,234,577,231.5,577z M746.4,450.2h-57c-2.6,0-5.1,1.7-5.1,5.1v108.9h-87.7V454.5
	c0-2.6-1.7-5.1-5.1-5.1h-57c-2.6,0-5.1,1.7-5.1,5.1v296.2c0,2.6,1.7,5.1,5.1,5.1h57c2.6,0,5.1-1.7,5.1-5.1V623.8h88.5v126.8
	c0,2.6,1.7,5.1,5.1,5.1h57c2.6,0,5.1-1.7,5.1-5.1V454.5C750.6,451.9,748.9,450.2,746.4,450.2z M301.3,457
	c-20.4,0-36.6,16.2-36.6,36.6s16.2,36.6,36.6,36.6s36.6-16.2,36.6-36.6S321.7,457,301.3,457z M329.4,547.2h-57
	c-2.6,0-5.1,2.6-5.1,5.1v195.7c0,6,3.4,7.7,8.5,7.7h51.1c6,0,6.8-2.6,6.8-7.7V551.5C334.5,548.9,331.9,547.2,329.4,547.2
	L329.4,547.2z M966.8,547.2h-56.2c-2.6,0-5.1,1.7-5.1,5.1v145.5c0,0-14.5,10.2-34.9,10.2s-25.5-9.4-25.5-28.9V552.3
	c0-2.6-1.7-5.1-5.1-5.1h-57c-2.6,0-5.1,1.7-5.1,5.1v136.2c0,58.7,33.2,73.2,78.3,73.2c37.4,0,67.2-20.4,67.2-20.4s1.7,11.1,1.7,11.9
	c0.9,1.7,2.6,2.6,4.3,2.6H966c2.6,0,5.1-1.7,5.1-5.1V551.5C971.1,549.8,969.4,547.2,966.8,547.2z M1120.9,540.4
	c-32.3,0-53.6,14.5-53.6,14.5V454.5c0-2.6-1.7-5.1-5.1-5.1h-57c-2.6,0-5.1,1.7-5.1,5.1v296.2c0,2.6,1.7,5.1,5.1,5.1h39.1
	c1.7,0,3.4-0.9,4.3-2.6s2.6-13.6,2.6-13.6s23,22.1,67.2,22.1c51.9,0,81.7-26.4,81.7-117.4C1200,552.3,1152.3,540.4,1120.9,540.4z
	 M1098.7,707.2c-19.6-0.9-33.2-9.4-33.2-9.4v-93.6c0,0,12.8-7.7,28.9-9.4c20.4-1.7,40,4.3,40,52.8
	C1134.5,698.7,1126,708.1,1098.7,707.2L1098.7,707.2z M497.9,706.4c-2.6,0-8.5,0.9-15.3,0.9c-21.3,0-28.1-9.4-28.1-22.1v-83.4H497
	c2.6,0,5.1-1.7,5.1-5.1v-46c0-2.6-1.7-5.1-5.1-5.1h-42.6v-56.2c0-1.7-0.9-3.4-3.4-3.4h-57.9c-2.6,0-3.4,0.9-3.4,3.4v59.6
	c0,0-28.9,6.8-30.6,7.7c-1.7,0.9-3.4,2.6-3.4,4.3v36.6c0,2.6,1.7,5.1,5.1,5.1h29.8v87.7c0,64.7,46,71.5,76.6,71.5
	c14.5,0,30.6-4.3,34-6c1.7-0.9,2.6-2.6,2.6-4.3v-40C503,708.9,500.4,706.4,497.9,706.4L497.9,706.4z"/>
</svg>
