<?xml version="1.0" encoding="utf-8"?>
<!-- Generator: Adobe Illustrator 18.1.1, SVG Export Plug-In . SVG Version: 6.00 Build 0)  -->
<svg version="1.1" id="Layer_1" xmlns="http://www.w3.org/2000/svg" xmlns:xlink="http://www.w3.org/1999/xlink" x="0px" y="0px"
	 width="1200.7px" height="339.9px" viewBox="0 430.5 1200.7 339.9" enable-background="new 0 430.5 1200.7 339.9"
	 xml:space="preserve">
<g>
	<path fill="#FFFFFF" d="M374.8,724.1v-8.6h3.6c0.7,0,1.4,0,1.4,0c0.7,0,0.7,0.7,0.7,0.7c0.7,0.7,0.7,1.4,0.7,1.4
		c0,0.7,0,1.4-0.7,1.4c-0.7,0.7-0.7,0.7-2.2,0.7c0,0,0.7,0,0.7,0.7c0,0,0.7,0.7,0.7,1.4l1.4,2.2h-1.4l-1.4-2.2
		c0-0.7-0.7-0.7-0.7-1.4l-0.7-0.7c0,0,0,0-0.7,0c0,0,0,0-0.7,0h-1.4v3.6h0.7V724.1z M375.5,719.1h2.2c0.7,0,0.7,0,1.4,0
		c0,0,0.7,0,0.7-0.7v-0.7c0-0.7,0-0.7-0.7-0.7c0,0-0.7-0.7-1.4-0.7h-2.9v2.9H375.5z M378.4,710.4c-5,0-9.4,4.3-9.4,9.4
		c0,5,4.3,9.4,9.4,9.4s9.4-4.3,9.4-9.4C387.8,714.7,383.5,710.4,378.4,710.4L378.4,710.4z M378.4,712.6c4.3,0,7.2,3.6,7.2,7.2
		c0,4.3-2.9,7.2-7.2,7.2s-7.2-2.9-7.2-7.2C371.2,716.2,374.8,712.6,378.4,712.6L378.4,712.6z M241,770.1c0-0.7,12.2-18.7,25.9-38.8
		c5-7.2,6.5-11.5,7.2-16.5c0-4.3,2.2-12.2,3.6-18.7c1.4-5.8,2.9-11.5,2.2-12.2c-0.7-0.7-3.6,0-7.2,1.4c-7.9,2.9-12.9,2.9-22.3,0.7
		c-5.8-1.4-7.9-1.4-13.7,0.7c-6.5,2.2-7.2,2.2-12.9,0c-5.8-2.2-7.2-2.2-21.6,0c-26.6,5-36,2.2-53.2-16.5
		c-10.8-11.5-15.1-13.7-17.3-10.8c-0.7,0.7-2.9,1.4-4.3,1.4c-2.9,0-5-2.2-8.6-7.9c-2.9-4.3-7.2-9.4-9.4-10.8
		c-12.9-9.4-27.3-2.9-27.3,12.2c0,6.5,12.2,25.2,18.7,28.1c8.6,4.3,3.6,10.8-6.5,9.4c-5-0.7-7.9-2.2-15.1-10.1
		c-7.9-8.6-9.4-9.4-14.4-9.4c-3.6,0-8.6,1.4-12.2,2.9c-8.6,4.3-20.1,6.5-32.4,6.5H8.6l-2.2-7.2C0.7,654.3,0,646.4,0,621.9
		c0-18.7,0.7-28.8,2.9-38.1c11.5-52.5,40.3-95,84.2-123c21.6-13.7,41.7-22.3,66.9-27.3c18-3.6,58.3-4.3,76.3,0
		c59.7,12.9,109.4,50.4,135.3,102.9c14.4,29.5,20.1,53.2,20.1,86.3c0,32.4-5.8,56.8-19.4,84.9c-10.1,20.1-8.6,19.4-23,17.3
		c-12.9-1.4-30.2,0-41,3.6c-5,1.4-6.5,2.9-7.2,6.5s-2.2,5-10.1,7.9c-6.5,2.9-12.2,6.5-19.4,13.7c-5.8,5-11.5,10.8-12.9,11.5
		C248.9,769.4,241,770.9,241,770.1L241,770.1z M277.7,670.1c33.8-5,57.6-19.4,67.6-39.6c8.6-18,5-33.8-10.1-45.3
		c-7.2-5.8-25.9-13.7-30.9-13.7c-1.4,0-4.3,2.9-5.8,6.5c-2.9,5.8-11.5,13.7-14.4,13.7c-0.7,0,0.7-3.6,3.6-8.6
		c2.9-5,4.3-10.8,4.3-14.4c0-15.1-15.8-58.3-28.8-78.4c-5.8-9.4-8.6-12.2-15.8-15.8c-11.5-6.5-25.2-7.2-43.2-2.2
		c-10.8,2.9-15.8,2.9-25.9,2.2c-41.7-2.9-40.3-2.9-46.8,0.7c-8.6,4.3-11.5,10.1-17.3,32.4c-5.8,24.5-5.8,31.7-0.7,38.1
		c5.8,6.5,23,14.4,40.3,18.7c20.9,5,35.3,9.4,38.8,11.5c2.2,1.4,4.3,4.3,5,7.2c4.3,11.5,6.5,16.5,9.4,18.7c1.4,1.4,2.9,3.6,2.9,4.3
		c0,10.8-79.1-13.7-99.3-30.9c-8.6-7.2-11.5-12.9-10.1-22.3l0.7-7.9l-20.1,0.7C64,546.4,59.7,547.1,54,550
		c-20.9,10.1-20.1,27.3,2.9,48.9c33.8,31.7,102.9,63.3,157.6,71.2C233.1,673,260.4,673,277.7,670.1L277.7,670.1L277.7,670.1z
		 M134.5,522.7c-5.8-5.8-7.2-8.6-7.2-12.2c0-7.9,5.8-11.5,10.1-7.2c6.5,6.5,9.4,7.2,24.5,6.5c15.8-0.7,25.2,0.7,26.6,5
		c1.4,4.3-1.4,5-14.4,6.5c-14.4,1.4-21.6,3.6-24.5,6.5C146,532,142.4,530.6,134.5,522.7L134.5,522.7z M220.9,498.2
		c-7.2-0.7-7.2-2.2-0.7-4.3c5.8-1.4,9.4-6.5,5.8-7.9c-3.6-2.2-15.1-3.6-20.1-2.2c-2.9,0.7-4.3,0.7-3.6-0.7c1.4-2.9,18-5,27.3-4.3
		c9.4,0.7,17.3,4.3,18.7,7.9C250.4,493.2,236,499.6,220.9,498.2L220.9,498.2z M215.8,723.4c-2.9-1.4-6.5-2.9-8.6-2.9
		c-4.3,0-6.5-3.6-3.6-7.2c2.2-2.9,10.1-2.9,15.1,0c5,2.9,10.1,2.9,12.9-0.7c3.6-4.3,5-3.6,5,0.7c0,5-7.9,12.9-12.2,12.9
		C222.3,726.3,218,724.8,215.8,723.4L215.8,723.4L215.8,723.4z"/>
	<path fill="#FFFFFF" d="M1187.1,727v-8.6h3.6c0.7,0,1.4,0,1.4,0c0.7,0,0.7,0.7,0.7,0.7c0,0.7,0.7,0.7,0.7,1.4c0,0.7,0,1.4-0.7,1.4
		c-0.7,0.7-0.7,0.7-2.2,0.7c0,0,0.7,0,0.7,0.7c0,0,0.7,0.7,0.7,1.4l1.4,2.2h-1.4l-1.4-2.2c0-0.7-0.7-0.7-0.7-1.4l-0.7-0.7
		c0,0,0,0-0.7,0c0,0,0,0-0.7,0h-1.4v3.6h0.7V727z M1188.5,721.9h2.2c0.7,0,0.7,0,1.4,0c0,0,0.7,0,0.7-0.7v-0.7c0-0.7,0-0.7-0.7-0.7
		c0,0-0.7-0.7-1.4-0.7h-2.9v2.9H1188.5z M1191.4,713.3c-5,0-9.4,4.3-9.4,9.4c0,5,4.3,9.4,9.4,9.4c5,0,9.4-4.3,9.4-9.4
		C1200,717.6,1196.4,713.3,1191.4,713.3L1191.4,713.3z M1191.4,715.5c4.3,0,7.2,3.6,7.2,7.2c0,3.6-2.9,7.2-7.2,7.2
		c-4.3,0-7.2-2.9-7.2-7.2S1187.1,715.5,1191.4,715.5L1191.4,715.5z M769.1,729.1c11.5-2.2,18.7-6.5,26.6-14.4l6.5-7.2v20.9h30.9
		l-0.7-184.9l-33.1-8.6l-1.4,71.9l-6.5-5c-3.6-2.9-10.1-6.5-15.1-7.9c-30.2-8.6-59,7.9-71.2,39.6c-4.3,12.9-5,41.7-0.7,54.7
		c7.2,21.6,23,36.7,41.7,41C754.7,731.3,759.7,731.3,769.1,729.1L769.1,729.1L769.1,729.1z M759,701.8c-7.9-2.9-12.2-6.5-16.5-15.1
		c-3.6-7.2-4.3-10.1-5-22.3c-0.7-16.5,1.4-25.9,9.4-34.5c13.7-17.3,38.8-14.4,48.9,5c4.3,8.6,4.3,41.7,0,51.1
		C788.5,699.6,772.7,706.8,759,701.8L759,701.8L759,701.8z M1036.7,729.1c10.8-2.2,18.7-6.5,25.9-13.7l5.8-5.8l0.7,9.4l0.7,9.4h5.8
		h5.8l-0.7-45.3c-0.7-46-1.4-58.3-6.5-67.6c-3.6-7.2-11.5-14.4-18-17.3c-13.7-5.8-34.5-4.3-50.4,2.9c-8.6,3.6-8.6,4.3-6.5,10.8
		l1.4,3.6l8.6-4.3c11.5-5,28.1-6.5,38.1-2.9c12.2,5,19.4,15.8,19.4,31.7v7.2h-9.4c-22.3,0-46.8,7.9-57.6,18
		c-8.6,8.6-11.5,16.5-11.5,28.8c0,19.4,10.1,31.7,30.2,36.7C1024.5,731.3,1028.8,731.3,1036.7,729.1L1036.7,729.1L1036.7,729.1z
		 M1015.1,716.2c-8.6-4.3-11.5-10.1-12.2-20.9c-0.7-12.2,1.4-17.3,9.4-24.5c7.2-6.5,21.6-11.5,40.3-12.2l14.4-0.7v16.5
		c0,17.3,0,18-5,25.9c-7.2,11.5-15.8,17.3-30.9,18C1023,719.1,1019.4,718.3,1015.1,716.2L1015.1,716.2z M1159,729.9
		c4.3-0.7,8.6-1.4,8.6-2.2c0,0,0-2.9-0.7-5l-0.7-5l-9.4,0.7c-11.5,1.4-18-1.4-21.6-9.4c-2.2-4.3-2.2-12.2-2.2-54v-48.2h18.7h18.7v-5
		v-5h-18.7h-18.7v-13.7c0-7.9-0.7-13.7-0.7-13.7c-0.7,0-3.6,0.7-7.2,1.4l-5.8,1.4v12.2v12.2l-10.8,0.7l-10.8,0.7l-0.7,5l-0.7,5h11.5
		h11.5l0.7,51.1c0.7,48.9,0.7,51.1,3.6,56.8c4.3,7.9,7.9,11.5,15.8,13.7C1147.5,731.3,1148.9,731.3,1159,729.9L1159,729.9z
		 M670.5,725.5l10.1-3.6l-2.2-10.8c-1.4-6.5-2.2-11.5-2.9-11.5c0,0-5,0.7-10.1,2.2c-5.8,0.7-15.8,1.4-25.2,1.4
		c-13.7,0-16.5-0.7-23.7-4.3c-9.4-5-16.5-13.7-18-23l-0.7-5.8h43.9h43.9v-17.3c0-14.4-0.7-19.4-3.6-25.9
		c-10.1-25.2-28.8-36.7-56.1-35.3c-26.6,1.4-46,15.8-56.1,41c-9.4,23.7-5.8,56.1,7.9,73.4c7.2,8.6,18,16.5,29.5,20.1
		C621.6,730.6,656.1,729.9,670.5,725.5L670.5,725.5L670.5,725.5z M598.6,644.2c0-5,7.2-18,12.2-22.3c14.4-12.2,33.1-7.9,41.7,7.9
		c1.4,2.9,2.9,8.6,2.9,11.5v5.8h-28.1C600.7,647.1,598.6,646.4,598.6,644.2L598.6,644.2z M517.3,686c0.7-44.6,0.7-46,10.1-54.7
		c5.8-5.8,11.5-7.2,21.6-7.2h8.6v-16.5V591l-9.4,0.7c-14.4,1.4-27.3,10.8-33.1,23l-2.2,4.3v-5.8c0-2.9-0.7-8.6-0.7-12.9l-0.7-7.2
		h-14.4h-14.4v134.5h33.8L517.3,686L517.3,686L517.3,686z M875.5,680.2c0.7-51.8,0.7-51.1,12.2-62.6c7.9-7.9,15.8-11.5,27.3-12.2
		c12.9-0.7,23.7,5,30.2,15.8c5.8,10.8,7.2,23,7.2,67.6v38.8h12.2v-46c0-41.7,0-47.5-2.9-56.1c-17.3-48.2-67.6-32.4-85.6-7.9
		l-0.7-62.6l-12.9-2.9v176.3h12.9V680.2L875.5,680.2L875.5,680.2z"/>
</g>
</svg>
