<svg fill="#fff" xmlns="http://www.w3.org/2000/svg" width="1200" height="240.7" viewBox="0 479.7 1200 240.7" enable-background="new 0 479.7 1200 240.7">
    <path d="M542.9 648.7c-1.7-3.4-2.2-9-2.2-17.4V610c0-19-2.8-31.9-8.4-39.2-5.6-7.3-15.1-11.2-28.5-11.2-14.6 0-26.3 3.9-35.8 11.2l2.8 15.7c9-6.2 18.5-9.5 28-9.5 7.8 0 14 1.7 17.4 5 3.9 3.4 5.6 9.5 5.6 19-7.3 0-14.6 1.1-21.3 2.2-6.7 1.1-13.4 2.8-20.1 5.6-6.7 2.8-11.8 6.7-15.7 11.8-3.9 5-5.6 11.2-5.6 18.5 0 9 2.8 16.2 9 21.8 6.2 5.6 14 8.4 23.5 8.4 12.9 0 23.5-5 32.5-15.7 2.2 5.6 5.6 9.5 9 12.3 3.4 2.2 9.5 3.4 18.5 3.4h1.7l2.8-15.7h-1.7c-7-.4-10.4-2.1-11.5-4.9zm-21.8-9.5c-3.4 4.5-7.3 7.8-11.8 10.1-4.5 2.8-9.5 3.9-14.6 3.9-10.6 0-16.2-5.6-16.2-16.2 0-7.8 3.4-13.4 10.1-16.8 6.7-3.4 17.9-5.6 33-6.2v25.2h-.5zM411.4 516l-39.2 74.4L333 516h-17.4l-20.1 150.6h21.3l14-114.2 41.4 78.4 40.9-78.4 14 113.6h21.3l-19-150h-18zm206.5 43.1c-13.4 0-25.2 4.5-34.7 13.4l-2.2-11.2h-15.1v105.2h19.6v-76.7c5-9 14.6-14 28.5-14 10.1 0 16.8 2.8 21.3 7.8s6.7 13.4 6.7 24.6v58.2h19.6v-58.2c-.6-32.8-15.1-49.1-43.7-49.1zm390.7 107.5h27.4V516h-27.4v150.6zM1200 591c0-23.5-6.7-42-20.7-56.5s-31.3-21.8-53.2-21.8c-21.8 0-39.7 7.3-53.7 21.8s-20.7 33-20.7 56.5 6.7 42.5 20.7 57.1 31.9 21.3 53.7 21.3c16.8 0 31.3-4.5 43.7-12.9l14.6 12.3 15.7-19-13.4-11.2c8.8-13.4 13.3-29.1 13.3-47.6zm-36.4 28.6l-19-15.7-15.7 19 17.9 15.1c-6.2 3.4-13.4 5-21.3 5-14 0-25.2-4.5-32.5-14-7.8-9.5-11.2-21.8-11.2-37.5s3.9-28 11.2-37.5c7.8-9.5 18.5-14 32.5-14s25.2 4.5 32.5 14c7.8 9.5 11.2 21.8 11.2 37.5.6 10.7-1.7 20.3-5.6 28.1zm-297.2 49.2c-2.8-1.7-6.2-3.4-10.6-5-4.5-1.7-7.8-2.8-11.2-3.4-3.4-.6-6.7-1.7-11.2-2.2-13.4-2.2-22.4-3.9-26.9-5.6-3.9-1.1-6.2-3.4-6.2-5.6 0-2.2 1.7-4.5 5-6.7 4.5 1.1 9.5 1.7 15.1 1.7 12.9 0 23.5-3.9 30.8-12.3 7.8-8.4 11.8-17.9 11.8-29.7 0-9-3.4-17.4-9.5-25.2 3.9-1.1 8.4-1.7 12.3-1.7h5l2.2-12.9h-1.7c-9.5 0-17.9 2.2-25.7 6.2-8.4-5-17.4-7.8-26.9-7.8-13.4 0-24.1 3.9-31.3 12.3-7.8 7.8-11.2 17.9-11.2 30.2 0 14 6.2 25.7 18.5 34.7-4.5 2.2-7.8 4.5-9.5 7.8-1.7 2.8-2.8 5.6-2.8 7.8 0 5.6 3.4 10.1 10.6 13.4-12.3 4.5-18.5 12.3-18.5 23.5 0 8.4 3.9 15.7 11.8 22.4 8.4 6.7 20.7 9.5 36.9 9.5s29.1-3.4 38.6-10.1c9.5-6.7 14-14 14-23.5 0-3.9-1.1-7.3-2.8-10.6-1-2.7-3.8-5.5-6.6-7.2zm-64.3-87.3c4.5-5 10.6-7.3 18.5-7.3s13.4 2.2 18.5 6.7c4.5 4.5 7.3 10.6 7.3 18.5S844 614 839.6 619c-4.5 5-10.6 7.8-17.9 7.8s-13.4-2.2-18.5-7.3c-4.5-5-6.7-11.2-6.7-19.6-1.2-7.2 1.1-13.3 5.6-18.4zm46.4 118.7c-5.6 3.4-13.4 5-24.1 5-10.1 0-17.4-1.7-22.9-5-5.6-3.4-8.4-7.3-8.4-12.3 0-3.9 1.7-7.3 4.5-11.2 3.4-3.4 7.3-6.2 12.3-7.3 10.1 1.7 16.8 2.8 19 2.8 19 3.4 28 9 28 16.2.6 4.5-2.2 8.4-8.4 11.8zm78.9-141.1c-15.7 0-28.5 5-37.5 15.7-9.5 10.1-14 22.9-14 38.6s5 29.1 15.1 39.7 24.1 15.7 42 15.7c11.2 0 22.9-2.8 35.3-8.4l-2.8-15.1c-9 3.9-19 6.2-30.2 6.2-24.1 0-36.9-12.3-39.7-37.5h76.1c.6-3.4 1.1-6.7 1.1-10.1 0-14-4.5-24.6-12.9-32.5-8.4-8.3-19-12.3-32.5-12.3zm-30.2 41.5c3.9-16.2 14-24.1 29.7-24.1 8.4 0 15.1 2.2 19.6 6.7 4.5 4.5 6.7 10.1 6.7 17.9h-56v-.5zm-138.8 48.1c-1.7-3.4-2.2-9-2.2-17.4V610c0-19-2.8-31.9-8.4-39.2-5.6-7.3-15.1-11.2-28.5-11.2-14.6 0-26.3 3.9-35.8 11.2l2.8 15.7c9-6.2 18.5-9.5 28-9.5 7.8 0 14 1.7 17.4 5 3.9 3.4 5.6 9.5 5.6 19-7.3 0-14.6 1.1-21.3 2.2-6.7 1.1-13.4 2.8-20.1 5.6-6.7 2.8-11.8 6.7-15.7 11.8-3.9 5-5.6 11.2-5.6 18.5 0 9 2.8 16.2 9 21.8 6.2 5.6 14 8.4 23.5 8.4 12.9 0 23.5-5 32.5-15.7 2.2 5.6 5.6 9.5 9 12.3 3.4 2.2 9.5 3.4 18.5 3.4h1.7l2.8-15.7h-1.7c-7-.4-10.4-2.1-11.5-4.9zm-21.8-9.5c-3.4 4.5-7.3 7.8-11.8 10.1-4.5 2.8-9.5 3.9-14.6 3.9-10.6 0-16.2-5.6-16.2-16.2 0-7.8 3.4-13.4 10.1-16.8 6.7-3.4 17.9-5.6 33-6.2v25.2h-.5zm-523.4-55.4c0-56.5-45.3-102.4-101.9-104.1h-2.8C51.5 479.7 5 526.1 5 583.8c0 21.8 6.7 42 17.9 58.2L0 664.9 29.1 694 52 671.1c16.2 10.6 35.8 16.8 56.5 16.8s40.3-6.2 56.5-16.8l21.8 21.8 29.1-29.1-21.3-21.3c11.9-16.8 18.6-36.9 18.6-58.7zm-104.1 69.9c-11.2 0-21.8-2.8-31.3-7.8l22.4-22.4-29.1-29.1-1.7 1.7-21.3 21.3c-5.6-10.1-8.4-21.3-8.4-33.6 0-38.6 31.3-70 69.4-70 38.6 0 69.4 31.3 69.4 70 0 38.6-31.3 69.9-69.4 69.9zm0-89.5c-11.2 0-20.1 9-20.1 20.1s9 20.1 20.1 20.1 20.1-9 20.1-20.1c-.5-11.7-9.4-20.1-20.1-20.1z"/>
</svg>
