<svg xmlns="http://www.w3.org/2000/svg" width="1200.8" height="463.6" viewBox="0 736.9 1200.8 463.6" enable-background="new 0 736.9 1200.8 463.6">
    <g fill="#fff">
        <path d="M83.8 1156.8l71 25.6v-104.9l-71-23.4zM167.7 1182.4l70.2-25.6v-102.7l-70.2 23.4zM162.4 1026.1l-71 19.7 71 24.1 66.4-22.6zM0 1012.5l70.2 25.7v-105L0 909.1zM83.8 1038.2l70.3-25.7V909.1l-70.3 24.1zM78.5 881.1L7.6 901.5l70.9 23.4L145 903zM234.9 933.2l-70.3-24.1v103.4l70.3 25.7zM248.5 1038.2l70.2-25.7V909.1l-70.2 24.1zM243.2 881.1l-71 20.4 71 23.4 66.4-21.9zM248.5 868.3l70.9 24.9V789l-70.9-24.2zM402.5 764.8L332.3 789v104.2l70.2-24.9zM327 736.9l-71 20.4 71 23.4 66.5-22.7zM484.1 789l-71-24.2v103.5l71 24.9zM496.9 893.2l70.2-24.9V764.8L496.9 789zM558.1 758l-66.5-21.1-71 20.4 71 23.4zM419.1 1177.1l-18.9-61.9h-9.1l-17.4 61.2-18.1-61.2h-12.8l24.9 82.3h10.6l17.4-61.2 18.1 61.2h10.6l23.4-82.3h-10.6zM516.6 1123.5c-6.1-7.5-15.1-11.3-25.7-11.3s-19.6 3.8-27.2 12.1c-6.8 8.3-10.6 18.8-10.6 31.7s3.8 23.4 10.6 31c6.8 8.3 15.9 12.1 27.2 12.1 8.3 0 15.9-2.3 21.9-6.8 6.8-4.6 10.5-10.6 12.8-17.4l-12.1-2.3c-4.5 11.4-11.3 16.6-22.6 15.8-6 0-11.3-2.3-16.6-6.8-5.3-3.8-7.6-12.8-7.6-24.9h59.7c0-14.3-3-25.6-9.8-33.2zm-48.5 24.1c.8-7.5 3.1-13.6 7.6-18.1 3.8-4.5 9.9-6.8 15.9-6.8 4.5 0 9.1 1.5 12.1 3.8s5.3 5.3 6.8 9.1c1.5 3 2.3 7.5 2.3 12h-44.7zM580.8 1112.9c-10.6 0-18.2 5.3-24.2 15.9v-42.3h-12.8v111h6l5.2-13.6c6.1 10.6 14.4 15.9 25.7 15.9 9.9 0 18.2-3.8 24.2-12.1 6.1-8.3 9.1-18.9 9.1-31 0-14.4-3.8-24.9-9.8-32.5-6-7.5-14.3-11.3-23.4-11.3zm13.6 68c-3.8 5.3-9.1 8.3-15.9 8.3-5.2 0-9.8-2.2-14.3-6-4.6-3.8-6.8-9.8-7.6-18.1v-18.2c.8-6.8 3.1-12.1 7.6-16.6 3.7-4.5 9-6.8 14.3-6.8 6.8 0 12.1 3.1 15.9 9.1 3.7 6 6 14.3 6 24.9 0 9.8-2.2 18.1-6 23.4zM691.8 1149.9l-15.9-3c-8.3-1.5-12.8-5.3-12.8-11.3 0-3.8 2.3-6.8 5.3-9.1 3-2.2 7.5-3 12.8-3 9.8 0 17.4 4.5 20.4 12.8l12.1-2.3c-4.5-14.3-15.1-21.1-33.2-21.1-9.1 0-16.6 2.3-21.9 6.8-5.3 4.6-8.3 10.6-8.3 17.4 0 6 2.2 11.3 6 15.1 3.8 3.8 9.1 6.1 15.9 7.6l16.6 4.5c9.8 1.5 14.3 5.3 14.3 12.1 0 3.8-1.5 7.5-5.3 9.8-3.8 2.3-8.3 3.8-13.6 3.8-14.4 0-22.7-5.3-25.7-15.9l-12.1 2.3c5.3 15.1 16.7 23.4 36.3 22.6 10.6 0 18.9-2.3 24.9-6.8 6.1-4.5 9.1-10.5 9.1-18.1 0-12.9-8.3-21.2-24.9-24.2zM788.5 1123.5c-6.1-7.5-15.1-11.3-25.7-11.3s-19.6 3.8-27.2 12.1c-6.8 8.3-10.6 18.8-10.6 31.7s3.8 23.4 10.6 31c6.8 8.3 15.9 12.1 27.2 12.1 8.3 0 15.9-2.3 21.9-6.8 6.8-4.6 10.5-10.6 12.8-17.4l-12.1-2.3c-4.5 11.4-11.3 16.6-22.6 15.8-6 0-11.3-2.3-16.6-6.8-5.3-3.8-7.6-12.8-7.6-24.9h59.7c0-14.3-3-25.6-9.8-33.2zm-48.6 24.1c.8-7.5 3.1-13.6 7.6-18.1 3.8-4.5 9.9-6.8 15.9-6.8 4.5 0 9.1 1.5 12.1 3.8s5.3 5.3 6.8 9.1c1.5 3 2.3 7.5 2.3 12h-44.7zM836 1116.7c-3.8 2.3-8.3 8.3-12.1 17.4v-18.9h-11.3v82.3h12.8v.1h.7V1153c.8-8.3 3.1-15.1 7.6-20.4 4.6-5.3 10.6-7.6 17.4-7.6h2.3v-12.1h-5.3c-3.8 0-8.3.8-12.1 3.8zM898.7 1182.4l-22.7-67.2h-14.3l29.5 82.3H904l28.7-82.3h-11.3zM932.7 1115.2"/>
        <path d="M943.3 1115.2h12.8v82.3h-12.8zM943.2 1086.5h13.6v14.3h-13.6zM1003.7 1124.2c10.5 0 17.3 6.8 19.6 20.4l11.3-2.3c-.7-9-4.5-15.8-9.8-21.1-6-5.3-12.8-8.3-21.9-8.3-10.6 0-19.7 3.8-25.7 12.1-6.1 8.3-9.1 18.2-9.1 31 0 12.1 3.1 22.7 9.1 31 6.1 8.3 14.4 12.8 25.7 12.8 8.3 0 15.8-2.3 21.1-7.6 5.3-5.2 9.1-12 10.6-21.1l-11.3-2.3c-3 13.6-9.1 20.4-21 21.9-6.8 0-12.1-3.1-15.9-9.1s-5.3-14.3-5.3-24.9c0-9.8 2.2-17.4 6-23.4 3.8-6.1 9.8-9.1 16.6-9.1zM1110.2 1123.5c-6.1-7.5-15.1-11.3-25.7-11.3s-19.6 3.8-27.2 12.1c-6.8 8.3-10.6 18.8-10.6 31.7s3.8 23.4 10.6 31c6.8 8.3 15.9 12.1 27.2 12.1 8.3 0 15.9-2.3 21.9-6.8 6.8-4.6 10.5-10.6 12.8-17.4l-12.1-2.3c-3.8 11.4-11.3 16.6-22.6 15.8-6 0-11.3-2.3-16.6-6.8-5.3-3.8-7.6-12.8-7.6-24.9h59.7c0-14.3-3-25.6-9.8-33.2zm-48.5 24.1c.8-7.5 3.1-13.6 7.6-18.1 3.8-4.5 9.9-6.8 15.9-6.8 4.5 0 9.1 1.5 12.1 3.8s5.3 5.3 6.8 9.1c1.5 3 2.3 7.5 2.3 12h-44.7zM1172.9 1151.4l-15.9-3c-8.3-1.5-12.8-5.3-12.8-11.3 0-3.8 2.3-6.8 5.3-9.1 3-2.2 7.5-3 12.8-3 9.8 0 17.4 4.5 20.4 12.8l12.1-2.3c-4.5-14.3-15.1-21.1-33.2-21.1-9.1 0-16.6 2.3-21.9 6.8-5.3 4.6-8.3 10.6-8.3 17.4 0 6 2.2 11.3 6 15.1s9.1 6.1 15.9 7.6l17.4 3c9.8 1.5 14.3 5.3 14.3 12.1 0 3.8-1.5 7.5-5.3 9.8-3.8 2.3-8.3 3.8-13.6 3.8-14.4 0-22.7-5.3-25.7-15.9l-12.1 2.3c4.5 15.1 16.6 23.4 35.5 24.1 10.6 0 18.9-2.3 24.9-6.8 6.1-4.5 9.1-10.5 9.1-18.1 0-12.9-8.3-21.2-24.9-24.2zM935.7 1024.7c-15.9-8.3-33.2-11.4-50.6-10.6l46.1-65.7c4.5-5.3 6.8-9.1 6.8-12.1v-16.6c0-3-2.3-5.3-5.3-5.3h-88.4c-3 0-5.3 2.3-5.3 5.3v19.6c0 3 2.3 4.5 4.6 4.5h46.1l-52.9 76.3c-3 4.5-3 10.6-3 13.6v20.4c0 3 3 6 6 4.5 30.2-15.9 66.4-14.3 93.6 0 3.8 1.5 6.8-1.5 6.8-4.5v-21.8c0-3.1-.7-5.3-4.5-7.6zM670.6 1057.1v-87.8c0-14.3 1.5-31.7-6.8-43-7.6-10.6-19.7-15.1-31-15.1-15.9 0-30.2 8.3-37 25.7-7.5-17.4-18.1-25.7-34.7-25.7s-28.7 8.3-35.5 25.7h-.8v-18.1c0-2.2-2.2-4.5-4.5-4.5h-24.9c-3 0-5.3 2.3-5.3 5.3v138.3c0 2.2 2.2 4.5 4.5 4.5h27.2c2.3 0 4.6-2.3 4.4-5.3v-73.3c0-16.6-.7-38.5 18.9-38.5 18.9 0 16.6 23.4 16.6 38.5v73.3c0 3 1.5 5.3 4.5 5.3h27.2c3 0 5.3-2.3 5.3-5.3v-73.4c0-7.5-.7-19.6 2.3-26.4 2.3-6.8 9.1-11.3 15.9-11.3 7.6 0 13.6 3 15.9 12.1 1.6 5.3.8 19.7.8 25.7v73.3c0 3 1.5 5.3 4.5 5.3h27.2c3 0 5.3-2.3 5.3-5.3zM1002.9 912.1c-39.3 0-60.4 33.2-60.4 76.3 0 42.3 21.1 77 60.4 77 37.8 0 61.2-33.2 61.2-75.5 0-43.1-21.2-77.8-61.2-77.8zm-.7 124.6c-20.4 0-20.4-32.5-20.4-49.1s1.5-43.8 21.1-43.8c8.3 0 14.3 3.8 17.4 12.9 3 11.3 3.8 25.7 3.8 37 0 17.3-1.5 43-21.9 43zM1194 928c-7.5-12.1-19.6-16.6-31.7-16.6-18.9 0-29.4 9-37 27.9h-.8v-21.1c0-2.3-2.2-3.8-4.5-3.8h-24.9c-3 0-5.3 2.2-5.3 4.5v138.2c0 3 1.5 5.3 4.5 5.3h27.2c3 0 5.2-2.3 5.3-4.6V983c0-9.8.7-18.1 4.5-26.4 3.1-6.8 9.1-11.3 15.9-11.3 18.1 0 16.6 21.9 16.6 37v75.5c0 2.2 2.2 4.5 4.5 4.5h27.2c3 0 5.3-2.2 5.3-4.5V971c0-13.5 0-31.7-6.8-43zM771.8 969.5c-15.9 1.5-36.3 2.3-50.6 9.1-16.6 6.8-28.7 21.9-28.7 43.8 0 28 17.3 42.3 40 42.3 19.7 0 29.5-4.5 44.6-19.6 4.5 7.5 6 10.5 15.1 18.1 1.5.7 4.5.7 6-.8 5.3-4.6 15.1-13.6 22-18 2.3-1.5 1.5-4.5 0-6.8-4.5-6.8-9.8-12.1-9.8-24.9v-42.3c0-17.4.7-34-12.1-46.1-10.6-9.8-28-13.6-40.8-13.6-25.7 0-54.4 9.8-60.4 41.5-.7 3 1.5 4.5 3.8 5.3l26.4 3c2.2-.8 3.7-3 4.5-5.3 2.3-10.6 11.3-15.9 21.9-15.9 5.3 0 12.1 1.5 15.1 6.8 3.8 5.3 3 12.8 3 19.6v3.8zm-6 55.9c-4.5 7.6-11.3 12.1-18.9 12.1-10.6 0-16.6-7.6-16.6-19.6 0-22.7 20.4-27.2 40-27.2v6h.8c0 10.6 0 19.6-5.3 28.7zM469.8 1037.6c-4.5-6.8-9.8-12.1-9.8-24.9v-42.3c0-17.4.7-34-12.1-46.1-10.6-9.8-28-13.6-40.8-13.6-25.7 0-54.4 9.8-60.4 41.5-.7 3 1.5 4.5 3.8 5.3l26.4 3c2.2-.8 3.7-3 4.5-5.3 2.3-10.6 11.3-15.9 21.9-15.9 5.3 0 12.1 1.5 15.1 6.8 3.8 5.3 3 12.8 3 19.6v3.8c-15.9 1.5-36.3 2.3-50.6 9.1-16.6 6.8-28.7 21.9-28.7 43.8 0 28 17.3 42.3 40 42.3 19.7 0 29.5-4.5 44.6-19.6 4.5 7.5 6 10.5 15.1 18.1 1.5.7 4.5.7 6-.8 5.3-4.6 15.1-13.6 22-18 2.3-1.5 1.5-4.5 0-6.8zm-54.5-12.2c-4.5 7.6-11.3 12.1-18.9 12.1-10.6 0-16.6-7.6-16.6-19.6 0-22.7 20.4-27.2 40-27.2v6h.8c0 10.6 0 19.6-5.3 28.7z"/>
    </g>
</svg>
