<svg fill="#ffffff" xmlns="http://www.w3.org/2000/svg" width="1200px" height="127.7px" viewBox="0 536.1 1200 127.7" enable-background="new 0 536.1 1200 127.7">
	<path d="M43.3,592.9v-0.2c9.4-2.1,15.2-9.2,15.2-18.5c0-6.8-3.3-12.5-9-16.4c-5.9-3.7-11.1-3.9-17.7-3.9H0v82.9h31.6
		c8,0,14.6-0.4,21.3-5.3c5.9-4.3,8.2-10.5,8.2-17.6C61.2,603.2,54,595,43.3,592.9z M10.3,561.7h19.5c4.3,0,8.2,0,11.9,2.1
		c4.3,2.5,6.4,6.4,6.4,11.5c0,4.1-2,8.6-5.5,11.1c-4.5,3.3-10.3,3.1-15.6,3.1H10.3C10.3,589.6,10.3,561.7,10.3,561.7z M45.2,625.1
		c-3.7,2.9-9,3.5-13.8,3.5H10.3v-31.4h19.5c4.9,0,10.3,0,14.4,3.1s6.2,8.2,6.2,13.3C50.5,618,48.8,622.3,45.2,625.1z M100,573.8
		c-19.1,0-29.3,14.8-29.3,31.8c0,16.2,8.6,32.4,27.7,32.4c19.3,0,29.6-15.2,29.6-32.2C127.9,589.4,118.8,573.8,100,573.8z
		 M114.1,621.4c-3.1,5.7-8.2,9-14.8,9c-5.9,0-11.3-3.1-14-7.8c-2.7-4.9-3.7-11.3-3.7-17c0-5.1,0.8-10.9,3.1-15.4
		c2.7-5.5,8.4-8.8,14.6-8.8c5.7,0,10.9,2.7,13.8,7.4c3.3,5.1,4.1,11.1,4.1,17C117.2,610.8,116.8,616.5,114.1,621.4z M166.7,573.8
		c-19.1,0-29.3,14.8-29.3,31.8c0,16.2,8.6,32.4,27.7,32.4c19.3,0,29.6-15.2,29.6-32.2C194.6,589.4,185.5,573.8,166.7,573.8
		L166.7,573.8z M180.8,621.4c-3.1,5.7-8.2,9-14.8,9c-5.9,0-11.3-3.1-14-7.8c-2.7-4.9-3.7-11.3-3.7-17c0-5.1,0.8-10.9,3.1-15.4
		c2.7-5.5,8.4-8.8,14.6-8.8c5.7,0,10.9,2.7,13.8,7.4c3.3,5.1,4.1,11.1,4.1,17C183.9,610.8,183.5,616.5,180.8,621.4z M203.4,582.7
		h31.2l-33.9,46.4v7.4h47v-7.4h-35.1l35.1-48.8v-5.3h-44.3L203.4,582.7L203.4,582.7z M303.5,663.9h8V536.1h-8V663.9z M388.9,553.9
		L361,636.8h9l7.6-24.2h32l8.6,24.2h10.3l-27.9-82.9C400.6,553.9,388.9,553.9,388.9,553.9z M380.7,604.6l13.3-39.8l13.3,39.8H380.7z
		 M520.1,573.8c-19.1,0-29.4,15.4-29.4,32.2c0,17.2,9.9,32,29.3,32c12.1,0,23.4-6.8,27.1-17.9l-9-1.6c-2.7,7.2-9,11.9-17.4,11.9
		c-6.6,0-13.8-3.7-16.8-9.6c-2.3-4.7-2.7-9-2.7-13.8H548C548.4,589.6,540,573.8,520.1,573.8z M501.8,599.7
		c0.4-9.6,7.8-18.7,18.3-18.7c11.3,0,17.7,8.6,17.6,18.7H501.8z M591.5,573.8c-8.8,0-16.4,5.1-19.9,12.1h-0.2v-10.5h-9.4v61.4h9.8
		v-32.2c0-6.2,0.8-11.7,5.1-16.6c3.3-3.9,8-6.2,13.3-6.2c4.1,0,8.8,2.1,10.9,5.5c2,3.1,1.8,7.8,1.8,11.3v37.8h9.8v-33.7
		c0-6,0.2-14.2-2.9-19.5C605.6,576.9,599.1,573.8,591.5,573.8z M1197.1,583.3c-4.1-6.4-10.3-9.6-18.1-9.6c-8.8,0-16.4,5.1-19.9,12.1
		h-0.2v-10.5h-9.4v61.4h9.8v-32.2c0-6.2,1-11.7,5.1-16.6c3.3-3.9,8-6.2,13.3-6.2c4.1,0,8.8,2.1,10.9,5.5c2,3.1,1.8,7.8,1.8,11.3v37.8
		h9.8v-33.7C1200,596.6,1200.4,588.4,1197.1,583.3z M668.9,663.9h8V536.1h-8V663.9z M788.1,589h-40v-35.1H738v82.9h10.1v-40h40v39.8
		h10.1v-82.7h-10.1C788.1,553.9,788.1,589,788.1,589z M864.7,599.9c0-7,0-14.8-5.1-20.1c-4.7-5.3-12.5-6-19.1-6
		c-11.5,0-25.2,4.1-26.9,16.8l9,1.4c1.8-8.4,9.2-10.9,17.2-10.9c11.1,0,15.8,4.1,15.8,14.8v2.7h-8.2c-7.8,0-17,0.4-24,3.7
		c-6.8,2.9-11.5,9.6-11.5,17c0,12.1,10.1,18.5,21.8,18.5c9.9,0,17.6-3.9,21.8-12.7l1.2,11.5h9.6c-1.2-3.9-1.4-8.4-1.4-12.9v-23.8
		H864.7z M855.6,609.7c0,10.9-8,20.7-19.9,20.7c-8,0-13.8-3.1-13.8-10.7c0-12.7,13.8-14,25.5-14h8v4.1H855.6z M948.6,573.8
		c-9.6,0-17.4,5.9-20.7,13.7c-1.8-7.4-9-13.7-17.9-13.7c-8.6,0-16.2,5.7-19.1,12.5h-0.2v-10.9h-9v61.4h9.8v-35.1
		c0-5.1,0.6-9.9,3.9-14c2.5-3.3,7.2-6,11.5-6c4.3,0,8.4,2.3,10.7,5.9c2,2.9,2.1,7,2.1,10.3v38.8h9.8v-33.2c0-5.9-0.2-10.3,3.5-15.2
		c2.9-3.9,7.4-6.8,12.3-6.8c4.5,0,8.6,2.3,10.7,6.4c2,3.7,1.8,8,1.8,12.1v36.7h9.8v-36.5c0-5.7,0.2-12.5-2.9-17.6
		C961.3,577.3,955,573.8,948.6,573.8L948.6,573.8z M985.1,564.4h10.7v-10.5h-10.7C985.1,553.9,985.1,564.4,985.1,564.4z M985.7,636.6
		h9.8v-61.2h-9.8C985.7,575.3,985.7,636.6,985.7,636.6z M1015.5,636.6h9.6v-82.7h-9.6C1015.5,553.9,1015.5,636.6,1015.5,636.6z
		 M438.6,636.6h9.6v-82.7h-9.6C438.6,553.9,438.6,636.6,438.6,636.6z M467.9,636.6h9.6v-82.7h-9.6
		C467.9,553.9,467.9,636.6,467.9,636.6z M1056.9,619.4v-37.1h14.2v-7.4h-14.2v-16.2l-9.8,1v15.2h-11.3v7.4h11.3v35.5
		c0,12.3,4.1,20.1,18.1,20.1l9.4-0.8v-7.4l-7.6,0.6C1059,630.3,1056.9,626.4,1056.9,619.4L1056.9,619.4z M1108.7,573.8
		c-19.1,0-29.3,14.8-29.3,31.8c0,16.2,8.6,32.4,27.7,32.4c19.3,0,29.6-15.2,29.6-32.2C1136.6,589.4,1127.5,573.8,1108.7,573.8z
		 M1122.8,621.4c-3.1,5.7-8.2,9-14.8,9c-5.9,0-11.3-3.1-14-7.8c-2.7-4.9-3.7-11.3-3.7-17c0-5.1,0.8-10.9,3.1-15.4
		c2.7-5.5,8.4-8.8,14.6-8.8c5.7,0,10.9,2.7,13.8,7.4c3.3,5.1,4.1,11.1,4.1,17C1125.9,610.8,1125.3,616.5,1122.8,621.4L1122.8,621.4z"
		/>
</svg>
